{
.appVersion = "895";
DisplayStrings = (
"davon gewonnen down"
);
copyright = "Copyright © 2016 by Richard Tucker. All rights reserved.";
customParameters = (
{
name = note;
value = "Frisk was originally created as my project work in CAS Schriftgestaltung at ZHdk, Zürich, 2008–2010. Initial paper sketches were followed by development in Fontlab. I set it aside from late 2010 until mid 2016, and resumed development in the excellent Glyphs app.";
}
);
date = "2016-07-28 03:23:07 +0000";
designer = "Richard Tucker";
familyName = Frisk;
fontMaster = (
{
ascender = 700;
capHeight = 670;
descender = -245;
id = UUID0;
xHeight = 430;
},
{
ascender = 700;
capHeight = 670;
descender = -245;
id = "B4604C5D-F439-46D0-AEF0-55E4508ED162";
weight = Bold;
weightValue = 200;
xHeight = 438;
}
);
glyphs = (
{
color = (255,5,0,1);
glyphname = A;
lastChange = "2016-07-27 04:44:02 +0000";
layers = (
{
layerId = UUID0;
paths = (
{
closed = 1;
nodes = (
"86 0 LINE",
"315 623 LINE",
"285 623 LINE",
"514 0 LINE",
"590 0 LINE",
"338 670 LINE",
"262 670 LINE",
"10 0 LINE"
);
},
{
closed = 1;
nodes = (
"453 205 LINE",
"453 273 LINE",
"147 273 LINE",
"147 205 LINE"
);
}
);
width = 600;
},
{
background = {
paths = (
{
closed = 1;
nodes = (
"590 0 LINE",
"338 670 LINE",
"262 670 LINE",
"10 0 LINE",
"86 0 LINE",
"111 65 OFFCURVE",
"139 142 OFFCURVE",
"163 205 CURVE",
"437 205 LINE",
"514 0 LINE"
);
},
{
closed = 1;
nodes = (
"300 581 LINE",
"411 273 LINE",
"188 273 LINE"
);
}
);
};
layerId = "B4604C5D-F439-46D0-AEF0-55E4508ED162";
paths = (
{
closed = 1;
nodes = (
"102 0 LINE",
"316 579 LINE",
"284 579 LINE",
"498 0 LINE",
"606 0 LINE",
"354 670 LINE",
"246 670 LINE",
"-6 0 LINE"
);
},
{
closed = 1;
nodes = (
"475 192 LINE",
"475 286 LINE",
"137 286 LINE",
"137 192 LINE"
);
}
);
width = 600;
}
);
unicode = 0041;
},
{
color = (255,5,0,1);
glyphname = AE;
lastChange = "2016-07-28 01:38:01 +0000";
layers = (
{
background = {
paths = (
{
closed = 1;
nodes = (
"549 0 LINE",
"297 670 LINE",
"221 670 LINE",
"-31 0 LINE",
"45 0 LINE",
"70 65 OFFCURVE",
"98 142 OFFCURVE",
"122 205 CURVE",
"396 205 LINE",
"473 0 LINE"
);
},
{
closed = 1;
nodes = (
"259 581 LINE",
"370 273 LINE",
"147 273 LINE"
);
},
{
closed = 1;
nodes = (
"473 670 LINE",
"473 0 LINE",
"815 0 LINE",
"815 68 LINE",
"545 68 LINE",
"545 312 LINE",
"795 312 LINE",
"795 380 LINE",
"545 380 LINE",
"545 602 LINE",
"815 602 LINE",
"815 670 LINE"
);
}
);
};
layerId = UUID0;
paths = (
{
closed = 1;
nodes = (
"92 0 LINE",
"498 618 LINE",
"498 670 LINE",
"452 670 LINE",
"12 0 LINE"
);
},
{
closed = 1;
nodes = (
"494 205 LINE",
"494 273 LINE",
"250 273 LINE",
"194 205 LINE"
);
},
{
closed = 1;
nodes = (
"815 0 LINE",
"815 68 LINE",
"545 68 LINE",
"545 602 LINE",
"815 602 LINE",
"815 670 LINE",
"473 670 LINE",
"473 0 LINE"
);
},
{
closed = 1;
nodes = (
"795 312 LINE",
"795 380 LINE",
"529 380 LINE",
"529 312 LINE"
);
}
);
width = 880;
},
{
background = {
paths = (
{
closed = 1;
nodes = (
"479 0 LINE",
"821 0 LINE",
"821 68 LINE",
"551 68 LINE",
"551 312 LINE",
"801 312 LINE",
"801 380 LINE",
"551 380 LINE",
"551 602 LINE",
"821 602 LINE",
"821 670 LINE",
"458 670 LINE",
"18 0 LINE",
"98 0 LINE",
"479 580 LINE"
);
},
{
closed = 1;
nodes = (
"200 205 LINE",
"500 205 LINE",
"500 273 LINE",
"256 273 LINE"
);
}
);
};
layerId = "B4604C5D-F439-46D0-AEF0-55E4508ED162";
paths = (
{
closed = 1;
nodes = (
"116 0 LINE",
"505 592 LINE",
"505 670 LINE",
"440 670 LINE",
"0 0 LINE"
);
},
{
closed = 1;
nodes = (
"515 190 LINE",
"515 288 LINE",
"249 288 LINE",
"167 190 LINE"
);
},
{
closed = 1;
nodes = (
"836 0 LINE",
"836 94 LINE",
"566 94 LINE",
"566 576 LINE",
"836 576 LINE",
"836 670 LINE",
"464 670 LINE",
"464 0 LINE"
);
},
{
closed = 1;
nodes = (
"816 299 LINE",
"816 393 LINE",
"550 393 LINE",
"550 299 LINE"
);
}
);
width = 886;
}
);
unicode = 00C6;
},
{
color = (255,5,0,1);
glyphname = B;
lastChange = "2016-07-27 04:46:07 +0000";
layers = (
{
background = {
paths = (
{
closed = 1;
nodes = (
"85 670 LINE",
"85 0 LINE",
"263 0 LINE SMOOTH",
"413 0 OFFCURVE",
"479 83 OFFCURVE",
"479 187 CURVE SMOOTH",
"479 270 OFFCURVE",
"424 323 OFFCURVE",
"372 352 CURVE",
"422 383 OFFCURVE",
"459 431 OFFCURVE",
"459 488 CURVE SMOOTH",
"459 624 OFFCURVE",
"355 670 OFFCURVE",
"270 670 CURVE SMOOTH"
);
},
{
closed = 1;
nodes = (
"289 310 LINE SMOOTH",
"357 310 OFFCURVE",
"408 254 OFFCURVE",
"408 187 CURVE SMOOTH",
"408 121 OFFCURVE",
"377 68 OFFCURVE",
"267 68 CURVE SMOOTH",
"157 68 LINE",
"157 310 LINE"
);
},
{
closed = 1;
nodes = (
"269 602 LINE SMOOTH",
"347 602 OFFCURVE",
"388 555 OFFCURVE",
"388 488 CURVE SMOOTH",
"388 423 OFFCURVE",
"330 378 OFFCURVE",
"268 378 CURVE SMOOTH",
"157 378 LINE",
"157 602 LINE"
);
}
);
};
layerId = UUID0;
paths = (
{
closed = 1;
nodes = (
"85 670 LINE",
"85 0 LINE",
"263 0 LINE SMOOTH",
"413 0 OFFCURVE",
"479 83 OFFCURVE",
"479 187 CURVE SMOOTH",
"479 282 OFFCURVE",
"407 338 OFFCURVE",
"350 363 CURVE",
"344 337 LINE",
"408 366 OFFCURVE",
"459 421 OFFCURVE",
"459 488 CURVE SMOOTH",
"459 624 OFFCURVE",
"355 670 OFFCURVE",
"270 670 CURVE SMOOTH"
);
},
{
closed = 1;
nodes = (
"157 602 LINE",
"269 602 LINE SMOOTH",
"347 602 OFFCURVE",
"388 555 OFFCURVE",
"388 488 CURVE SMOOTH",
"388 423 OFFCURVE",
"330 378 OFFCURVE",
"268 378 CURVE SMOOTH",
"197 378 LINE",
"197 310 LINE",
"289 310 LINE SMOOTH",
"357 310 OFFCURVE",
"408 254 OFFCURVE",
"408 187 CURVE SMOOTH",
"408 121 OFFCURVE",
"377 68 OFFCURVE",
"267 68 CURVE SMOOTH",
"157 68 LINE"
);
}
);
width = 539;
},
{
background = {
paths = (
{
closed = 1;
nodes = (
"85 670 LINE",
"85 0 LINE",
"263 0 LINE SMOOTH",
"413 0 OFFCURVE",
"479 83 OFFCURVE",
"479 187 CURVE SMOOTH",
"479 270 OFFCURVE",
"424 323 OFFCURVE",
"372 352 CURVE",
"422 383 OFFCURVE",
"459 431 OFFCURVE",
"459 488 CURVE SMOOTH",
"459 624 OFFCURVE",
"355 670 OFFCURVE",
"270 670 CURVE SMOOTH"
);
},
{
closed = 1;
nodes = (
"157 602 LINE",
"269 602 LINE SMOOTH",
"347 602 OFFCURVE",
"388 555 OFFCURVE",
"388 488 CURVE SMOOTH",
"388 423 OFFCURVE",
"330 378 OFFCURVE",
"268 378 CURVE SMOOTH",
"197 378 LINE",
"197 310 LINE",
"289 310 LINE SMOOTH",
"357 310 OFFCURVE",
"408 254 OFFCURVE",
"408 187 CURVE SMOOTH",
"408 121 OFFCURVE",
"377 68 OFFCURVE",
"267 68 CURVE SMOOTH",
"157 68 LINE"
);
}
);
};
layerId = "B4604C5D-F439-46D0-AEF0-55E4508ED162";
paths = (
{
closed = 1;
nodes = (
"70 670 LINE",
"70 0 LINE",
"263 0 LINE SMOOTH",
"423 0 OFFCURVE",
"494 82 OFFCURVE",
"494 194 CURVE SMOOTH",
"494 286 OFFCURVE",
"431 333 OFFCURVE",
"375 366 CURVE",
"370 333 LINE",
"431 372 OFFCURVE",
"474 413 OFFCURVE",
"474 480 CURVE SMOOTH",
"474 627 OFFCURVE",
"361 670 OFFCURVE",
"270 670 CURVE SMOOTH"
);
},
{
closed = 1;
nodes = (
"172 572 LINE",
"269 572 LINE SMOOTH",
"337 572 OFFCURVE",
"373 538 OFFCURVE",
"373 480 CURVE SMOOTH",
"373 424 OFFCURVE",
"322 393 OFFCURVE",
"268 393 CURVE SMOOTH",
"212 393 LINE",
"212 295 LINE",
"289 295 LINE SMOOTH",
"348 295 OFFCURVE",
"393 253 OFFCURVE",
"393 194 CURVE SMOOTH",
"393 137 OFFCURVE",
"365 98 OFFCURVE",
"267 98 CURVE SMOOTH",
"172 98 LINE"
);
}
);
width = 539;
}
);
unicode = 0042;
},
{
color = (255,5,0,1);
glyphname = C;
lastChange = "2016-07-27 04:27:05 +0000";
layers = (
{
background = {
paths = (
{
closed = 1;
nodes = (
"513 626 LINE",
"474 655 OFFCURVE",
"427 678 OFFCURVE",
"344 678 CURVE SMOOTH",
"178 678 OFFCURVE",
"48 545 OFFCURVE",
"48 336 CURVE SMOOTH",
"48 137 OFFCURVE",
"158 -8 OFFCURVE",
"324 -8 CURVE SMOOTH",
"422 -8 OFFCURVE",
"500 30 OFFCURVE",
"500 30 CURVE",
"500 104 LINE",
"500 103 OFFCURVE",
"425 63 OFFCURVE",
"324 63 CURVE SMOOTH",
"199 63 OFFCURVE",
"123 175 OFFCURVE",
"123 336 CURVE SMOOTH",
"123 517 OFFCURVE",
"219 608 OFFCURVE",
"344 608 CURVE SMOOTH",
"389 608 OFFCURVE",
"435 594 OFFCURVE",
"465 573 CURVE"
);
}
);
};
layerId = UUID0;
paths = (
{
closed = 1;
nodes = (
"513 626 LINE",
"474 655 OFFCURVE",
"427 678 OFFCURVE",
"344 678 CURVE SMOOTH",
"178 678 OFFCURVE",
"48 545 OFFCURVE",
"48 336 CURVE SMOOTH",
"48 137 OFFCURVE",
"158 -8 OFFCURVE",
"324 -8 CURVE SMOOTH",
"422 -8 OFFCURVE",
"500 30 OFFCURVE",
"500 30 CURVE",
"500 104 LINE",
"500 103 OFFCURVE",
"425 63 OFFCURVE",
"324 63 CURVE SMOOTH",
"199 63 OFFCURVE",
"123 175 OFFCURVE",
"123 336 CURVE SMOOTH",
"123 512 OFFCURVE",
"224 608 OFFCURVE",
"344 608 CURVE SMOOTH",
"389 608 OFFCURVE",
"435 594 OFFCURVE",
"465 573 CURVE"
);
}
);
width = 558;
},
{
background = {
paths = (
{
closed = 1;
nodes = (
"513 626 LINE",
"474 655 OFFCURVE",
"427 678 OFFCURVE",
"344 678 CURVE SMOOTH",
"178 678 OFFCURVE",
"48 545 OFFCURVE",
"48 336 CURVE SMOOTH",
"48 137 OFFCURVE",
"158 -8 OFFCURVE",
"324 -8 CURVE SMOOTH",
"422 -8 OFFCURVE",
"500 30 OFFCURVE",
"500 30 CURVE",
"500 104 LINE",
"500 103 OFFCURVE",
"425 63 OFFCURVE",
"324 63 CURVE SMOOTH",
"199 63 OFFCURVE",
"123 175 OFFCURVE",
"123 336 CURVE SMOOTH",
"123 512 OFFCURVE",
"224 608 OFFCURVE",
"344 608 CURVE SMOOTH",
"389 608 OFFCURVE",
"435 594 OFFCURVE",
"465 573 CURVE"
);
}
);
};
layerId = "B4604C5D-F439-46D0-AEF0-55E4508ED162";
paths = (
{
closed = 1;
nodes = (
"520 622 LINE",
"484 649 OFFCURVE",
"431 678 OFFCURVE",
"344 678 CURVE SMOOTH",
"169 678 OFFCURVE",
"33 549 OFFCURVE",
"33 336 CURVE SMOOTH",
"33 128 OFFCURVE",
"149 -8 OFFCURVE",
"324 -8 CURVE SMOOTH",
"425 -8 OFFCURVE",
"515 35 OFFCURVE",
"515 35 CURVE",
"515 139 LINE",
"499 129 OFFCURVE",
"416 93 OFFCURVE",
"324 93 CURVE SMOOTH",
"208 93 OFFCURVE",
"138 189 OFFCURVE",
"138 336 CURVE SMOOTH",
"138 502 OFFCURVE",
"227 578 OFFCURVE",
"344 578 CURVE SMOOTH",
"386 578 OFFCURVE",
"433 562 OFFCURVE",
"467 538 CURVE"
);
}
);
width = 558;
}
);
unicode = 0043;
},
{
color = (255,5,0,1);
glyphname = D;
lastChange = "2016-07-27 04:27:05 +0000";
layers = (
{
layerId = UUID0;
paths = (
{
closed = 1;
nodes = (
"85 0 LINE",
"273 0 LINE SMOOTH",
"439 0 OFFCURVE",
"570 132 OFFCURVE",
"570 336 CURVE SMOOTH",
"570 531 OFFCURVE",
"459 670 OFFCURVE",
"293 670 CURVE SMOOTH",
"85 670 LINE"
);
},
{
closed = 1;
nodes = (
"293 600 LINE SMOOTH",
"418 600 OFFCURVE",
"495 493 OFFCURVE",
"495 336 CURVE SMOOTH",
"495 160 OFFCURVE",
"398 70 OFFCURVE",
"273 70 CURVE SMOOTH",
"157 70 LINE",
"157 600 LINE"
);
}
);
width = 618;
},
{
background = {
paths = (
{
closed = 1;
nodes = (
"85 0 LINE",
"273 0 LINE SMOOTH",
"439 0 OFFCURVE",
"570 132 OFFCURVE",
"570 336 CURVE SMOOTH",
"570 531 OFFCURVE",
"459 670 OFFCURVE",
"293 670 CURVE SMOOTH",
"85 670 LINE"
);
},
{
closed = 1;
nodes = (
"293 600 LINE SMOOTH",
"418 600 OFFCURVE",
"495 493 OFFCURVE",
"495 336 CURVE SMOOTH",
"495 160 OFFCURVE",
"398 70 OFFCURVE",
"273 70 CURVE SMOOTH",
"157 70 LINE",
"157 600 LINE"
);
}
);
};
layerId = "B4604C5D-F439-46D0-AEF0-55E4508ED162";
paths = (
{
closed = 1;
nodes = (
"70 0 LINE",
"273 0 LINE SMOOTH",
"447 0 OFFCURVE",
"585 132 OFFCURVE",
"585 336 CURVE SMOOTH",
"585 531 OFFCURVE",
"468 670 OFFCURVE",
"293 670 CURVE SMOOTH",
"70 670 LINE"
);
},
{
closed = 1;
nodes = (
"293 575 LINE SMOOTH",
"408 575 OFFCURVE",
"480 478 OFFCURVE",
"480 336 CURVE SMOOTH",
"480 176 OFFCURVE",
"389 95 OFFCURVE",
"273 95 CURVE SMOOTH",
"172 95 LINE",
"172 575 LINE"
);
}
);
width = 618;
}
);
unicode = 0044;
},
{
color = (255,5,0,1);
glyphname = E;
lastChange = "2016-07-27 04:45:35 +0000";
layers = (
{
layerId = UUID0;
paths = (
{
closed = 1;
nodes = (
"141 312 LINE",
"407 312 LINE",
"407 380 LINE",
"141 380 LINE"
);
},
{
closed = 1;
nodes = (
"157 602 LINE",
"427 602 LINE",
"427 670 LINE",
"85 670 LINE",
"85 0 LINE",
"427 0 LINE",
"427 68 LINE",
"157 68 LINE"
);
}
);
width = 492;
},
{
background = {
paths = (
{
closed = 1;
nodes = (
"85 670 LINE",
"85 0 LINE",
"427 0 LINE",
"427 68 LINE",
"157 68 LINE",
"157 312 LINE",
"407 312 LINE",
"407 380 LINE",
"157 380 LINE",
"157 602 LINE",
"427 602 LINE",
"427 670 LINE"
);
}
);
};
layerId = "B4604C5D-F439-46D0-AEF0-55E4508ED162";
paths = (
{
closed = 1;
nodes = (
"156 299 LINE",
"422 299 LINE",
"422 393 LINE",
"156 393 LINE"
);
},
{
closed = 1;
nodes = (
"172 576 LINE",
"442 576 LINE",
"442 670 LINE",
"70 670 LINE",
"70 0 LINE",
"442 0 LINE",
"442 94 LINE",
"172 94 LINE"
);
}
);
width = 492;
}
);
unicode = 0045;
},
{
color = (255,5,0,1);
glyphname = F;
lastChange = "2016-07-27 04:54:43 +0000";
layers = (
{
layerId = UUID0;
paths = (
{
closed = 1;
nodes = (
"141 302 LINE",
"407 302 LINE",
"407 370 LINE",
"141 370 LINE"
);
},
{
closed = 1;
nodes = (
"157 602 LINE",
"427 602 LINE",
"427 670 LINE",
"85 670 LINE",
"85 0 LINE",
"157 0 LINE"
);
}
);
width = 487;
},
{
background = {
paths = (
{
closed = 1;
nodes = (
"85 670 LINE",
"85 0 LINE",
"157 0 LINE",
"157 302 LINE",
"407 302 LINE",
"407 370 LINE",
"157 370 LINE",
"157 602 LINE",
"427 602 LINE",
"427 670 LINE"
);
}
);
};
layerId = "B4604C5D-F439-46D0-AEF0-55E4508ED162";
paths = (
{
closed = 1;
nodes = (
"156 289 LINE",
"422 289 LINE",
"422 383 LINE",
"156 383 LINE"
);
},
{
closed = 1;
nodes = (
"172 576 LINE",
"442 576 LINE",
"442 670 LINE",
"70 670 LINE",
"70 0 LINE",
"172 0 LINE"
);
}
);
width = 487;
}
);
unicode = 0046;
},
{
color = (255,5,0,1);
glyphname = G;
lastChange = "2016-07-27 04:27:05 +0000";
layers = (
{
layerId = UUID0;
paths = (
{
closed = 1;
nodes = (
"313 370 LINE",
"313 302 LINE",
"458 302 LINE",
"458 90 LINE",
"425 77 OFFCURVE",
"386 63 OFFCURVE",
"324 63 CURVE SMOOTH",
"199 63 OFFCURVE",
"123 175 OFFCURVE",
"123 336 CURVE SMOOTH",
"123 517 OFFCURVE",
"219 608 OFFCURVE",
"344 608 CURVE SMOOTH",
"389 608 OFFCURVE",
"435 594 OFFCURVE",
"465 573 CURVE",
"513 626 LINE",
"474 655 OFFCURVE",
"427 678 OFFCURVE",
"344 678 CURVE SMOOTH",
"178 678 OFFCURVE",
"48 545 OFFCURVE",
"48 336 CURVE SMOOTH",
"48 137 OFFCURVE",
"158 -8 OFFCURVE",
"324 -8 CURVE SMOOTH",
"422 -8 OFFCURVE",
"493 29 OFFCURVE",
"530 49 CURVE",
"530 370 LINE"
);
}
);
width = 605;
},
{
background = {
paths = (
{
closed = 1;
nodes = (
"313 370 LINE",
"313 302 LINE",
"458 302 LINE",
"458 90 LINE",
"425 77 OFFCURVE",
"386 63 OFFCURVE",
"324 63 CURVE SMOOTH",
"199 63 OFFCURVE",
"123 175 OFFCURVE",
"123 336 CURVE SMOOTH",
"123 517 OFFCURVE",
"219 608 OFFCURVE",
"344 608 CURVE SMOOTH",
"389 608 OFFCURVE",
"435 594 OFFCURVE",
"465 573 CURVE",
"513 626 LINE",
"474 655 OFFCURVE",
"427 678 OFFCURVE",
"344 678 CURVE SMOOTH",
"178 678 OFFCURVE",
"48 545 OFFCURVE",
"48 336 CURVE SMOOTH",
"48 137 OFFCURVE",
"158 -8 OFFCURVE",
"324 -8 CURVE SMOOTH",
"422 -8 OFFCURVE",
"493 29 OFFCURVE",
"530 49 CURVE",
"530 370 LINE"
);
},
{
closed = 1;
nodes = (
"298 385 LINE",
"298 287 LINE",
"443 287 LINE",
"443 115 LINE",
"413 104 OFFCURVE",
"376 93 OFFCURVE",
"324 93 CURVE SMOOTH",
"208 93 OFFCURVE",
"138 186 OFFCURVE",
"138 336 CURVE SMOOTH",
"138 502 OFFCURVE",
"227 578 OFFCURVE",
"344 578 CURVE SMOOTH",
"386 578 OFFCURVE",
"433 562 OFFCURVE",
"467 538 CURVE",
"535 613 LINE",
"486 649 OFFCURVE",
"431 678 OFFCURVE",
"344 678 CURVE SMOOTH",
"169 678 OFFCURVE",
"33 544 OFFCURVE",
"33 336 CURVE SMOOTH",
"33 133 OFFCURVE",
"149 -8 OFFCURVE",
"324 -8 CURVE SMOOTH",
"424 -8 OFFCURVE",
"503 33 OFFCURVE",
"545 55 CURVE",
"545 385 LINE"
);
}
);
};
layerId = "B4604C5D-F439-46D0-AEF0-55E4508ED162";
paths = (
{
closed = 1;
nodes = (
"298 385 LINE",
"298 287 LINE",
"443 287 LINE",
"443 115 LINE",
"413 104 OFFCURVE",
"376 93 OFFCURVE",
"324 93 CURVE SMOOTH",
"208 93 OFFCURVE",
"138 186 OFFCURVE",
"138 336 CURVE SMOOTH",
"138 502 OFFCURVE",
"227 578 OFFCURVE",
"344 578 CURVE SMOOTH",
"386 578 OFFCURVE",
"433 562 OFFCURVE",
"467 538 CURVE",
"520 622 LINE",
"484 649 OFFCURVE",
"431 678 OFFCURVE",
"344 678 CURVE SMOOTH",
"169 678 OFFCURVE",
"33 544 OFFCURVE",
"33 336 CURVE SMOOTH",
"33 133 OFFCURVE",
"149 -8 OFFCURVE",
"324 -8 CURVE SMOOTH",
"424 -8 OFFCURVE",
"503 33 OFFCURVE",
"545 55 CURVE",
"545 385 LINE"
);
}
);
width = 605;
}
);
unicode = 0047;
},
{
color = (255,5,0,1);
glyphname = H;
lastChange = "2016-07-27 04:56:39 +0000";
layers = (
{
layerId = UUID0;
paths = (
{
closed = 1;
nodes = (
"571 0 LINE",
"571 670 LINE",
"499 670 LINE",
"499 0 LINE"
);
},
{
closed = 1;
nodes = (
"157 0 LINE",
"157 670 LINE",
"85 670 LINE",
"85 0 LINE"
);
},
{
closed = 1;
nodes = (
"515 302 LINE",
"515 370 LINE",
"141 370 LINE",
"141 302 LINE"
);
}
);
width = 656;
},
{
background = {
paths = (
{
closed = 1;
nodes = (
"571 670 LINE",
"499 670 LINE",
"499 370 LINE",
"157 370 LINE",
"157 670 LINE",
"85 670 LINE",
"85 0 LINE",
"157 0 LINE",
"157 302 LINE",
"499 302 LINE",
"499 0 LINE",
"571 0 LINE"
);
}
);
};
layerId = "B4604C5D-F439-46D0-AEF0-55E4508ED162";
paths = (
{
closed = 1;
nodes = (
"586 0 LINE",
"586 670 LINE",
"484 670 LINE",
"484 0 LINE"
);
},
{
closed = 1;
nodes = (
"172 0 LINE",
"172 670 LINE",
"70 670 LINE",
"70 0 LINE"
);
},
{
closed = 1;
nodes = (
"500 288 LINE",
"500 384 LINE",
"156 384 LINE",
"156 288 LINE"
);
}
);
width = 656;
}
);
unicode = 0048;
},
{
color = (255,5,0,1);
glyphname = I;
lastChange = "2016-07-27 04:27:05 +0000";
layers = (
{
layerId = UUID0;
paths = (
{
closed = 1;
nodes = (
"157 670 LINE",
"85 670 LINE",
"85 0 LINE",
"157 0 LINE"
);
}
);
width = 242;
},
{
background = {
paths = (
{
closed = 1;
nodes = (
"157 670 LINE",
"85 670 LINE",
"85 0 LINE",
"157 0 LINE"
);
}
);
};
layerId = "B4604C5D-F439-46D0-AEF0-55E4508ED162";
paths = (
{
closed = 1;
nodes = (
"172 670 LINE",
"70 670 LINE",
"70 0 LINE",
"172 0 LINE"
);
}
);
width = 242;
}
);
unicode = 0049;
},
{
color = (255,5,0,1);
glyphname = J;
lastChange = "2016-07-27 04:27:05 +0000";
layers = (
{
layerId = UUID0;
paths = (
{
closed = 1;
nodes = (
"0 -158 LINE",
"91 -135 OFFCURVE",
"228 -89 OFFCURVE",
"228 63 CURVE SMOOTH",
"228 670 LINE",
"156 670 LINE",
"156 66 LINE SMOOTH",
"156 -38 OFFCURVE",
"62 -63 OFFCURVE",
"0 -83 CURVE"
);
}
);
width = 313;
},
{
background = {
paths = (
{
closed = 1;
nodes = (
"0 -158 LINE",
"91 -135 OFFCURVE",
"228 -89 OFFCURVE",
"228 63 CURVE SMOOTH",
"228 670 LINE",
"156 670 LINE",
"156 66 LINE SMOOTH",
"156 -38 OFFCURVE",
"62 -63 OFFCURVE",
"0 -83 CURVE"
);
}
);
};
layerId = "B4604C5D-F439-46D0-AEF0-55E4508ED162";
paths = (
{
closed = 1;
nodes = (
"-15 -177 LINE",
"88 -151 OFFCURVE",
"243 -100 OFFCURVE",
"243 63 CURVE SMOOTH",
"243 670 LINE",
"141 670 LINE",
"141 66 LINE SMOOTH",
"141 -27 OFFCURVE",
"47 -54 OFFCURVE",
"-15 -72 CURVE"
);
}
);
width = 313;
}
);
unicode = 004A;
},
{
color = (255,5,0,1);
glyphname = K;
lastChange = "2016-07-27 04:46:01 +0000";
layers = (
{
background = {
paths = (
{
closed = 1;
nodes = (
"493 0 LINE",
"218 352 LINE",
"474 670 LINE",
"382 670 LINE",
"157 390 LINE",
"157 670 LINE",
"85 670 LINE",
"85 0 LINE",
"157 0 LINE",
"157 314 LINE",
"401 0 LINE"
);
},
{
closed = 1;
nodes = (
"493 0 LINE",
"218 352 LINE",
"474 670 LINE",
"382 670 LINE",
"157 390 LINE",
"157 670 LINE",
"85 670 LINE",
"85 0 LINE",
"157 0 LINE",
"157 314 LINE",
"401 0 LINE"
);
}
);
};
layerId = UUID0;
paths = (
{
closed = 1;
nodes = (
"157 670 LINE",
"85 670 LINE",
"85 0 LINE",
"157 0 LINE"
);
},
{
closed = 1;
nodes = (
"187 319 LINE",
"433 0 LINE",
"524 0 LINE",
"221 387 LINE",
"221 317 LINE",
"505 670 LINE",
"414 670 LINE",
"187 385 LINE"
);
}
);
width = 549;
},
{
background = {
paths = (
{
closed = 1;
nodes = (
"157 670 LINE",
"85 670 LINE",
"85 0 LINE",
"157 0 LINE"
);
},
{
closed = 1;
nodes = (
"187 319 LINE",
"433 0 LINE",
"524 0 LINE",
"249 352 LINE",
"505 670 LINE",
"414 670 LINE",
"187 385 LINE"
);
}
);
};
layerId = "B4604C5D-F439-46D0-AEF0-55E4508ED162";
paths = (
{
closed = 1;
nodes = (
"172 670 LINE",
"70 670 LINE",
"70 0 LINE",
"172 0 LINE"
);
},
{
closed = 1;
nodes = (
"207 300 LINE",
"438 0 LINE",
"568 0 LINE",
"261 387 LINE",
"260 317 LINE",
"550 670 LINE",
"420 670 LINE",
"207 403 LINE"
);
}
);
width = 549;
}
);
unicode = 004B;
},
{
color = (255,5,0,1);
glyphname = L;
lastChange = "2016-07-27 04:27:05 +0000";
layers = (
{
layerId = UUID0;
paths = (
{
closed = 1;
nodes = (
"157 670 LINE",
"85 670 LINE",
"85 0 LINE",
"467 0 LINE",
"467 68 LINE",
"157 68 LINE"
);
}
);
width = 507;
},
{
background = {
paths = (
{
closed = 1;
nodes = (
"157 670 LINE",
"85 670 LINE",
"85 0 LINE",
"467 0 LINE",
"467 68 LINE",
"157 68 LINE"
);
}
);
};
layerId = "B4604C5D-F439-46D0-AEF0-55E4508ED162";
paths = (
{
closed = 1;
nodes = (
"172 670 LINE",
"70 670 LINE",
"70 0 LINE",
"482 0 LINE",
"482 94 LINE",
"172 94 LINE"
);
}
);
width = 507;
}
);
unicode = 004C;
},
{
color = (255,5,0,1);
glyphname = M;
lastChange = "2016-07-27 04:55:05 +0000";
layers = (
{
background = {
paths = (
{
closed = 1;
nodes = (
"383 131 LINE",
"450 247 OFFCURVE",
"535 395 OFFCURVE",
"611 526 CURVE",
"611 0 LINE",
"683 0 LINE",
"683 670 LINE",
"611 670 LINE",
"383 274 LINE",
"157 670 LINE",
"85 670 LINE",
"85 0 LINE",
"157 0 LINE",
"157 525 LINE"
);
}
);
};
layerId = UUID0;
paths = (
{
closed = 1;
nodes = (
"157 0 LINE",
"157 580 LINE",
"142 577 LINE",
"347 0 LINE",
"423 0 LINE",
"626 576 LINE",
"611 579 LINE",
"611 0 LINE",
"683 0 LINE",
"683 670 LINE",
"591 670 LINE",
"371 49 LINE",
"401 49 LINE",
"178 670 LINE",
"85 670 LINE",
"85 0 LINE"
);
}
);
width = 768;
},
{
background = {
paths = (
{
closed = 1;
nodes = (
"347 0 LINE",
"423 0 LINE",
"611 529 LINE",
"611 0 LINE",
"683 0 LINE",
"683 670 LINE",
"591 670 LINE",
"386 91 LINE",
"178 670 LINE",
"85 670 LINE",
"85 0 LINE",
"157 0 LINE",
"157 530 LINE"
);
},
{
closed = 1;
nodes = (
"94 670 LINE",
"336 0 LINE",
"436 0 LINE",
"679 670 LINE",
"568 670 LINE",
"386 147 LINE",
"204 670 LINE"
);
}
);
};
layerId = "B4604C5D-F439-46D0-AEF0-55E4508ED162";
paths = (
{
closed = 1;
nodes = (
"172 0 LINE",
"172 510 LINE",
"157 507 LINE",
"336 0 LINE",
"436 0 LINE",
"611 508 LINE",
"596 510 LINE",
"596 0 LINE",
"698 0 LINE",
"698 670 LINE",
"575 670 LINE",
"371 105 LINE",
"401 105 LINE",
"195 670 LINE",
"70 670 LINE",
"70 0 LINE"
);
}
);
width = 768;
}
);
unicode = 004D;
},
{
color = (255,5,0,1);
glyphname = N;
lastChange = "2016-07-27 04:46:59 +0000";
layers = (
{
layerId = UUID0;
paths = (
{
closed = 1;
nodes = (
"571 670 LINE",
"499 670 LINE",
"499 71 LINE",
"523 78 LINE",
"157 670 LINE",
"85 670 LINE",
"85 0 LINE",
"157 0 LINE",
"157 579 LINE",
"133 572 LINE",
"489 0 LINE",
"571 0 LINE"
);
}
);
width = 656;
},
{
background = {
paths = (
{
closed = 1;
nodes = (
"571 670 LINE",
"499 670 LINE",
"499 116 LINE",
"157 670 LINE",
"85 670 LINE",
"85 0 LINE",
"157 0 LINE",
"157 534 LINE",
"489 0 LINE",
"571 0 LINE"
);
}
);
};
layerId = "B4604C5D-F439-46D0-AEF0-55E4508ED162";
paths = (
{
closed = 1;
nodes = (
"586 670 LINE",
"484 670 LINE",
"484 129 LINE",
"508 136 LINE",
"165 670 LINE",
"70 670 LINE",
"70 0 LINE",
"172 0 LINE",
"172 520 LINE",
"148 513 LINE",
"480 0 LINE",
"586 0 LINE"
);
}
);
width = 656;
}
);
unicode = 004E;
},
{
color = (255,5,0,1);
glyphname = O;
lastChange = "2016-07-27 04:27:05 +0000";
layers = (
{
layerId = UUID0;
paths = (
{
closed = 1;
nodes = (
"48 137 OFFCURVE",
"158 -8 OFFCURVE",
"324 -8 CURVE SMOOTH",
"490 -8 OFFCURVE",
"621 127 OFFCURVE",
"621 336 CURVE SMOOTH",
"621 535 OFFCURVE",
"510 678 OFFCURVE",
"344 678 CURVE SMOOTH",
"178 678 OFFCURVE",
"48 545 OFFCURVE",
"48 336 CURVE SMOOTH"
);
},
{
closed = 1;
nodes = (
"123 517 OFFCURVE",
"219 608 OFFCURVE",
"344 608 CURVE SMOOTH",
"469 608 OFFCURVE",
"546 497 OFFCURVE",
"546 336 CURVE SMOOTH",
"546 155 OFFCURVE",
"449 63 OFFCURVE",
"324 63 CURVE SMOOTH",
"199 63 OFFCURVE",
"123 175 OFFCURVE",
"123 336 CURVE SMOOTH"
);
}
);
width = 669;
},
{
background = {
paths = (
{
closed = 1;
nodes = (
"48 137 OFFCURVE",
"158 -8 OFFCURVE",
"324 -8 CURVE SMOOTH",
"490 -8 OFFCURVE",
"621 127 OFFCURVE",
"621 336 CURVE SMOOTH",
"621 535 OFFCURVE",
"510 678 OFFCURVE",
"344 678 CURVE SMOOTH",
"178 678 OFFCURVE",
"48 545 OFFCURVE",
"48 336 CURVE SMOOTH"
);
},
{
closed = 1;
nodes = (
"123 517 OFFCURVE",
"219 608 OFFCURVE",
"344 608 CURVE SMOOTH",
"469 608 OFFCURVE",
"546 497 OFFCURVE",
"546 336 CURVE SMOOTH",
"546 155 OFFCURVE",
"449 63 OFFCURVE",
"324 63 CURVE SMOOTH",
"199 63 OFFCURVE",
"123 175 OFFCURVE",
"123 336 CURVE SMOOTH"
);
}
);
};
layerId = "B4604C5D-F439-46D0-AEF0-55E4508ED162";
paths = (
{
closed = 1;
nodes = (
"33 137 OFFCURVE",
"149 -8 OFFCURVE",
"324 -8 CURVE SMOOTH",
"498 -8 OFFCURVE",
"636 127 OFFCURVE",
"636 336 CURVE SMOOTH",
"636 535 OFFCURVE",
"519 678 OFFCURVE",
"344 678 CURVE SMOOTH",
"169 678 OFFCURVE",
"33 545 OFFCURVE",
"33 336 CURVE SMOOTH"
);
},
{
closed = 1;
nodes = (
"138 500 OFFCURVE",
"227 583 OFFCURVE",
"344 583 CURVE SMOOTH",
"459 583 OFFCURVE",
"531 482 OFFCURVE",
"531 336 CURVE SMOOTH",
"531 171 OFFCURVE",
"440 88 OFFCURVE",
"324 88 CURVE SMOOTH",
"208 88 OFFCURVE",
"138 190 OFFCURVE",
"138 336 CURVE SMOOTH"
);
}
);
width = 669;
}
);
unicode = 004F;
},
{
color = (255,5,0,1);
glyphname = Oslash;
lastChange = "2016-07-28 01:39:18 +0000";
layers = (
{
layerId = UUID0;
paths = (
{
closed = 1;
nodes = (
"490 -8 OFFCURVE",
"621 127 OFFCURVE",
"621 336 CURVE SMOOTH",
"621 525 OFFCURVE",
"517 678 OFFCURVE",
"344 678 CURVE SMOOTH",
"178 678 OFFCURVE",
"48 545 OFFCURVE",
"48 336 CURVE SMOOTH",
"48 145 OFFCURVE",
"151 -8 OFFCURVE",
"324 -8 CURVE SMOOTH"
);
},
{
closed = 1;
nodes = (
"181 -48 LINE",
"549 718 LINE",
"486 718 LINE",
"118 -48 LINE"
);
},
{
closed = 1;
nodes = (
"193 63 OFFCURVE",
"123 182 OFFCURVE",
"123 336 CURVE SMOOTH",
"123 517 OFFCURVE",
"219 608 OFFCURVE",
"344 608 CURVE SMOOTH",
"473 608 OFFCURVE",
"546 488 OFFCURVE",
"546 336 CURVE SMOOTH",
"546 155 OFFCURVE",
"449 63 OFFCURVE",
"324 63 CURVE SMOOTH"
);
}
);
width = 669;
},
{
background = {
paths = (
{
closed = 1;
nodes = (
"549 718 LINE",
"486 718 LINE",
"455 653 LINE",
"422 669 OFFCURVE",
"384 678 OFFCURVE",
"344 678 CURVE SMOOTH",
"178 678 OFFCURVE",
"48 545 OFFCURVE",
"48 336 CURVE SMOOTH",
"48 211 OFFCURVE",
"91 108 OFFCURVE",
"164 48 CURVE",
"118 -48 LINE",
"181 -48 LINE",
"212 17 LINE",
"246 1 OFFCURVE",
"283 -8 OFFCURVE",
"324 -8 CURVE SMOOTH",
"490 -8 OFFCURVE",
"621 127 OFFCURVE",
"621 336 CURVE SMOOTH",
"621 461 OFFCURVE",
"577 564 OFFCURVE",
"503 623 CURVE"
);
},
{
closed = 1;
nodes = (
"546 155 OFFCURVE",
"449 63 OFFCURVE",
"324 63 CURVE SMOOTH",
"294 63 OFFCURVE",
"267 69 OFFCURVE",
"243 81 CURVE",
"471 556 LINE",
"519 509 OFFCURVE",
"546 431 OFFCURVE",
"546 336 CURVE SMOOTH"
);
},
{
closed = 1;
nodes = (
"123 517 OFFCURVE",
"219 608 OFFCURVE",
"344 608 CURVE SMOOTH",
"373 608 OFFCURVE",
"400 601 OFFCURVE",
"424 590 CURVE",
"196 115 LINE",
"149 163 OFFCURVE",
"123 241 OFFCURVE",
"123 336 CURVE SMOOTH"
);
}
);
};
layerId = "B4604C5D-F439-46D0-AEF0-55E4508ED162";
paths = (
{
closed = 1;
nodes = (
"498 -8 OFFCURVE",
"636 127 OFFCURVE",
"636 336 CURVE SMOOTH",
"636 535 OFFCURVE",
"519 678 OFFCURVE",
"344 678 CURVE SMOOTH",
"169 678 OFFCURVE",
"33 545 OFFCURVE",
"33 336 CURVE SMOOTH",
"33 137 OFFCURVE",
"149 -8 OFFCURVE",
"324 -8 CURVE SMOOTH"
);
},
{
closed = 1;
nodes = (
"191 -48 LINE",
"559 718 LINE",
"476 718 LINE",
"108 -48 LINE"
);
},
{
closed = 1;
nodes = (
"208 88 OFFCURVE",
"138 190 OFFCURVE",
"138 336 CURVE SMOOTH",
"138 500 OFFCURVE",
"227 583 OFFCURVE",
"344 583 CURVE SMOOTH",
"459 583 OFFCURVE",
"531 482 OFFCURVE",
"531 336 CURVE SMOOTH",
"531 171 OFFCURVE",
"440 88 OFFCURVE",
"324 88 CURVE SMOOTH"
);
}
);
width = 669;
}
);
unicode = 00D8;
},
{
color = (255,5,0,1);
glyphname = OE;
lastChange = "2016-07-28 01:38:47 +0000";
layers = (
{
layerId = UUID0;
paths = (
{
closed = 1;
nodes = (
"471 76 LINE",
"439 68 OFFCURVE",
"395 63 OFFCURVE",
"362 63 CURVE SMOOTH",
"207 63 OFFCURVE",
"123 175 OFFCURVE",
"123 336 CURVE SMOOTH",
"123 517 OFFCURVE",
"232 608 OFFCURVE",
"386 608 CURVE SMOOTH",
"412 608 OFFCURVE",
"447 605 OFFCURVE",
"471 599 CURVE",
"471 670 LINE",
"448 674 OFFCURVE",
"415 678 OFFCURVE",
"391 678 CURVE SMOOTH",
"193 678 OFFCURVE",
"48 545 OFFCURVE",
"48 336 CURVE SMOOTH",
"48 137 OFFCURVE",
"169 -8 OFFCURVE",
"367 -8 CURVE SMOOTH",
"399 -8 OFFCURVE",
"441 -5 OFFCURVE",
"471 0 CURVE"
);
},
{
closed = 1;
nodes = (
"527 312 LINE",
"793 312 LINE",
"793 380 LINE",
"527 380 LINE"
);
},
{
closed = 1;
nodes = (
"543 602 LINE",
"813 602 LINE",
"813 670 LINE",
"471 670 LINE",
"471 0 LINE",
"813 0 LINE",
"813 68 LINE",
"543 68 LINE"
);
}
);
width = 878;
},
{
background = {
paths = (
{
closed = 1;
nodes = (
"471 76 LINE",
"439 68 OFFCURVE",
"395 63 OFFCURVE",
"362 63 CURVE SMOOTH",
"207 63 OFFCURVE",
"123 175 OFFCURVE",
"123 336 CURVE SMOOTH",
"123 517 OFFCURVE",
"232 608 OFFCURVE",
"386 608 CURVE SMOOTH",
"412 608 OFFCURVE",
"447 605 OFFCURVE",
"471 599 CURVE",
"471 670 LINE",
"448 674 OFFCURVE",
"415 678 OFFCURVE",
"391 678 CURVE SMOOTH",
"193 678 OFFCURVE",
"48 545 OFFCURVE",
"48 336 CURVE SMOOTH",
"48 137 OFFCURVE",
"169 -8 OFFCURVE",
"367 -8 CURVE SMOOTH",
"399 -8 OFFCURVE",
"441 -5 OFFCURVE",
"471 0 CURVE"
);
},
{
closed = 1;
nodes = (
"471 670 LINE",
"471 0 LINE",
"813 0 LINE",
"813 68 LINE",
"543 68 LINE",
"543 312 LINE",
"793 312 LINE",
"793 380 LINE",
"543 380 LINE",
"543 602 LINE",
"813 602 LINE",
"813 670 LINE"
);
}
);
};
layerId = "B4604C5D-F439-46D0-AEF0-55E4508ED162";
paths = (
{
closed = 1;
nodes = (
"486 109 LINE",
"442 98 OFFCURVE",
"392 91 OFFCURVE",
"362 91 CURVE SMOOTH",
"217 91 OFFCURVE",
"138 193 OFFCURVE",
"138 338 CURVE SMOOTH",
"138 502 OFFCURVE",
"241 584 OFFCURVE",
"386 584 CURVE SMOOTH",
"409 584 OFFCURVE",
"449 579 OFFCURVE",
"486 571 CURVE",
"486 670 LINE",
"457 675 OFFCURVE",
"417 680 OFFCURVE",
"391 680 CURVE SMOOTH",
"184 680 OFFCURVE",
"33 546 OFFCURVE",
"33 336 CURVE SMOOTH",
"33 136 OFFCURVE",
"160 -10 OFFCURVE",
"367 -10 CURVE SMOOTH",
"401 -10 OFFCURVE",
"448 -6 OFFCURVE",
"486 0 CURVE"
);
},
{
closed = 1;
nodes = (
"542 299 LINE",
"808 299 LINE",
"808 393 LINE",
"542 393 LINE"
);
},
{
closed = 1;
nodes = (
"558 576 LINE",
"828 576 LINE",
"828 670 LINE",
"456 670 LINE",
"456 0 LINE",
"828 0 LINE",
"828 94 LINE",
"558 94 LINE"
);
}
);
width = 878;
}
);
unicode = 0152;
},
{
color = (255,5,0,1);
glyphname = P;
lastChange = "2016-07-27 04:27:05 +0000";
layers = (
{
layerId = UUID0;
paths = (
{
closed = 1;
nodes = (
"197 292 LINE",
"243 292 LINE SMOOTH",
"373 292 OFFCURVE",
"469 375 OFFCURVE",
"469 479 CURVE SMOOTH",
"469 615 OFFCURVE",
"365 670 OFFCURVE",
"280 670 CURVE SMOOTH",
"85 670 LINE",
"85 0 LINE",
"157 0 LINE",
"157 602 LINE",
"279 602 LINE SMOOTH",
"357 602 OFFCURVE",
"398 546 OFFCURVE",
"398 479 CURVE SMOOTH",
"398 413 OFFCURVE",
"337 360 OFFCURVE",
"247 360 CURVE SMOOTH",
"197 360 LINE"
);
}
);
width = 524;
},
{
background = {
paths = (
{
closed = 1;
nodes = (
"197 292 LINE",
"243 292 LINE SMOOTH",
"373 292 OFFCURVE",
"469 375 OFFCURVE",
"469 479 CURVE SMOOTH",
"469 615 OFFCURVE",
"365 670 OFFCURVE",
"280 670 CURVE SMOOTH",
"85 670 LINE",
"85 0 LINE",
"157 0 LINE",
"157 602 LINE",
"279 602 LINE SMOOTH",
"357 602 OFFCURVE",
"398 546 OFFCURVE",
"398 479 CURVE SMOOTH",
"398 413 OFFCURVE",
"337 360 OFFCURVE",
"247 360 CURVE SMOOTH",
"197 360 LINE"
);
}
);
};
layerId = "B4604C5D-F439-46D0-AEF0-55E4508ED162";
paths = (
{
closed = 1;
nodes = (
"212 262 LINE",
"243 262 LINE SMOOTH",
"381 262 OFFCURVE",
"484 351 OFFCURVE",
"484 464 CURVE SMOOTH",
"484 610 OFFCURVE",
"371 670 OFFCURVE",
"280 670 CURVE",
"70 670 LINE",
"70 0 LINE",
"172 0 LINE",
"172 572 LINE",
"279 572 LINE SMOOTH",
"347 572 OFFCURVE",
"383 523 OFFCURVE",
"383 464 CURVE SMOOTH",
"383 406 OFFCURVE",
"328 360 OFFCURVE",
"247 360 CURVE SMOOTH",
"212 360 LINE"
);
}
);
width = 524;
}
);
unicode = 0050;
},
{
color = (255,5,0,1);
glyphname = Q;
lastChange = "2016-07-27 05:02:09 +0000";
layers = (
{
background = {
paths = (
{
closed = 1;
nodes = (
"48 137 OFFCURVE",
"156 -8 OFFCURVE",
"324 -8 CURVE",
"649 -121 LINE",
"680 -54 LINE",
"408 35 LINE",
"430 12 LINE",
"524 46 OFFCURVE",
"621 158 OFFCURVE",
"621 336 CURVE SMOOTH",
"621 535 OFFCURVE",
"510 678 OFFCURVE",
"344 678 CURVE SMOOTH",
"178 678 OFFCURVE",
"48 545 OFFCURVE",
"48 336 CURVE SMOOTH"
);
}
);
};
layerId = UUID0;
paths = (
{
closed = 1;
nodes = (
"514 -8 OFFCURVE",
"621 158 OFFCURVE",
"621 336 CURVE SMOOTH",
"621 535 OFFCURVE",
"510 678 OFFCURVE",
"344 678 CURVE SMOOTH",
"178 678 OFFCURVE",
"48 545 OFFCURVE",
"48 336 CURVE SMOOTH",
"48 137 OFFCURVE",
"156 -8 OFFCURVE",
"324 -8 CURVE SMOOTH"
);
},
{
closed = 1;
nodes = (
"199 63 OFFCURVE",
"123 175 OFFCURVE",
"123 336 CURVE SMOOTH",
"123 517 OFFCURVE",
"219 608 OFFCURVE",
"344 608 CURVE SMOOTH",
"469 608 OFFCURVE",
"546 497 OFFCURVE",
"546 336 CURVE SMOOTH",
"546 155 OFFCURVE",
"449 63 OFFCURVE",
"324 63 CURVE SMOOTH"
);
},
{
closed = 1;
nodes = (
"680 -54 LINE",
"408 35 LINE",
"287 5 LINE",
"649 -121 LINE"
);
}
);
width = 669;
},
{
background = {
paths = (
{
closed = 1;
nodes = (
"48 137 OFFCURVE",
"156 -8 OFFCURVE",
"324 -8 CURVE",
"649 -121 LINE",
"680 -54 LINE",
"451 21 LINE",
"538 63 OFFCURVE",
"621 171 OFFCURVE",
"621 336 CURVE SMOOTH",
"621 535 OFFCURVE",
"510 678 OFFCURVE",
"344 678 CURVE SMOOTH",
"178 678 OFFCURVE",
"48 545 OFFCURVE",
"48 336 CURVE SMOOTH"
);
},
{
closed = 1;
nodes = (
"123 517 OFFCURVE",
"219 608 OFFCURVE",
"344 608 CURVE SMOOTH",
"469 608 OFFCURVE",
"546 497 OFFCURVE",
"546 336 CURVE SMOOTH",
"546 155 OFFCURVE",
"449 63 OFFCURVE",
"324 63 CURVE SMOOTH",
"199 63 OFFCURVE",
"123 175 OFFCURVE",
"123 336 CURVE SMOOTH"
);
}
);
};
layerId = "B4604C5D-F439-46D0-AEF0-55E4508ED162";
paths = (
{
closed = 1;
nodes = (
"498 -8 OFFCURVE",
"636 127 OFFCURVE",
"636 336 CURVE SMOOTH",
"636 535 OFFCURVE",
"519 678 OFFCURVE",
"344 678 CURVE SMOOTH",
"169 678 OFFCURVE",
"33 545 OFFCURVE",
"33 336 CURVE SMOOTH",
"33 137 OFFCURVE",
"149 -8 OFFCURVE",
"324 -8 CURVE SMOOTH"
);
},
{
closed = 1;
nodes = (
"208 88 OFFCURVE",
"138 190 OFFCURVE",
"138 336 CURVE SMOOTH",
"138 500 OFFCURVE",
"227 583 OFFCURVE",
"344 583 CURVE SMOOTH",
"459 583 OFFCURVE",
"531 482 OFFCURVE",
"531 336 CURVE SMOOTH",
"531 171 OFFCURVE",
"440 88 OFFCURVE",
"324 88 CURVE SMOOTH"
);
},
{
closed = 1;
nodes = (
"693 -26 LINE",
"402 60 LINE",
"266 11 LINE",
"649 -121 LINE"
);
}
);
width = 669;
}
);
unicode = 0051;
},
{
color = (255,5,0,1);
glyphname = R;
lastChange = "2016-07-27 04:54:11 +0000";
layers = (
{
background = {
paths = (
{
closed = 1;
nodes = (
"157 0 LINE",
"157 602 LINE",
"279 602 LINE SMOOTH",
"357 602 OFFCURVE",
"398 545 OFFCURVE",
"398 478 CURVE SMOOTH",
"398 409 OFFCURVE",
"337 358 OFFCURVE",
"247 358 CURVE SMOOTH",
"197 358 LINE",
"197 294 LINE",
"276 298 LINE",
"357 298 OFFCURVE",
"469 364 OFFCURVE",
"469 478 CURVE SMOOTH",
"469 614 OFFCURVE",
"365 670 OFFCURVE",
"280 670 CURVE SMOOTH",
"85 670 LINE",
"85 0 LINE"
);
}
);
};
layerId = UUID0;
paths = (
{
closed = 1;
nodes = (
"157 0 LINE",
"157 602 LINE",
"279 602 LINE SMOOTH",
"357 602 OFFCURVE",
"398 545 OFFCURVE",
"398 478 CURVE SMOOTH",
"398 409 OFFCURVE",
"337 358 OFFCURVE",
"247 358 CURVE SMOOTH",
"197 358 LINE",
"197 294 LINE",
"242 294 LINE",
"364 294 OFFCURVE",
"469 366 OFFCURVE",
"469 478 CURVE SMOOTH",
"469 614 OFFCURVE",
"365 670 OFFCURVE",
"280 670 CURVE SMOOTH",
"85 670 LINE",
"85 0 LINE"
);
},
{
closed = 1;
nodes = (
"511 0 LINE",
"248 333 LINE",
"197 294 LINE",
"423 0 LINE"
);
}
);
width = 551;
},
{
background = {
paths = (
{
closed = 1;
nodes = (
"157 602 LINE",
"279 602 LINE SMOOTH",
"357 602 OFFCURVE",
"398 545 OFFCURVE",
"398 478 CURVE SMOOTH",
"398 409 OFFCURVE",
"337 358 OFFCURVE",
"247 358 CURVE SMOOTH",
"197 358 LINE",
"197 294 LINE",
"423 0 LINE",
"511 0 LINE",
"276 298 LINE",
"357 298 OFFCURVE",
"469 364 OFFCURVE",
"469 478 CURVE SMOOTH",
"469 614 OFFCURVE",
"365 670 OFFCURVE",
"280 670 CURVE SMOOTH",
"85 670 LINE",
"85 0 LINE",
"157 0 LINE"
);
}
);
};
layerId = "B4604C5D-F439-46D0-AEF0-55E4508ED162";
paths = (
{
closed = 1;
nodes = (
"172 0 LINE",
"172 572 LINE",
"279 572 LINE SMOOTH",
"347 572 OFFCURVE",
"383 526 OFFCURVE",
"383 469 CURVE SMOOTH",
"383 413 OFFCURVE",
"328 370 OFFCURVE",
"247 370 CURVE SMOOTH",
"212 370 LINE",
"212 272 LINE",
"243 272 LINE SMOOTH",
"381 272 OFFCURVE",
"484 357 OFFCURVE",
"484 469 CURVE SMOOTH",
"484 614 OFFCURVE",
"371 670 OFFCURVE",
"280 670 CURVE SMOOTH",
"70 670 LINE",
"70 0 LINE"
);
},
{
closed = 1;
nodes = (
"527 0 LINE",
"294 314 LINE",
"212 272 LINE",
"410 0 LINE"
);
}
);
width = 551;
}
);
unicode = 0052;
},
{
color = (255,5,0,1);
glyphname = S;
lastChange = "2016-07-27 04:55:45 +0000";
layers = (
{
background = {
paths = (
{
closed = 1;
nodes = (
"438 273 OFFCURVE",
"361 329 OFFCURVE",
"285 368 CURVE SMOOTH",
"208 407 OFFCURVE",
"132 428 OFFCURVE",
"132 507 CURVE SMOOTH",
"132 548 OFFCURVE",
"171 609 OFFCURVE",
"247 609 CURVE SMOOTH",
"333 609 OFFCURVE",
"356 596 OFFCURVE",
"401 584 CURVE",
"401 658 LINE",
"346 670 OFFCURVE",
"333 678 OFFCURVE",
"267 678 CURVE SMOOTH",
"140 678 OFFCURVE",
"60 593 OFFCURVE",
"60 510 CURVE SMOOTH",
"60 377 OFFCURVE",
"170 347 OFFCURVE",
"258 302 CURVE SMOOTH",
"317 272 OFFCURVE",
"366 229 OFFCURVE",
"366 166 CURVE SMOOTH",
"366 108 OFFCURVE",
"324 63 OFFCURVE",
"245 63 CURVE SMOOTH",
"166 63 OFFCURVE",
"102 83 OFFCURVE",
"70 96 CURVE",
"70 19 LINE",
"88 13 LINE SMOOTH",
"111 5 OFFCURVE",
"151 -8 OFFCURVE",
"228 -8 CURVE SMOOTH",
"364 -8 OFFCURVE",
"438 75 OFFCURVE",
"438 165 CURVE SMOOTH"
);
}
);
};
layerId = UUID0;
paths = (
{
closed = 1;
nodes = (
"374 -8 OFFCURVE",
"438 80 OFFCURVE",
"438 170 CURVE SMOOTH",
"438 278 OFFCURVE",
"361 339 OFFCURVE",
"285 378 CURVE SMOOTH",
"208 417 OFFCURVE",
"132 435 OFFCURVE",
"132 512 CURVE SMOOTH",
"132 553 OFFCURVE",
"171 609 OFFCURVE",
"247 609 CURVE SMOOTH",
"333 609 OFFCURVE",
"356 596 OFFCURVE",
"401 584 CURVE",
"401 658 LINE",
"346 670 OFFCURVE",
"333 678 OFFCURVE",
"267 678 CURVE SMOOTH",
"140 678 OFFCURVE",
"60 598 OFFCURVE",
"60 515 CURVE SMOOTH",
"60 382 OFFCURVE",
"170 353 OFFCURVE",
"258 308 CURVE SMOOTH",
"317 278 OFFCURVE",
"366 232 OFFCURVE",
"366 171 CURVE SMOOTH",
"366 113 OFFCURVE",
"319 63 OFFCURVE",
"240 63 CURVE SMOOTH",
"151 63 OFFCURVE",
"92 87 OFFCURVE",
"60 103 CURVE",
"60 26 LINE",
"98 6 OFFCURVE",
"151 -8 OFFCURVE",
"228 -8 CURVE SMOOTH"
);
}
);
width = 498;
},
{
background = {
paths = (
{
closed = 1;
nodes = (
"438 278 OFFCURVE",
"361 339 OFFCURVE",
"285 378 CURVE SMOOTH",
"208 417 OFFCURVE",
"132 435 OFFCURVE",
"132 512 CURVE SMOOTH",
"132 553 OFFCURVE",
"171 609 OFFCURVE",
"247 609 CURVE SMOOTH",
"333 609 OFFCURVE",
"356 596 OFFCURVE",
"401 584 CURVE",
"401 658 LINE",
"346 670 OFFCURVE",
"333 678 OFFCURVE",
"267 678 CURVE SMOOTH",
"140 678 OFFCURVE",
"60 598 OFFCURVE",
"60 515 CURVE SMOOTH",
"60 382 OFFCURVE",
"170 353 OFFCURVE",
"258 308 CURVE SMOOTH",
"317 278 OFFCURVE",
"366 232 OFFCURVE",
"366 171 CURVE SMOOTH",
"366 113 OFFCURVE",
"319 63 OFFCURVE",
"240 63 CURVE SMOOTH",
"151 63 OFFCURVE",
"92 87 OFFCURVE",
"60 103 CURVE",
"60 26 LINE",
"98 6 OFFCURVE",
"151 -8 OFFCURVE",
"228 -8 CURVE SMOOTH",
"374 -8 OFFCURVE",
"438 80 OFFCURVE",
"438 170 CURVE SMOOTH"
);
},
{
closed = 1;
nodes = (
"453 292 OFFCURVE",
"366 345 OFFCURVE",
"284 388 CURVE SMOOTH",
"215 424 OFFCURVE",
"147 445 OFFCURVE",
"147 507 CURVE SMOOTH",
"147 542 OFFCURVE",
"181 579 OFFCURVE",
"247 579 CURVE SMOOTH",
"343 579 OFFCURVE",
"368 562 OFFCURVE",
"416 549 CURVE",
"416 656 LINE",
"358 667 OFFCURVE",
"336 678 OFFCURVE",
"267 678 CURVE SMOOTH",
"131 678 OFFCURVE",
"45 595 OFFCURVE",
"45 505 CURVE SMOOTH",
"45 373 OFFCURVE",
"151 347 OFFCURVE",
"240 301 CURVE SMOOTH",
"297 272 OFFCURVE",
"351 225 OFFCURVE",
"351 176 CURVE SMOOTH",
"351 126 OFFCURVE",
"304 93 OFFCURVE",
"245 93 CURVE SMOOTH",
"169 93 OFFCURVE",
"94 117 OFFCURVE",
"55 133 CURVE",
"55 23 LINE",
"79 15 LINE SMOOTH",
"103 6 OFFCURVE",
"146 -8 OFFCURVE",
"228 -8 CURVE SMOOTH",
"373 -8 OFFCURVE",
"453 82 OFFCURVE",
"453 180 CURVE SMOOTH"
);
}
);
};
layerId = "B4604C5D-F439-46D0-AEF0-55E4508ED162";
paths = (
{
closed = 1;
nodes = (
"373 -8 OFFCURVE",
"453 82 OFFCURVE",
"453 180 CURVE SMOOTH",
"453 292 OFFCURVE",
"366 345 OFFCURVE",
"284 388 CURVE SMOOTH",
"215 424 OFFCURVE",
"142 445 OFFCURVE",
"142 507 CURVE SMOOTH",
"142 542 OFFCURVE",
"176 579 OFFCURVE",
"242 579 CURVE SMOOTH",
"338 579 OFFCURVE",
"363 562 OFFCURVE",
"411 549 CURVE",
"411 656 LINE",
"353 667 OFFCURVE",
"331 678 OFFCURVE",
"262 678 CURVE SMOOTH",
"126 678 OFFCURVE",
"40 595 OFFCURVE",
"40 505 CURVE SMOOTH",
"40 373 OFFCURVE",
"151 347 OFFCURVE",
"240 301 CURVE SMOOTH",
"297 272 OFFCURVE",
"351 225 OFFCURVE",
"351 176 CURVE SMOOTH",
"351 126 OFFCURVE",
"304 93 OFFCURVE",
"245 93 CURVE SMOOTH",
"169 93 OFFCURVE",
"94 117 OFFCURVE",
"55 133 CURVE",
"55 23 LINE",
"123 -1 OFFCURVE",
"162 -8 OFFCURVE",
"228 -8 CURVE SMOOTH"
);
}
);
width = 498;
}
);
unicode = 0053;
},
{
color = (255,5,0,1);
glyphname = T;
lastChange = "2016-07-27 04:45:24 +0000";
layers = (
{
layerId = UUID0;
paths = (
{
closed = 1;
nodes = (
"215 618 LINE",
"215 0 LINE",
"287 0 LINE",
"287 618 LINE"
);
},
{
closed = 1;
nodes = (
"482 602 LINE",
"482 670 LINE",
"20 670 LINE",
"20 602 LINE"
);
}
);
width = 502;
},
{
background = {
paths = (
{
closed = 1;
nodes = (
"20 670 LINE",
"20 602 LINE",
"215 602 LINE",
"215 0 LINE",
"287 0 LINE",
"287 602 LINE",
"482 602 LINE",
"482 670 LINE"
);
}
);
};
layerId = "B4604C5D-F439-46D0-AEF0-55E4508ED162";
paths = (
{
closed = 1;
nodes = (
"200 592 LINE",
"200 0 LINE",
"302 0 LINE",
"302 592 LINE"
);
},
{
closed = 1;
nodes = (
"492 576 LINE",
"492 670 LINE",
"10 670 LINE",
"10 576 LINE"
);
}
);
width = 502;
}
);
unicode = 0054;
},
{
color = (255,5,0,1);
glyphname = U;
lastChange = "2016-07-27 04:27:05 +0000";
layers = (
{
layerId = UUID0;
paths = (
{
closed = 1;
nodes = (
"85 260 LINE SMOOTH",
"85 96 OFFCURVE",
"183 -8 OFFCURVE",
"315 -8 CURVE SMOOTH",
"447 -8 OFFCURVE",
"547 96 OFFCURVE",
"547 260 CURVE SMOOTH",
"547 670 LINE",
"475 670 LINE",
"475 260 LINE SMOOTH",
"475 134 OFFCURVE",
"409 63 OFFCURVE",
"316 63 CURVE SMOOTH",
"223 63 OFFCURVE",
"157 134 OFFCURVE",
"157 260 CURVE SMOOTH",
"157 670 LINE",
"85 670 LINE"
);
}
);
width = 632;
},
{
background = {
paths = (
{
closed = 1;
nodes = (
"85 260 LINE SMOOTH",
"85 96 OFFCURVE",
"183 -8 OFFCURVE",
"315 -8 CURVE SMOOTH",
"447 -8 OFFCURVE",
"547 96 OFFCURVE",
"547 260 CURVE SMOOTH",
"547 670 LINE",
"475 670 LINE",
"475 260 LINE SMOOTH",
"475 134 OFFCURVE",
"409 63 OFFCURVE",
"316 63 CURVE SMOOTH",
"223 63 OFFCURVE",
"157 134 OFFCURVE",
"157 260 CURVE SMOOTH",
"157 670 LINE",
"85 670 LINE"
);
}
);
};
layerId = "B4604C5D-F439-46D0-AEF0-55E4508ED162";
paths = (
{
closed = 1;
nodes = (
"70 275 LINE SMOOTH",
"70 102 OFFCURVE",
"174 -8 OFFCURVE",
"315 -8 CURVE SMOOTH",
"455 -8 OFFCURVE",
"562 102 OFFCURVE",
"562 275 CURVE SMOOTH",
"562 670 LINE",
"460 670 LINE",
"460 275 LINE SMOOTH",
"460 158 OFFCURVE",
"400 93 OFFCURVE",
"316 93 CURVE SMOOTH",
"232 93 OFFCURVE",
"172 158 OFFCURVE",
"172 275 CURVE SMOOTH",
"172 670 LINE",
"70 670 LINE"
);
}
);
width = 632;
}
);
unicode = 0055;
},
{
color = (255,5,0,1);
glyphname = V;
lastChange = "2016-07-27 04:56:18 +0000";
layers = (
{
layerId = UUID0;
paths = (
{
closed = 1;
nodes = (
"20 670 LINE",
"252 0 LINE",
"331 0 LINE",
"563 670 LINE",
"484 670 LINE",
"281 77 LINE",
"306 63 LINE",
"99 670 LINE"
);
}
);
width = 583;
},
{
background = {
paths = (
{
closed = 1;
nodes = (
"20 670 LINE",
"252 0 LINE",
"331 0 LINE",
"563 670 LINE",
"484 670 LINE",
"420 483 OFFCURVE",
"357 298 OFFCURVE",
"291 106 CURVE",
"99 670 LINE"
);
}
);
};
layerId = "B4604C5D-F439-46D0-AEF0-55E4508ED162";
paths = (
{
closed = 1;
nodes = (
"-1 670 LINE",
"241 0 LINE",
"341 0 LINE",
"584 670 LINE",
"473 670 LINE",
"276 104 LINE",
"306 104 LINE",
"109 670 LINE"
);
}
);
width = 583;
}
);
unicode = 0056;
},
{
color = (255,5,0,1);
glyphname = W;
lastChange = "2016-07-27 04:46:48 +0000";
layers = (
{
layerId = UUID0;
paths = (
{
closed = 1;
nodes = (
"384 670 LINE",
"234 79 LINE",
"256 79 LINE",
"106 670 LINE",
"30 670 LINE",
"207 0 LINE",
"283 0 LINE",
"433 591 LINE",
"411 591 LINE",
"561 0 LINE",
"637 0 LINE",
"814 670 LINE",
"738 670 LINE",
"588 79 LINE",
"610 79 LINE",
"460 670 LINE"
);
}
);
width = 844;
},
{
background = {
paths = (
{
closed = 1;
nodes = (
"384 670 LINE",
"338 488 OFFCURVE",
"293 313 OFFCURVE",
"245 123 CURVE",
"106 670 LINE",
"30 670 LINE",
"207 0 LINE",
"283 0 LINE",
"329 182 OFFCURVE",
"374 357 OFFCURVE",
"422 547 CURVE",
"561 0 LINE",
"637 0 LINE",
"814 670 LINE",
"738 670 LINE",
"692 488 OFFCURVE",
"647 313 OFFCURVE",
"599 123 CURVE",
"460 670 LINE"
);
}
);
};
layerId = "B4604C5D-F439-46D0-AEF0-55E4508ED162";
paths = (
{
closed = 1;
nodes = (
"372 670 LINE",
"237 148 LINE",
"256 135 LINE",
"117 670 LINE",
"10 670 LINE",
"195 0 LINE",
"294 0 LINE",
"430 520 LINE",
"411 534 LINE",
"549 0 LINE",
"648 0 LINE",
"833 670 LINE",
"726 670 LINE",
"591 148 LINE",
"610 135 LINE",
"471 670 LINE"
);
}
);
width = 844;
}
);
unicode = 0057;
},
{
color = (255,5,0,1);
glyphname = X;
lastChange = "2016-07-27 04:27:05 +0000";
layers = (
{
layerId = UUID0;
paths = (
{
closed = 1;
nodes = (
"452 0 LINE",
"535 0 LINE",
"332 344 LINE",
"525 670 LINE",
"442 670 LINE",
"292 416 LINE",
"143 670 LINE",
"60 670 LINE",
"253 344 LINE",
"50 0 LINE",
"133 0 LINE",
"292 272 LINE"
);
}
);
width = 585;
},
{
background = {
paths = (
{
closed = 1;
nodes = (
"452 0 LINE",
"535 0 LINE",
"332 344 LINE",
"525 670 LINE",
"442 670 LINE",
"292 416 LINE",
"143 670 LINE",
"60 670 LINE",
"253 344 LINE",
"50 0 LINE",
"133 0 LINE",
"292 272 LINE"
);
}
);
};
layerId = "B4604C5D-F439-46D0-AEF0-55E4508ED162";
paths = (
{
closed = 1;
nodes = (
"443 0 LINE",
"560 0 LINE",
"350 343 LINE",
"550 670 LINE",
"433 670 LINE",
"292 433 LINE",
"151 670 LINE",
"34 670 LINE",
"235 343 LINE",
"24 0 LINE",
"141 0 LINE",
"292 255 LINE"
);
}
);
width = 585;
}
);
unicode = 0058;
},
{
color = (255,5,0,1);
glyphname = Y;
lastChange = "2016-07-27 04:57:07 +0000";
layers = (
{
layerId = UUID0;
paths = (
{
closed = 1;
nodes = (
"482 670 LINE",
"266 344 LINE",
"316 344 LINE",
"102 670 LINE",
"20 670 LINE",
"255 317 LINE",
"255 0 LINE",
"327 0 LINE",
"327 317 LINE",
"563 670 LINE"
);
}
);
width = 583;
},
{
background = {
paths = (
{
closed = 1;
nodes = (
"482 670 LINE",
"291 382 LINE",
"102 670 LINE",
"20 670 LINE",
"255 317 LINE",
"255 0 LINE",
"327 0 LINE",
"327 317 LINE",
"563 670 LINE"
);
}
);
};
layerId = "B4604C5D-F439-46D0-AEF0-55E4508ED162";
paths = (
{
closed = 1;
nodes = (
"468 670 LINE",
"266 364 LINE",
"316 364 LINE",
"115 670 LINE",
"-1 670 LINE",
"240 312 LINE",
"240 0 LINE",
"342 0 LINE",
"342 312 LINE",
"584 670 LINE"
);
}
);
width = 583;
}
);
unicode = 0059;
},
{
color = (255,5,0,1);
glyphname = Z;
lastChange = "2016-07-27 04:57:01 +0000";
layers = (
{
layerId = UUID0;
paths = (
{
closed = 1;
nodes = (
"80 670 LINE",
"80 602 LINE",
"425 602 LINE",
"402 641 LINE",
"50 0 LINE",
"472 0 LINE",
"472 68 LINE",
"126 68 LINE",
"149 29 LINE",
"502 670 LINE"
);
}
);
width = 542;
},
{
background = {
paths = (
{
closed = 1;
nodes = (
"80 670 LINE",
"80 602 LINE",
"380 602 LINE",
"50 0 LINE",
"472 0 LINE",
"472 68 LINE",
"171 68 LINE",
"502 670 LINE"
);
}
);
};
layerId = "B4604C5D-F439-46D0-AEF0-55E4508ED162";
paths = (
{
closed = 1;
nodes = (
"65 670 LINE",
"65 576 LINE",
"397 576 LINE",
"374 615 LINE",
"36 0 LINE",
"492 0 LINE",
"492 94 LINE",
"159 94 LINE",
"182 55 LINE",
"521 670 LINE"
);
}
);
width = 542;
}
);
unicode = 005A;
},
{
color = (255,0,65,1);
glyphname = a;
lastChange = "2016-07-28 01:20:58 +0000";
layers = (
{
layerId = UUID0;
paths = (
{
closed = 1;
nodes = (
"236 -8 OFFCURVE",
"312 110 OFFCURVE",
"338 177 CURVE",
"338 0 LINE",
"406 0 LINE",
"406 423 LINE",
"406 423 OFFCURVE",
"311 438 OFFCURVE",
"251 438 CURVE SMOOTH",
"142 438 OFFCURVE",
"50 332 OFFCURVE",
"50 194 CURVE SMOOTH",
"50 29 OFFCURVE",
"122 -8 OFFCURVE",
"154 -8 CURVE SMOOTH"
);
},
{
closed = 1;
nodes = (
"141 61 OFFCURVE",
"118 120 OFFCURVE",
"118 195 CURVE SMOOTH",
"118 284 OFFCURVE",
"176 376 OFFCURVE",
"249 376 CURVE SMOOTH",
"289 376 OFFCURVE",
"338 365 OFFCURVE",
"338 365 CURVE SMOOTH",
"338 229 OFFCURVE",
"219 61 OFFCURVE",
"173 61 CURVE SMOOTH"
);
}
);
width = 486;
},
{
background = {
paths = (
{
closed = 1;
nodes = (
"406 423 LINE",
"406 423 OFFCURVE",
"311 438 OFFCURVE",
"251 438 CURVE SMOOTH",
"142 438 OFFCURVE",
"50 332 OFFCURVE",
"50 194 CURVE SMOOTH",
"50 29 OFFCURVE",
"122 -8 OFFCURVE",
"154 -8 CURVE SMOOTH",
"236 -8 OFFCURVE",
"312 110 OFFCURVE",
"338 177 CURVE",
"338 0 LINE",
"406 0 LINE"
);
},
{
closed = 1;
nodes = (
"289 376 OFFCURVE",
"338 365 OFFCURVE",
"338 365 CURVE SMOOTH",
"338 229 OFFCURVE",
"219 61 OFFCURVE",
"173 61 CURVE SMOOTH",
"141 61 OFFCURVE",
"118 120 OFFCURVE",
"118 195 CURVE SMOOTH",
"118 284 OFFCURVE",
"176 376 OFFCURVE",
"249 376 CURVE SMOOTH"
);
}
);
};
layerId = "B4604C5D-F439-46D0-AEF0-55E4508ED162";
paths = (
{
closed = 1;
nodes = (
"225 -8 OFFCURVE",
"289 73 OFFCURVE",
"323 135 CURVE",
"323 0 LINE",
"421 0 LINE",
"421 429 LINE",
"421 429 OFFCURVE",
"313 446 OFFCURVE",
"251 446 CURVE SMOOTH",
"134 446 OFFCURVE",
"35 336 OFFCURVE",
"35 199 CURVE SMOOTH",
"35 33 OFFCURVE",
"117 -8 OFFCURVE",
"154 -8 CURVE SMOOTH"
);
},
{
closed = 1;
nodes = (
"153 81 OFFCURVE",
"133 132 OFFCURVE",
"133 199 CURVE SMOOTH",
"133 280 OFFCURVE",
"184 364 OFFCURVE",
"253 364 CURVE SMOOTH",
"284 364 OFFCURVE",
"314 357 OFFCURVE",
"323 356 CURVE",
"317 229 OFFCURVE",
"217 81 OFFCURVE",
"177 81 CURVE SMOOTH"
);
}
);
width = 486;
}
);
unicode = 0061;
},
{
color = (255,5,0,1);
glyphname = ae;
lastChange = "2016-07-28 01:53:08 +0000";
layers = (
{
layerId = UUID0;
paths = (
{
closed = 1;
nodes = (
"304 -8 OFFCURVE",
"373 107 OFFCURVE",
"373 215 CURVE SMOOTH",
"373 381 OFFCURVE",
"286 438 OFFCURVE",
"204 438 CURVE SMOOTH",
"146 438 OFFCURVE",
"96 423 OFFCURVE",
"59 409 CURVE",
"59 337 LINE",
"95 355 OFFCURVE",
"144 376 OFFCURVE",
"199 376 CURVE SMOOTH",
"262 376 OFFCURVE",
"301 326 OFFCURVE",
"310 246 CURVE",
"186 236 OFFCURVE",
"42 207 OFFCURVE",
"42 106 CURVE",
"42 21 OFFCURVE",
"115 -8 OFFCURVE",
"176 -8 CURVE SMOOTH"
);
},
{
closed = 1;
nodes = (
"135 54 OFFCURVE",
"110 77 OFFCURVE",
"110 108 CURVE SMOOTH",
"110 166 OFFCURVE",
"240 178 OFFCURVE",
"309 183 CURVE",
"309 108 OFFCURVE",
"252 54 OFFCURVE",
"181 54 CURVE"
);
},
{
closed = 1;
nodes = (
"536 -8 OFFCURVE",
"586 7 OFFCURVE",
"623 21 CURVE",
"623 93 LINE",
"587 75 OFFCURVE",
"538 54 OFFCURVE",
"483 54 CURVE SMOOTH",
"420 54 OFFCURVE",
"381 104 OFFCURVE",
"372 184 CURVE",
"496 194 OFFCURVE",
"640 223 OFFCURVE",
"640 324 CURVE SMOOTH",
"640 409 OFFCURVE",
"567 438 OFFCURVE",
"506 438 CURVE SMOOTH",
"378 438 OFFCURVE",
"310 323 OFFCURVE",
"310 215 CURVE SMOOTH",
"310 49 OFFCURVE",
"396 -8 OFFCURVE",
"478 -8 CURVE SMOOTH"
);
},
{
closed = 1;
nodes = (
"373 322 OFFCURVE",
"430 376 OFFCURVE",
"501 376 CURVE SMOOTH",
"547 376 OFFCURVE",
"572 353 OFFCURVE",
"572 322 CURVE SMOOTH",
"572 264 OFFCURVE",
"442 252 OFFCURVE",
"373 247 CURVE"
);
}
);
width = 682;
},
{
background = {
paths = (
{
closed = 1;
nodes = (
"842 409 OFFCURVE",
"769 438 OFFCURVE",
"708 438 CURVE SMOOTH",
"590 438 OFFCURVE",
"517 340 OFFCURVE",
"506 240 CURVE",
"406 236 LINE",
"406 423 LINE",
"406 423 OFFCURVE",
"311 438 OFFCURVE",
"251 438 CURVE SMOOTH",
"142 438 OFFCURVE",
"50 332 OFFCURVE",
"50 194 CURVE SMOOTH",
"50 29 OFFCURVE",
"122 -8 OFFCURVE",
"154 -8 CURVE SMOOTH",
"236 -8 OFFCURVE",
"312 110 OFFCURVE",
"338 177 CURVE",
"338 0 LINE",
"406 0 LINE",
"406 175 LINE",
"506 179 LINE",
"519 41 OFFCURVE",
"604 -8 OFFCURVE",
"680 -8 CURVE SMOOTH",
"738 -8 OFFCURVE",
"788 7 OFFCURVE",
"825 21 CURVE",
"825 93 LINE",
"789 75 OFFCURVE",
"740 54 OFFCURVE",
"685 54 CURVE SMOOTH",
"622 54 OFFCURVE",
"583 104 OFFCURVE",
"574 180 CURVE",
"698 190 OFFCURVE",
"842 223 OFFCURVE",
"842 324 CURVE SMOOTH"
);
},
{
closed = 1;
nodes = (
"289 376 OFFCURVE",
"338 365 OFFCURVE",
"338 365 CURVE",
"338 229 OFFCURVE",
"219 61 OFFCURVE",
"173 61 CURVE SMOOTH",
"141 61 OFFCURVE",
"118 120 OFFCURVE",
"118 195 CURVE SMOOTH",
"118 284 OFFCURVE",
"176 376 OFFCURVE",
"249 376 CURVE SMOOTH"
);
},
{
closed = 1;
nodes = (
"749 376 OFFCURVE",
"774 353 OFFCURVE",
"774 322 CURVE SMOOTH",
"774 264 OFFCURVE",
"642 248 OFFCURVE",
"573 243 CURVE",
"582 318 OFFCURVE",
"628 376 OFFCURVE",
"703 376 CURVE SMOOTH"
);
}
);
};
layerId = "B4604C5D-F439-46D0-AEF0-55E4508ED162";
paths = (
{
closed = 1;
nodes = (
"322 -8 OFFCURVE",
"402 111 OFFCURVE",
"402 219 CURVE SMOOTH",
"402 385 OFFCURVE",
"306 446 OFFCURVE",
"212 446 CURVE SMOOTH",
"151 446 OFFCURVE",
"95 430 OFFCURVE",
"52 415 CURVE",
"52 317 LINE",
"97 337 OFFCURVE",
"155 361 OFFCURVE",
"207 361 CURVE SMOOTH",
"258 361 OFFCURVE",
"290 323 OFFCURVE",
"300 267 CURVE",
"172 254 OFFCURVE",
"35 211 OFFCURVE",
"35 113 CURVE",
"35 23 OFFCURVE",
"116 -8 OFFCURVE",
"184 -8 CURVE SMOOTH"
);
},
{
closed = 1;
nodes = (
"153 79 OFFCURVE",
"133 96 OFFCURVE",
"133 119 CURVE SMOOTH",
"133 165 OFFCURVE",
"233 183 OFFCURVE",
"300 190 CURVE",
"293 130 OFFCURVE",
"249 79 OFFCURVE",
"189 79 CURVE"
);
},
{
closed = 1;
nodes = (
"550 -8 OFFCURVE",
"606 8 OFFCURVE",
"649 23 CURVE",
"649 121 LINE",
"604 101 OFFCURVE",
"546 77 OFFCURVE",
"494 77 CURVE SMOOTH",
"443 77 OFFCURVE",
"411 115 OFFCURVE",
"401 171 CURVE",
"529 184 OFFCURVE",
"666 227 OFFCURVE",
"666 325 CURVE SMOOTH",
"666 415 OFFCURVE",
"585 446 OFFCURVE",
"517 446 CURVE SMOOTH",
"379 446 OFFCURVE",
"299 327 OFFCURVE",
"299 219 CURVE SMOOTH",
"299 53 OFFCURVE",
"395 -8 OFFCURVE",
"489 -8 CURVE SMOOTH"
);
},
{
closed = 1;
nodes = (
"405 329 OFFCURVE",
"452 359 OFFCURVE",
"512 359 CURVE SMOOTH",
"548 359 OFFCURVE",
"568 342 OFFCURVE",
"568 319 CURVE SMOOTH",
"568 273 OFFCURVE",
"468 255 OFFCURVE",
"401 248 CURVE"
);
}
);
width = 686;
}
);
unicode = 00E6;
},
{
color = (255,5,0,1);
glyphname = b;
lastChange = "2016-07-28 01:27:44 +0000";
layers = (
{
layerId = UUID0;
paths = (
{
closed = 1;
nodes = (
"344 -8 OFFCURVE",
"436 98 OFFCURVE",
"436 236 CURVE SMOOTH",
"436 401 OFFCURVE",
"364 438 OFFCURVE",
"332 438 CURVE SMOOTH",
"250 438 OFFCURVE",
"174 320 OFFCURVE",
"148 253 CURVE",
"148 700 LINE",
"80 700 LINE",
"80 7 LINE",
"80 7 OFFCURVE",
"175 -8 OFFCURVE",
"235 -8 CURVE SMOOTH"
);
},
{
closed = 1;
nodes = (
"197 54 OFFCURVE",
"148 65 OFFCURVE",
"148 65 CURVE SMOOTH",
"148 201 OFFCURVE",
"267 369 OFFCURVE",
"313 369 CURVE SMOOTH",
"345 369 OFFCURVE",
"368 310 OFFCURVE",
"368 235 CURVE SMOOTH",
"368 146 OFFCURVE",
"310 54 OFFCURVE",
"237 54 CURVE SMOOTH"
);
}
);
width = 486;
},
{
background = {
paths = (
{
closed = 1;
nodes = (
"80 7 LINE",
"80 7 OFFCURVE",
"175 -8 OFFCURVE",
"235 -8 CURVE SMOOTH",
"344 -8 OFFCURVE",
"436 98 OFFCURVE",
"436 236 CURVE SMOOTH",
"436 401 OFFCURVE",
"364 438 OFFCURVE",
"332 438 CURVE SMOOTH",
"250 438 OFFCURVE",
"174 320 OFFCURVE",
"148 253 CURVE",
"148 700 LINE",
"80 700 LINE"
);
},
{
closed = 1;
nodes = (
"197 54 OFFCURVE",
"148 65 OFFCURVE",
"148 65 CURVE SMOOTH",
"148 201 OFFCURVE",
"267 369 OFFCURVE",
"313 369 CURVE SMOOTH",
"345 369 OFFCURVE",
"368 310 OFFCURVE",
"368 235 CURVE SMOOTH",
"368 146 OFFCURVE",
"310 54 OFFCURVE",
"237 54 CURVE SMOOTH"
);
}
);
};
layerId = "B4604C5D-F439-46D0-AEF0-55E4508ED162";
paths = (
{
closed = 1;
nodes = (
"352 -8 OFFCURVE",
"451 101 OFFCURVE",
"451 239 CURVE SMOOTH",
"451 405 OFFCURVE",
"368 446 OFFCURVE",
"332 446 CURVE SMOOTH",
"260 446 OFFCURVE",
"196 364 OFFCURVE",
"163 303 CURVE",
"163 700 LINE",
"65 700 LINE",
"65 8 LINE",
"65 8 OFFCURVE",
"172 -8 OFFCURVE",
"235 -8 CURVE SMOOTH"
);
},
{
closed = 1;
nodes = (
"202 74 OFFCURVE",
"172 81 OFFCURVE",
"163 82 CURVE",
"169 209 OFFCURVE",
"269 357 OFFCURVE",
"309 357 CURVE SMOOTH",
"333 357 OFFCURVE",
"353 306 OFFCURVE",
"353 239 CURVE SMOOTH",
"353 158 OFFCURVE",
"302 74 OFFCURVE",
"233 74 CURVE SMOOTH"
);
}
);
width = 486;
}
);
unicode = 0062;
},
{
color = (255,5,0,1);
glyphname = c;
lastChange = "2016-07-27 04:27:05 +0000";
layers = (
{
background = {
paths = (
{
closed = 1;
nodes = (
"335 427 LINE",
"311 431 OFFCURVE",
"286 438 OFFCURVE",
"248 438 CURVE SMOOTH",
"120 438 OFFCURVE",
"45 323 OFFCURVE",
"45 215 CURVE SMOOTH",
"45 49 OFFCURVE",
"138 -8 OFFCURVE",
"220 -8 CURVE SMOOTH",
"268 -8 OFFCURVE",
"298 -2 OFFCURVE",
"335 14 CURVE",
"335 81 LINE",
"297 61 OFFCURVE",
"280 54 OFFCURVE",
"225 54 CURVE SMOOTH",
"153 54 OFFCURVE",
"112 120 OFFCURVE",
"112 215 CURVE SMOOTH",
"112 304 OFFCURVE",
"159 376 OFFCURVE",
"243 376 CURVE SMOOTH",
"271 376 OFFCURVE",
"295 370 OFFCURVE",
"317 366 CURVE"
);
}
);
};
layerId = UUID0;
paths = (
{
closed = 1;
nodes = (
"335 427 LINE",
"311 431 OFFCURVE",
"286 438 OFFCURVE",
"248 438 CURVE SMOOTH",
"120 438 OFFCURVE",
"45 323 OFFCURVE",
"45 215 CURVE SMOOTH",
"45 49 OFFCURVE",
"138 -8 OFFCURVE",
"220 -8 CURVE SMOOTH",
"268 -8 OFFCURVE",
"298 -2 OFFCURVE",
"335 14 CURVE",
"335 81 LINE",
"297 61 OFFCURVE",
"280 54 OFFCURVE",
"225 54 CURVE SMOOTH",
"153 54 OFFCURVE",
"112 120 OFFCURVE",
"112 215 CURVE SMOOTH",
"112 300 OFFCURVE",
"166 376 OFFCURVE",
"243 376 CURVE SMOOTH",
"271 376 OFFCURVE",
"295 370 OFFCURVE",
"317 366 CURVE"
);
}
);
width = 371;
},
{
background = {
paths = (
{
closed = 1;
nodes = (
"335 427 LINE",
"311 431 OFFCURVE",
"286 438 OFFCURVE",
"248 438 CURVE SMOOTH",
"120 438 OFFCURVE",
"45 323 OFFCURVE",
"45 215 CURVE SMOOTH",
"45 49 OFFCURVE",
"138 -8 OFFCURVE",
"220 -8 CURVE SMOOTH",
"268 -8 OFFCURVE",
"298 -2 OFFCURVE",
"335 14 CURVE",
"335 81 LINE",
"297 61 OFFCURVE",
"280 54 OFFCURVE",
"225 54 CURVE SMOOTH",
"153 54 OFFCURVE",
"112 120 OFFCURVE",
"112 215 CURVE SMOOTH",
"112 300 OFFCURVE",
"166 376 OFFCURVE",
"243 376 CURVE SMOOTH",
"271 376 OFFCURVE",
"295 370 OFFCURVE",
"317 366 CURVE"
);
}
);
};
layerId = "B4604C5D-F439-46D0-AEF0-55E4508ED162";
paths = (
{
closed = 1;
nodes = (
"353 431 LINE",
"330 438 OFFCURVE",
"282 446 OFFCURVE",
"248 446 CURVE SMOOTH",
"110 446 OFFCURVE",
"30 327 OFFCURVE",
"30 219 CURVE SMOOTH",
"30 53 OFFCURVE",
"131 -8 OFFCURVE",
"220 -8 CURVE SMOOTH",
"270 -8 OFFCURVE",
"304 -1 OFFCURVE",
"350 17 CURVE",
"350 111 LINE",
"298 85 OFFCURVE",
"276 77 OFFCURVE",
"225 77 CURVE SMOOTH",
"162 77 OFFCURVE",
"127 137 OFFCURVE",
"127 219 CURVE SMOOTH",
"127 295 OFFCURVE",
"168 361 OFFCURVE",
"243 361 CURVE SMOOTH",
"272 361 OFFCURVE",
"306 354 OFFCURVE",
"326 350 CURVE"
);
}
);
width = 371;
}
);
unicode = 0063;
},
{
color = (255,0,65,1);
glyphname = d;
lastChange = "2016-07-27 04:27:05 +0000";
layers = (
{
layerId = UUID0;
paths = (
{
closed = 1;
nodes = (
"338 700 LINE",
"338 432 LINE",
"309 435 OFFCURVE",
"277 438 OFFCURVE",
"251 438 CURVE SMOOTH",
"142 438 OFFCURVE",
"50 332 OFFCURVE",
"50 194 CURVE SMOOTH",
"50 29 OFFCURVE",
"122 -8 OFFCURVE",
"154 -8 CURVE SMOOTH",
"236 -8 OFFCURVE",
"312 110 OFFCURVE",
"338 177 CURVE",
"338 0 LINE",
"406 0 LINE",
"406 700 LINE"
);
},
{
closed = 1;
nodes = (
"338 229 OFFCURVE",
"219 61 OFFCURVE",
"173 61 CURVE SMOOTH",
"141 61 OFFCURVE",
"118 120 OFFCURVE",
"118 195 CURVE SMOOTH",
"118 284 OFFCURVE",
"176 376 OFFCURVE",
"249 376 CURVE SMOOTH",
"289 376 OFFCURVE",
"338 365 OFFCURVE",
"338 365 CURVE SMOOTH"
);
}
);
width = 486;
},
{
background = {
paths = (
{
closed = 1;
nodes = (
"338 700 LINE",
"338 432 LINE",
"309 435 OFFCURVE",
"277 438 OFFCURVE",
"251 438 CURVE SMOOTH",
"142 438 OFFCURVE",
"50 332 OFFCURVE",
"50 194 CURVE SMOOTH",
"50 29 OFFCURVE",
"122 -8 OFFCURVE",
"154 -8 CURVE SMOOTH",
"236 -8 OFFCURVE",
"312 110 OFFCURVE",
"338 177 CURVE",
"338 0 LINE",
"406 0 LINE",
"406 700 LINE"
);
},
{
closed = 1;
nodes = (
"338 229 OFFCURVE",
"219 61 OFFCURVE",
"173 61 CURVE SMOOTH",
"141 61 OFFCURVE",
"118 120 OFFCURVE",
"118 195 CURVE SMOOTH",
"118 284 OFFCURVE",
"176 376 OFFCURVE",
"249 376 CURVE SMOOTH",
"289 376 OFFCURVE",
"338 365 OFFCURVE",
"338 365 CURVE SMOOTH"
);
},
{
closed = 1;
nodes = (
"323 700 LINE",
"323 441 LINE",
"298 444 OFFCURVE",
"272 446 OFFCURVE",
"251 446 CURVE SMOOTH",
"134 446 OFFCURVE",
"35 336 OFFCURVE",
"35 199 CURVE SMOOTH",
"35 33 OFFCURVE",
"117 -8 OFFCURVE",
"154 -8 CURVE SMOOTH",
"225 -8 OFFCURVE",
"289 73 OFFCURVE",
"323 135 CURVE",
"323 0 LINE",
"421 0 LINE",
"421 700 LINE"
);
},
{
closed = 1;
nodes = (
"317 229 OFFCURVE",
"217 81 OFFCURVE",
"177 81 CURVE SMOOTH",
"153 81 OFFCURVE",
"133 132 OFFCURVE",
"133 199 CURVE SMOOTH",
"133 280 OFFCURVE",
"184 364 OFFCURVE",
"249 364 CURVE SMOOTH",
"280 364 OFFCURVE",
"314 357 OFFCURVE",
"323 356 CURVE"
);
}
);
};
layerId = "B4604C5D-F439-46D0-AEF0-55E4508ED162";
paths = (
{
closed = 1;
nodes = (
"323 700 LINE",
"323 441 LINE",
"298 444 OFFCURVE",
"272 446 OFFCURVE",
"251 446 CURVE SMOOTH",
"134 446 OFFCURVE",
"35 336 OFFCURVE",
"35 199 CURVE SMOOTH",
"35 33 OFFCURVE",
"117 -8 OFFCURVE",
"154 -8 CURVE SMOOTH",
"225 -8 OFFCURVE",
"289 73 OFFCURVE",
"323 135 CURVE",
"323 0 LINE",
"421 0 LINE",
"421 700 LINE"
);
},
{
closed = 1;
nodes = (
"317 229 OFFCURVE",
"217 81 OFFCURVE",
"177 81 CURVE SMOOTH",
"153 81 OFFCURVE",
"133 132 OFFCURVE",
"133 199 CURVE SMOOTH",
"133 280 OFFCURVE",
"184 364 OFFCURVE",
"253 364 CURVE SMOOTH",
"284 364 OFFCURVE",
"314 357 OFFCURVE",
"323 356 CURVE"
);
}
);
width = 486;
}
);
unicode = 0064;
},
{
color = (255,5,0,1);
glyphname = e;
lastChange = "2016-07-28 01:25:59 +0000";
layers = (
{
background = {
paths = (
{
closed = 1;
nodes = (
"268 -8 OFFCURVE",
"318 7 OFFCURVE",
"355 21 CURVE",
"355 93 LINE",
"319 75 OFFCURVE",
"270 54 OFFCURVE",
"215 54 CURVE SMOOTH",
"147 54 OFFCURVE",
"107 113 OFFCURVE",
"102 200 CURVE",
"102 225 LINE",
"105 309 OFFCURVE",
"152 376 OFFCURVE",
"233 376 CURVE SMOOTH",
"279 376 OFFCURVE",
"304 353 OFFCURVE",
"304 322 CURVE SMOOTH",
"304 260 OFFCURVE",
"153 246 OFFCURVE",
"90 242 CURVE",
"86 179 LINE",
"214 187 OFFCURVE",
"372 218 OFFCURVE",
"372 324 CURVE SMOOTH",
"372 409 OFFCURVE",
"299 438 OFFCURVE",
"238 438 CURVE SMOOTH",
"110 438 OFFCURVE",
"35 323 OFFCURVE",
"35 215 CURVE SMOOTH",
"35 49 OFFCURVE",
"128 -8 OFFCURVE",
"210 -8 CURVE SMOOTH"
);
}
);
};
layerId = UUID0;
paths = (
{
closed = 1;
nodes = (
"268 -8 OFFCURVE",
"318 7 OFFCURVE",
"355 21 CURVE",
"355 93 LINE",
"319 75 OFFCURVE",
"270 54 OFFCURVE",
"215 54 CURVE SMOOTH",
"148 54 OFFCURVE",
"102 112 OFFCURVE",
"102 215 CURVE SMOOTH",
"102 308 OFFCURVE",
"152 376 OFFCURVE",
"233 376 CURVE SMOOTH",
"279 376 OFFCURVE",
"304 353 OFFCURVE",
"304 322 CURVE SMOOTH",
"304 260 OFFCURVE",
"153 246 OFFCURVE",
"90 242 CURVE",
"86 179 LINE",
"214 187 OFFCURVE",
"372 218 OFFCURVE",
"372 324 CURVE SMOOTH",
"372 409 OFFCURVE",
"299 438 OFFCURVE",
"238 438 CURVE SMOOTH",
"110 438 OFFCURVE",
"35 323 OFFCURVE",
"35 215 CURVE SMOOTH",
"35 49 OFFCURVE",
"128 -8 OFFCURVE",
"210 -8 CURVE SMOOTH"
);
}
);
width = 414;
},
{
background = {
paths = (
{
closed = 1;
nodes = (
"104 169 LINE",
"236 180 OFFCURVE",
"387 222 OFFCURVE",
"387 325 CURVE SMOOTH",
"387 415 OFFCURVE",
"306 446 OFFCURVE",
"238 446 CURVE SMOOTH",
"100 446 OFFCURVE",
"20 327 OFFCURVE",
"20 219 CURVE SMOOTH",
"20 53 OFFCURVE",
"116 -8 OFFCURVE",
"210 -8 CURVE SMOOTH",
"271 -8 OFFCURVE",
"327 8 OFFCURVE",
"370 23 CURVE",
"370 121 LINE",
"325 101 OFFCURVE",
"267 77 OFFCURVE",
"215 77 CURVE SMOOTH",
"158 77 OFFCURVE",
"125 124 OFFCURVE",
"119 190 CURVE",
"121 231 LINE",
"121 298 OFFCURVE",
"167 359 OFFCURVE",
"233 359 CURVE SMOOTH",
"269 359 OFFCURVE",
"289 342 OFFCURVE",
"289 319 CURVE SMOOTH",
"289 269 OFFCURVE",
"172 252 OFFCURVE",
"106 246 CURVE"
);
}
);
};
layerId = "B4604C5D-F439-46D0-AEF0-55E4508ED162";
paths = (
{
closed = 1;
nodes = (
"271 -8 OFFCURVE",
"327 8 OFFCURVE",
"370 23 CURVE",
"370 121 LINE",
"325 101 OFFCURVE",
"267 77 OFFCURVE",
"215 77 CURVE SMOOTH",
"150 77 OFFCURVE",
"119 135 OFFCURVE",
"119 219 CURVE SMOOTH",
"119 299 OFFCURVE",
"167 359 OFFCURVE",
"233 359 CURVE SMOOTH",
"269 359 OFFCURVE",
"289 342 OFFCURVE",
"289 319 CURVE SMOOTH",
"289 269 OFFCURVE",
"172 252 OFFCURVE",
"106 246 CURVE",
"104 169 LINE",
"236 180 OFFCURVE",
"387 222 OFFCURVE",
"387 325 CURVE SMOOTH",
"387 415 OFFCURVE",
"306 446 OFFCURVE",
"238 446 CURVE SMOOTH",
"100 446 OFFCURVE",
"20 327 OFFCURVE",
"20 219 CURVE SMOOTH",
"20 53 OFFCURVE",
"116 -8 OFFCURVE",
"210 -8 CURVE SMOOTH"
);
}
);
width = 414;
}
);
unicode = 0065;
},
{
color = (255,5,0,1);
glyphname = f;
lastChange = "2016-07-28 01:29:23 +0000";
layers = (
{
layerId = UUID0;
paths = (
{
closed = 1;
nodes = (
"162 489 LINE SMOOTH",
"162 563 OFFCURVE",
"171 643 OFFCURVE",
"242 643 CURVE SMOOTH",
"270 643 OFFCURVE",
"294 637 OFFCURVE",
"316 633 CURVE",
"334 697 LINE",
"310 701 OFFCURVE",
"280 708 OFFCURVE",
"242 708 CURVE SMOOTH",
"130 708 OFFCURVE",
"94 614 OFFCURVE",
"94 489 CURVE SMOOTH",
"94 -140 LINE",
"162 -140 LINE"
);
},
{
closed = 1;
nodes = (
"258 364 LINE",
"258 430 LINE",
"33 430 LINE",
"33 364 LINE"
);
}
);
width = 293;
},
{
background = {
paths = (
{
closed = 1;
nodes = (
"270 643 OFFCURVE",
"294 637 OFFCURVE",
"316 633 CURVE",
"334 697 LINE",
"310 701 OFFCURVE",
"280 708 OFFCURVE",
"242 708 CURVE SMOOTH",
"130 708 OFFCURVE",
"94 614 OFFCURVE",
"94 489 CURVE SMOOTH",
"94 430 LINE",
"33 430 LINE",
"33 364 LINE",
"94 364 LINE",
"94 -140 LINE",
"162 -140 LINE",
"162 364 LINE",
"258 364 LINE",
"258 430 LINE",
"162 430 LINE",
"162 489 LINE SMOOTH",
"162 563 OFFCURVE",
"171 643 OFFCURVE",
"242 643 CURVE SMOOTH"
);
},
{
closed = 1;
nodes = (
"266 613 OFFCURVE",
"288 608 OFFCURVE",
"308 604 CURVE",
"334 697 LINE",
"310 701 OFFCURVE",
"276 708 OFFCURVE",
"242 708 CURVE SMOOTH",
"118 708 OFFCURVE",
"79 607 OFFCURVE",
"79 474 CURVE SMOOTH",
"79 438 LINE",
"18 438 LINE",
"18 342 LINE",
"79 342 LINE",
"79 -140 LINE",
"177 -140 LINE",
"177 342 LINE",
"263 342 LINE",
"263 438 LINE",
"177 438 LINE",
"177 474 LINE SMOOTH",
"177 541 OFFCURVE",
"184 613 OFFCURVE",
"242 613 CURVE SMOOTH"
);
}
);
};
layerId = "B4604C5D-F439-46D0-AEF0-55E4508ED162";
paths = (
{
closed = 1;
nodes = (
"177 474 LINE SMOOTH",
"177 541 OFFCURVE",
"184 613 OFFCURVE",
"242 613 CURVE SMOOTH",
"276 613 OFFCURVE",
"321 598 OFFCURVE",
"321 598 CURVE",
"346 687 LINE",
"346 687 OFFCURVE",
"276 708 OFFCURVE",
"242 708 CURVE SMOOTH",
"118 708 OFFCURVE",
"79 607 OFFCURVE",
"79 474 CURVE SMOOTH",
"79 -140 LINE",
"177 -140 LINE"
);
},
{
closed = 1;
nodes = (
"273 342 LINE",
"273 438 LINE",
"18 438 LINE",
"18 342 LINE"
);
}
);
width = 293;
}
);
unicode = 0066;
},
{
color = (255,0,65,1);
glyphname = g;
lastChange = "2016-07-27 04:27:05 +0000";
layers = (
{
layerId = UUID0;
paths = (
{
closed = 1;
nodes = (
"406 423 LINE",
"406 423 OFFCURVE",
"311 438 OFFCURVE",
"251 438 CURVE SMOOTH",
"142 438 OFFCURVE",
"50 332 OFFCURVE",
"50 194 CURVE SMOOTH",
"50 29 OFFCURVE",
"122 -8 OFFCURVE",
"154 -8 CURVE SMOOTH",
"236 -8 OFFCURVE",
"312 110 OFFCURVE",
"338 177 CURVE",
"338 -5 LINE SMOOTH",
"338 -155 OFFCURVE",
"158 -169 OFFCURVE",
"108 -174 CURVE",
"108 -245 LINE",
"190 -238 OFFCURVE",
"406 -212 OFFCURVE",
"406 -7 CURVE SMOOTH"
);
},
{
closed = 1;
nodes = (
"338 229 OFFCURVE",
"219 61 OFFCURVE",
"173 61 CURVE SMOOTH",
"141 61 OFFCURVE",
"118 120 OFFCURVE",
"118 195 CURVE SMOOTH",
"118 284 OFFCURVE",
"176 376 OFFCURVE",
"249 376 CURVE SMOOTH",
"289 376 OFFCURVE",
"338 365 OFFCURVE",
"338 365 CURVE SMOOTH"
);
}
);
width = 486;
},
{
background = {
paths = (
{
closed = 1;
nodes = (
"406 423 LINE",
"406 423 OFFCURVE",
"311 438 OFFCURVE",
"251 438 CURVE SMOOTH",
"142 438 OFFCURVE",
"50 332 OFFCURVE",
"50 194 CURVE SMOOTH",
"50 29 OFFCURVE",
"122 -8 OFFCURVE",
"154 -8 CURVE SMOOTH",
"236 -8 OFFCURVE",
"312 110 OFFCURVE",
"338 177 CURVE",
"338 -5 LINE SMOOTH",
"338 -155 OFFCURVE",
"158 -169 OFFCURVE",
"108 -174 CURVE",
"108 -245 LINE",
"190 -238 OFFCURVE",
"406 -212 OFFCURVE",
"406 -7 CURVE SMOOTH"
);
},
{
closed = 1;
nodes = (
"338 229 OFFCURVE",
"219 61 OFFCURVE",
"173 61 CURVE SMOOTH",
"141 61 OFFCURVE",
"118 120 OFFCURVE",
"118 195 CURVE SMOOTH",
"118 284 OFFCURVE",
"176 376 OFFCURVE",
"249 376 CURVE SMOOTH",
"289 376 OFFCURVE",
"338 365 OFFCURVE",
"338 365 CURVE SMOOTH"
);
}
);
};
layerId = "B4604C5D-F439-46D0-AEF0-55E4508ED162";
paths = (
{
closed = 1;
nodes = (
"421 429 LINE",
"421 429 OFFCURVE",
"313 446 OFFCURVE",
"251 446 CURVE SMOOTH",
"134 446 OFFCURVE",
"35 336 OFFCURVE",
"35 199 CURVE SMOOTH",
"35 33 OFFCURVE",
"117 -8 OFFCURVE",
"154 -8 CURVE SMOOTH",
"225 -8 OFFCURVE",
"289 73 OFFCURVE",
"323 135 CURVE",
"323 -5 LINE SMOOTH",
"323 -141 OFFCURVE",
"143 -139 OFFCURVE",
"93 -144 CURVE",
"93 -245 LINE",
"182 -241 OFFCURVE",
"421 -225 OFFCURVE",
"421 -7 CURVE SMOOTH"
);
},
{
closed = 1;
nodes = (
"317 229 OFFCURVE",
"217 81 OFFCURVE",
"177 81 CURVE SMOOTH",
"153 81 OFFCURVE",
"133 132 OFFCURVE",
"133 199 CURVE SMOOTH",
"133 280 OFFCURVE",
"184 364 OFFCURVE",
"253 364 CURVE SMOOTH",
"284 364 OFFCURVE",
"314 357 OFFCURVE",
"323 356 CURVE"
);
}
);
width = 486;
}
);
unicode = 0067;
},
{
color = (255,0,65,1);
glyphname = h;
lastChange = "2016-07-28 01:32:54 +0000";
layers = (
{
layerId = UUID0;
paths = (
{
closed = 1;
nodes = (
"344 370 OFFCURVE",
"357 357 OFFCURVE",
"357 308 CURVE SMOOTH",
"357 0 LINE",
"425 0 LINE",
"425 301 LINE SMOOTH",
"425 413 OFFCURVE",
"385 438 OFFCURVE",
"344 438 CURVE SMOOTH",
"285 438 OFFCURVE",
"237 394 OFFCURVE",
"205 352 CURVE SMOOTH",
"184 324 OFFCURVE",
"151 275 OFFCURVE",
"148 253 CURVE",
"148 700 LINE",
"80 700 LINE",
"80 0 LINE",
"148 0 LINE",
"148 84 LINE SMOOTH",
"148 175 OFFCURVE",
"255 370 OFFCURVE",
"326 370 CURVE SMOOTH"
);
}
);
width = 505;
},
{
background = {
paths = (
{
closed = 1;
nodes = (
"344 370 OFFCURVE",
"357 357 OFFCURVE",
"357 308 CURVE SMOOTH",
"357 0 LINE",
"425 0 LINE",
"425 301 LINE SMOOTH",
"425 413 OFFCURVE",
"385 438 OFFCURVE",
"344 438 CURVE SMOOTH",
"285 438 OFFCURVE",
"237 394 OFFCURVE",
"205 352 CURVE SMOOTH",
"184 324 OFFCURVE",
"151 275 OFFCURVE",
"148 253 CURVE",
"148 700 LINE",
"80 700 LINE",
"80 0 LINE",
"148 0 LINE",
"148 84 LINE SMOOTH",
"148 175 OFFCURVE",
"255 370 OFFCURVE",
"326 370 CURVE SMOOTH"
);
}
);
};
layerId = "B4604C5D-F439-46D0-AEF0-55E4508ED162";
paths = (
{
closed = 1;
nodes = (
"334 348 OFFCURVE",
"342 338 OFFCURVE",
"342 301 CURVE SMOOTH",
"342 0 LINE",
"440 0 LINE",
"440 299 LINE SMOOTH",
"440 423 OFFCURVE",
"392 446 OFFCURVE",
"344 446 CURVE SMOOTH",
"279 446 OFFCURVE",
"227 399 OFFCURVE",
"193 354 CURVE SMOOTH",
"182 339 OFFCURVE",
"165 314 OFFCURVE",
"163 302 CURVE",
"163 700 LINE",
"65 700 LINE",
"65 0 LINE",
"163 0 LINE",
"163 107 LINE SMOOTH",
"163 193 OFFCURVE",
"258 348 OFFCURVE",
"318 348 CURVE SMOOTH"
);
}
);
width = 505;
}
);
unicode = 0068;
},
{
color = (255,0,65,1);
glyphname = i;
lastChange = "2016-07-27 04:27:05 +0000";
layers = (
{
layerId = UUID0;
paths = (
{
closed = 1;
nodes = (
"151 430 LINE",
"83 430 LINE",
"83 0 LINE",
"151 0 LINE"
);
},
{
closed = 1;
nodes = (
"77 508 LINE",
"157 508 LINE",
"157 598 LINE",
"77 598 LINE"
);
}
);
width = 234;
},
{
background = {
paths = (
{
closed = 1;
nodes = (
"151 430 LINE",
"83 430 LINE",
"83 0 LINE",
"151 0 LINE"
);
},
{
closed = 1;
nodes = (
"77 508 LINE",
"157 508 LINE",
"157 598 LINE",
"77 598 LINE"
);
}
);
};
layerId = "B4604C5D-F439-46D0-AEF0-55E4508ED162";
paths = (
{
closed = 1;
nodes = (
"166 438 LINE",
"68 438 LINE",
"68 0 LINE",
"166 0 LINE"
);
},
{
closed = 1;
nodes = (
"64 508 LINE",
"170 508 LINE",
"170 624 LINE",
"64 624 LINE"
);
}
);
width = 234;
}
);
unicode = 0069;
},
{
color = (255,0,65,1);
glyphname = dotlessi;
lastChange = "2016-07-27 04:27:05 +0000";
layers = (
{
layerId = UUID0;
paths = (
{
closed = 1;
nodes = (
"151 430 LINE",
"83 430 LINE",
"83 0 LINE",
"151 0 LINE"
);
}
);
width = 234;
},
{
layerId = "B4604C5D-F439-46D0-AEF0-55E4508ED162";
paths = (
{
closed = 1;
nodes = (
"166 438 LINE",
"68 438 LINE",
"68 0 LINE",
"166 0 LINE"
);
}
);
width = 234;
}
);
unicode = 0131;
},
{
color = (255,0,65,1);
glyphname = j;
lastChange = "2016-07-27 04:27:05 +0000";
layers = (
{
layerId = UUID0;
paths = (
{
closed = 1;
nodes = (
"77 508 LINE",
"157 508 LINE",
"157 598 LINE",
"77 598 LINE"
);
},
{
closed = 1;
nodes = (
"-44 -245 LINE",
"47 -222 OFFCURVE",
"151 -166 OFFCURVE",
"151 -24 CURVE SMOOTH",
"151 430 LINE",
"83 430 LINE",
"83 -21 LINE SMOOTH",
"83 -115 OFFCURVE",
"18 -153 OFFCURVE",
"-44 -173 CURVE"
);
}
);
width = 234;
},
{
background = {
paths = (
{
closed = 1;
nodes = (
"77 508 LINE",
"157 508 LINE",
"157 598 LINE",
"77 598 LINE"
);
},
{
closed = 1;
nodes = (
"-44 -245 LINE",
"47 -222 OFFCURVE",
"151 -166 OFFCURVE",
"151 -24 CURVE SMOOTH",
"151 430 LINE",
"83 430 LINE",
"83 -21 LINE SMOOTH",
"83 -115 OFFCURVE",
"18 -153 OFFCURVE",
"-44 -173 CURVE"
);
}
);
};
layerId = "B4604C5D-F439-46D0-AEF0-55E4508ED162";
paths = (
{
closed = 1;
nodes = (
"64 508 LINE",
"170 508 LINE",
"170 624 LINE",
"64 624 LINE"
);
},
{
closed = 1;
nodes = (
"-59 -245 LINE",
"46 -219 OFFCURVE",
"166 -176 OFFCURVE",
"166 -24 CURVE SMOOTH",
"166 438 LINE",
"68 438 LINE",
"68 -21 LINE SMOOTH",
"68 -106 OFFCURVE",
"0 -126 OFFCURVE",
"-59 -143 CURVE"
);
}
);
width = 234;
}
);
unicode = 006A;
},
{
color = (255,0,65,1);
glyphname = dotlessj;
lastChange = "2016-07-27 04:27:05 +0000";
layers = (
{
layerId = UUID0;
paths = (
{
closed = 1;
nodes = (
"-44 -245 LINE",
"47 -222 OFFCURVE",
"151 -166 OFFCURVE",
"151 -24 CURVE SMOOTH",
"151 430 LINE",
"83 430 LINE",
"83 -21 LINE SMOOTH",
"83 -115 OFFCURVE",
"18 -153 OFFCURVE",
"-44 -173 CURVE"
);
}
);
width = 234;
},
{
layerId = "B4604C5D-F439-46D0-AEF0-55E4508ED162";
paths = (
{
closed = 1;
nodes = (
"-59 -245 LINE",
"46 -219 OFFCURVE",
"166 -176 OFFCURVE",
"166 -24 CURVE SMOOTH",
"166 438 LINE",
"68 438 LINE",
"68 -21 LINE SMOOTH",
"68 -106 OFFCURVE",
"0 -126 OFFCURVE",
"-59 -143 CURVE"
);
}
);
width = 234;
}
);
unicode = 0237;
},
{
color = (255,5,0,1);
glyphname = k;
lastChange = "2016-07-28 01:27:33 +0000";
layers = (
{
layerId = UUID0;
paths = (
{
closed = 1;
nodes = (
"148 0 LINE",
"147 134 LINE SMOOTH",
"147 207 OFFCURVE",
"178 373 OFFCURVE",
"275 373 CURVE SMOOTH",
"291 373 OFFCURVE",
"329 370 OFFCURVE",
"329 333 CURVE SMOOTH",
"329 278 OFFCURVE",
"231 244 OFFCURVE",
"184 244 CURVE",
"184 187 LINE",
"343 0 LINE",
"425 0 LINE",
"231 231 LINE",
"225 189 LINE",
"319 204 OFFCURVE",
"396 265 OFFCURVE",
"396 334 CURVE SMOOTH",
"396 430 OFFCURVE",
"329 440 OFFCURVE",
"286 440 CURVE SMOOTH",
"222 440 OFFCURVE",
"182 405 OFFCURVE",
"148 328 CURVE",
"148 700 LINE",
"80 700 LINE",
"80 0 LINE"
);
}
);
width = 455;
},
{
background = {
paths = (
{
closed = 1;
nodes = (
"148 700 LINE",
"80 700 LINE",
"80 0 LINE",
"148 0 LINE",
"147 134 LINE SMOOTH",
"147 207 OFFCURVE",
"178 373 OFFCURVE",
"275 373 CURVE SMOOTH",
"291 373 OFFCURVE",
"329 370 OFFCURVE",
"329 333 CURVE SMOOTH",
"329 278 OFFCURVE",
"231 244 OFFCURVE",
"184 244 CURVE",
"184 187 LINE",
"343 0 LINE",
"425 0 LINE",
"260 197 LINE",
"337 220 OFFCURVE",
"396 274 OFFCURVE",
"396 334 CURVE SMOOTH",
"396 430 OFFCURVE",
"329 440 OFFCURVE",
"286 440 CURVE SMOOTH",
"222 440 OFFCURVE",
"182 405 OFFCURVE",
"148 328 CURVE"
);
},
{
closed = 1;
nodes = (
"163 700 LINE",
"65 700 LINE",
"65 0 LINE",
"163 0 LINE",
"162 142 LINE SMOOTH",
"162 215 OFFCURVE",
"173 361 OFFCURVE",
"265 361 CURVE SMOOTH",
"281 361 OFFCURVE",
"314 355 OFFCURVE",
"314 323 CURVE SMOOTH",
"314 268 OFFCURVE",
"234 243 OFFCURVE",
"187 243 CURVE",
"187 164 LINE",
"320 0 LINE",
"437 0 LINE",
"285 190 LINE",
"362 213 OFFCURVE",
"411 267 OFFCURVE",
"411 327 CURVE SMOOTH",
"411 428 OFFCURVE",
"344 448 OFFCURVE",
"286 448 CURVE SMOOTH",
"222 448 OFFCURVE",
"186 415 OFFCURVE",
"163 356 CURVE"
);
}
);
};
layerId = "B4604C5D-F439-46D0-AEF0-55E4508ED162";
paths = (
{
closed = 1;
nodes = (
"163 0 LINE",
"162 142 LINE SMOOTH",
"162 215 OFFCURVE",
"173 361 OFFCURVE",
"265 361 CURVE SMOOTH",
"281 361 OFFCURVE",
"314 355 OFFCURVE",
"314 323 CURVE SMOOTH",
"314 268 OFFCURVE",
"234 243 OFFCURVE",
"187 243 CURVE",
"187 164 LINE",
"320 0 LINE",
"437 0 LINE",
"257 225 LINE",
"248 182 LINE",
"346 197 OFFCURVE",
"411 258 OFFCURVE",
"411 327 CURVE SMOOTH",
"411 428 OFFCURVE",
"344 448 OFFCURVE",
"286 448 CURVE SMOOTH",
"227 448 OFFCURVE",
"192 410 OFFCURVE",
"163 356 CURVE",
"163 700 LINE",
"65 700 LINE",
"65 0 LINE"
);
}
);
width = 455;
}
);
unicode = 006B;
},
{
color = (255,0,65,1);
glyphname = l;
lastChange = "2016-07-27 04:27:05 +0000";
layers = (
{
layerId = UUID0;
paths = (
{
closed = 1;
nodes = (
"148 700 LINE",
"80 700 LINE",
"80 0 LINE",
"148 0 LINE"
);
}
);
width = 228;
},
{
background = {
paths = (
{
closed = 1;
nodes = (
"148 700 LINE",
"80 700 LINE",
"80 0 LINE",
"148 0 LINE"
);
}
);
};
layerId = "B4604C5D-F439-46D0-AEF0-55E4508ED162";
paths = (
{
closed = 1;
nodes = (
"163 700 LINE",
"65 700 LINE",
"65 0 LINE",
"163 0 LINE"
);
}
);
width = 228;
}
);
unicode = 006C;
},
{
color = (255,0,65,1);
glyphname = m;
lastChange = "2016-07-28 01:30:40 +0000";
layers = (
{
layerId = UUID0;
paths = (
{
closed = 1;
nodes = (
"148 0 LINE",
"148 84 LINE",
"148 175 OFFCURVE",
"245 370 OFFCURVE",
"309 370 CURVE SMOOTH",
"325 370 OFFCURVE",
"337 357 OFFCURVE",
"337 308 CURVE SMOOTH",
"337 0 LINE",
"405 0 LINE",
"405 84 LINE SMOOTH",
"405 175 OFFCURVE",
"502 370 OFFCURVE",
"566 370 CURVE SMOOTH",
"582 370 OFFCURVE",
"594 357 OFFCURVE",
"594 308 CURVE SMOOTH",
"594 0 LINE",
"662 0 LINE",
"662 301 LINE SMOOTH",
"662 413 OFFCURVE",
"622 438 OFFCURVE",
"582 438 CURVE SMOOTH",
"529 438 OFFCURVE",
"485 394 OFFCURVE",
"457 352 CURVE SMOOTH",
"438 324 OFFCURVE",
"408 275 OFFCURVE",
"405 253 CURVE SMOOTH",
"405 406 OFFCURVE",
"378 438 OFFCURVE",
"325 438 CURVE SMOOTH",
"239 438 OFFCURVE",
"155 306 OFFCURVE",
"148 253 CURVE",
"148 430 LINE",
"80 430 LINE",
"80 0 LINE"
);
}
);
width = 742;
},
{
background = {
paths = (
{
closed = 1;
nodes = (
"405 84 LINE SMOOTH",
"405 175 OFFCURVE",
"502 370 OFFCURVE",
"566 370 CURVE SMOOTH",
"582 370 OFFCURVE",
"594 357 OFFCURVE",
"594 308 CURVE SMOOTH",
"594 0 LINE",
"662 0 LINE",
"662 301 LINE SMOOTH",
"662 413 OFFCURVE",
"622 438 OFFCURVE",
"582 438 CURVE SMOOTH",
"529 438 OFFCURVE",
"485 394 OFFCURVE",
"457 352 CURVE SMOOTH",
"438 324 OFFCURVE",
"408 275 OFFCURVE",
"405 253 CURVE SMOOTH",
"405 406 OFFCURVE",
"378 438 OFFCURVE",
"325 438 CURVE SMOOTH",
"239 438 OFFCURVE",
"155 306 OFFCURVE",
"148 253 CURVE",
"148 430 LINE",
"80 430 LINE",
"80 0 LINE",
"148 0 LINE",
"148 84 LINE SMOOTH",
"148 84 OFFCURVE",
"148 84 OFFCURVE",
"148 84 CURVE SMOOTH",
"148 175 OFFCURVE",
"245 370 OFFCURVE",
"309 370 CURVE SMOOTH",
"325 370 OFFCURVE",
"337 357 OFFCURVE",
"337 308 CURVE SMOOTH",
"337 0 LINE",
"405 0 LINE"
);
}
);
};
layerId = "B4604C5D-F439-46D0-AEF0-55E4508ED162";
paths = (
{
closed = 1;
nodes = (
"163 0 LINE",
"163 107 LINE SMOOTH",
"163 193 OFFCURVE",
"243 347 OFFCURVE",
"301 348 CURVE SMOOTH",
"314 348 OFFCURVE",
"322 336 OFFCURVE",
"322 301 CURVE SMOOTH",
"322 0 LINE",
"420 0 LINE",
"420 107 LINE SMOOTH",
"420 193 OFFCURVE",
"500 347 OFFCURVE",
"558 348 CURVE SMOOTH",
"571 348 OFFCURVE",
"579 336 OFFCURVE",
"579 301 CURVE SMOOTH",
"579 0 LINE",
"677 0 LINE",
"677 294 LINE SMOOTH",
"677 419 OFFCURVE",
"629 446 OFFCURVE",
"582 446 CURVE SMOOTH",
"524 446 OFFCURVE",
"473 397 OFFCURVE",
"444 353 CURVE SMOOTH",
"434 339 OFFCURVE",
"419 314 OFFCURVE",
"417 302 CURVE",
"410 419 OFFCURVE",
"374 446 OFFCURVE",
"325 446 CURVE SMOOTH",
"250 446 OFFCURVE",
"183 355 OFFCURVE",
"163 306 CURVE",
"163 438 LINE",
"65 438 LINE",
"65 0 LINE"
);
}
);
width = 742;
}
);
unicode = 006D;
},
{
color = (255,0,65,1);
glyphname = n;
lastChange = "2016-07-27 04:27:05 +0000";
layers = (
{
layerId = UUID0;
paths = (
{
closed = 1;
nodes = (
"344 370 OFFCURVE",
"357 357 OFFCURVE",
"357 308 CURVE SMOOTH",
"357 0 LINE",
"425 0 LINE",
"425 301 LINE SMOOTH",
"425 413 OFFCURVE",
"385 438 OFFCURVE",
"344 438 CURVE SMOOTH",
"285 438 OFFCURVE",
"237 394 OFFCURVE",
"205 352 CURVE SMOOTH",
"184 324 OFFCURVE",
"151 275 OFFCURVE",
"148 253 CURVE",
"148 430 LINE",
"80 430 LINE",
"80 0 LINE",
"148 0 LINE",
"148 84 LINE SMOOTH",
"148 175 OFFCURVE",
"255 370 OFFCURVE",
"326 370 CURVE SMOOTH"
);
}
);
width = 505;
},
{
background = {
paths = (
{
closed = 1;
nodes = (
"344 370 OFFCURVE",
"357 357 OFFCURVE",
"357 308 CURVE SMOOTH",
"357 0 LINE",
"425 0 LINE",
"425 301 LINE SMOOTH",
"425 413 OFFCURVE",
"385 438 OFFCURVE",
"344 438 CURVE SMOOTH",
"285 438 OFFCURVE",
"237 394 OFFCURVE",
"205 352 CURVE SMOOTH",
"184 324 OFFCURVE",
"151 275 OFFCURVE",
"148 253 CURVE",
"148 430 LINE",
"80 430 LINE",
"80 0 LINE",
"148 0 LINE",
"148 84 LINE SMOOTH",
"148 175 OFFCURVE",
"255 370 OFFCURVE",
"326 370 CURVE SMOOTH"
);
}
);
};
layerId = "B4604C5D-F439-46D0-AEF0-55E4508ED162";
paths = (
{
closed = 1;
nodes = (
"334 348 OFFCURVE",
"342 338 OFFCURVE",
"342 301 CURVE SMOOTH",
"342 0 LINE",
"440 0 LINE",
"440 299 LINE SMOOTH",
"440 423 OFFCURVE",
"392 446 OFFCURVE",
"344 446 CURVE SMOOTH",
"279 446 OFFCURVE",
"227 399 OFFCURVE",
"193 354 CURVE SMOOTH",
"182 339 OFFCURVE",
"165 314 OFFCURVE",
"163 302 CURVE",
"163 438 LINE",
"65 438 LINE",
"65 0 LINE",
"163 0 LINE",
"163 107 LINE SMOOTH",
"163 193 OFFCURVE",
"258 348 OFFCURVE",
"318 348 CURVE SMOOTH"
);
}
);
width = 505;
}
);
unicode = 006E;
},
{
color = (255,5,0,1);
glyphname = o;
lastChange = "2016-07-27 04:27:05 +0000";
layers = (
{
layerId = UUID0;
paths = (
{
closed = 1;
nodes = (
"328 -8 OFFCURVE",
"423 87 OFFCURVE",
"423 215 CURVE SMOOTH",
"423 381 OFFCURVE",
"320 438 OFFCURVE",
"248 438 CURVE SMOOTH",
"140 438 OFFCURVE",
"45 343 OFFCURVE",
"45 215 CURVE SMOOTH",
"45 49 OFFCURVE",
"148 -8 OFFCURVE",
"220 -8 CURVE SMOOTH"
);
},
{
closed = 1;
nodes = (
"163 54 OFFCURVE",
"112 120 OFFCURVE",
"112 215 CURVE SMOOTH",
"112 304 OFFCURVE",
"159 376 OFFCURVE",
"243 376 CURVE SMOOTH",
"305 376 OFFCURVE",
"356 310 OFFCURVE",
"356 215 CURVE SMOOTH",
"356 126 OFFCURVE",
"309 54 OFFCURVE",
"225 54 CURVE SMOOTH"
);
}
);
width = 468;
},
{
background = {
paths = (
{
closed = 1;
nodes = (
"328 -8 OFFCURVE",
"423 87 OFFCURVE",
"423 215 CURVE SMOOTH",
"423 381 OFFCURVE",
"320 438 OFFCURVE",
"248 438 CURVE SMOOTH",
"140 438 OFFCURVE",
"45 343 OFFCURVE",
"45 215 CURVE SMOOTH",
"45 49 OFFCURVE",
"148 -8 OFFCURVE",
"220 -8 CURVE SMOOTH"
);
},
{
closed = 1;
nodes = (
"163 54 OFFCURVE",
"112 120 OFFCURVE",
"112 215 CURVE SMOOTH",
"112 304 OFFCURVE",
"159 376 OFFCURVE",
"243 376 CURVE SMOOTH",
"305 376 OFFCURVE",
"356 310 OFFCURVE",
"356 215 CURVE SMOOTH",
"356 126 OFFCURVE",
"309 54 OFFCURVE",
"225 54 CURVE SMOOTH"
);
}
);
};
layerId = "B4604C5D-F439-46D0-AEF0-55E4508ED162";
paths = (
{
closed = 1;
nodes = (
"336 -8 OFFCURVE",
"438 91 OFFCURVE",
"438 219 CURVE SMOOTH",
"438 385 OFFCURVE",
"326 446 OFFCURVE",
"248 446 CURVE SMOOTH",
"132 446 OFFCURVE",
"30 347 OFFCURVE",
"30 219 CURVE SMOOTH",
"30 53 OFFCURVE",
"142 -8 OFFCURVE",
"220 -8 CURVE SMOOTH"
);
},
{
closed = 1;
nodes = (
"171 76 OFFCURVE",
"129 133 OFFCURVE",
"129 219 CURVE SMOOTH",
"129 299 OFFCURVE",
"168 361 OFFCURVE",
"243 361 CURVE SMOOTH",
"297 361 OFFCURVE",
"338 305 OFFCURVE",
"338 219 CURVE SMOOTH",
"338 138 OFFCURVE",
"299 76 OFFCURVE",
"225 76 CURVE SMOOTH"
);
}
);
width = 468;
}
);
unicode = 006F;
},
{
color = (255,5,0,1);
glyphname = oslash;
lastChange = "2016-07-28 01:41:32 +0000";
layers = (
{
layerId = UUID0;
paths = (
{
closed = 1;
nodes = (
"328 -8 OFFCURVE",
"423 87 OFFCURVE",
"423 215 CURVE SMOOTH",
"423 337 OFFCURVE",
"357 438 OFFCURVE",
"248 438 CURVE SMOOTH",
"140 438 OFFCURVE",
"45 343 OFFCURVE",
"45 215 CURVE SMOOTH",
"45 90 OFFCURVE",
"112 -8 OFFCURVE",
"220 -8 CURVE SMOOTH"
);
},
{
closed = 1;
nodes = (
"144 -48 LINE",
"388 478 LINE",
"325 478 LINE",
"81 -48 LINE"
);
},
{
closed = 1;
nodes = (
"155 54 OFFCURVE",
"112 128 OFFCURVE",
"112 215 CURVE SMOOTH",
"112 304 OFFCURVE",
"159 376 OFFCURVE",
"243 376 CURVE SMOOTH",
"309 376 OFFCURVE",
"356 300 OFFCURVE",
"356 215 CURVE SMOOTH",
"356 126 OFFCURVE",
"309 54 OFFCURVE",
"225 54 CURVE SMOOTH"
);
}
);
width = 468;
},
{
background = {
paths = (
{
closed = 1;
nodes = (
"388 478 LINE",
"325 478 LINE",
"302 428 LINE",
"283 435 OFFCURVE",
"265 438 OFFCURVE",
"248 438 CURVE SMOOTH",
"140 438 OFFCURVE",
"45 343 OFFCURVE",
"45 215 CURVE SMOOTH",
"45 122 OFFCURVE",
"77 64 OFFCURVE",
"117 30 CURVE",
"81 -48 LINE",
"144 -48 LINE",
"167 1 LINE",
"185 -5 OFFCURVE",
"203 -8 OFFCURVE",
"220 -8 CURVE SMOOTH",
"328 -8 OFFCURVE",
"423 87 OFFCURVE",
"423 215 CURVE SMOOTH",
"423 306 OFFCURVE",
"392 365 OFFCURVE",
"351 399 CURVE"
);
}
);
};
layerId = "B4604C5D-F439-46D0-AEF0-55E4508ED162";
paths = (
{
closed = 1;
nodes = (
"336 -8 OFFCURVE",
"438 91 OFFCURVE",
"438 219 CURVE SMOOTH",
"438 385 OFFCURVE",
"326 446 OFFCURVE",
"248 446 CURVE SMOOTH",
"132 446 OFFCURVE",
"30 347 OFFCURVE",
"30 219 CURVE SMOOTH",
"30 53 OFFCURVE",
"142 -8 OFFCURVE",
"220 -8 CURVE SMOOTH"
);
},
{
closed = 1;
nodes = (
"154 -48 LINE",
"398 486 LINE",
"315 486 LINE",
"71 -48 LINE"
);
},
{
closed = 1;
nodes = (
"171 76 OFFCURVE",
"129 133 OFFCURVE",
"129 219 CURVE SMOOTH",
"129 299 OFFCURVE",
"168 361 OFFCURVE",
"243 361 CURVE SMOOTH",
"297 361 OFFCURVE",
"338 305 OFFCURVE",
"338 219 CURVE SMOOTH",
"338 138 OFFCURVE",
"299 76 OFFCURVE",
"225 76 CURVE SMOOTH"
);
}
);
width = 468;
}
);
unicode = 00F8;
},
{
color = (255,5,0,1);
glyphname = oe;
lastChange = "2016-07-28 01:48:55 +0000";
layers = (
{
layerId = UUID0;
paths = (
{
closed = 1;
nodes = (
"687 409 OFFCURVE",
"614 438 OFFCURVE",
"553 438 CURVE SMOOTH",
"478 438 OFFCURVE",
"425 399 OFFCURVE",
"391 345 CURVE",
"355 412 OFFCURVE",
"296 438 OFFCURVE",
"248 438 CURVE SMOOTH",
"140 438 OFFCURVE",
"45 343 OFFCURVE",
"45 215 CURVE SMOOTH",
"45 49 OFFCURVE",
"148 -8 OFFCURVE",
"220 -8 CURVE SMOOTH",
"285 -8 OFFCURVE",
"343 26 OFFCURVE",
"380 82 CURVE",
"414 17 OFFCURVE",
"470 -8 OFFCURVE",
"525 -8 CURVE SMOOTH",
"583 -8 OFFCURVE",
"633 7 OFFCURVE",
"670 21 CURVE",
"670 93 LINE",
"634 75 OFFCURVE",
"585 54 OFFCURVE",
"530 54 CURVE SMOOTH",
"467 54 OFFCURVE",
"428 104 OFFCURVE",
"419 180 CURVE",
"543 190 OFFCURVE",
"687 223 OFFCURVE",
"687 324 CURVE SMOOTH"
);
},
{
closed = 1;
nodes = (
"163 54 OFFCURVE",
"112 120 OFFCURVE",
"112 215 CURVE SMOOTH",
"112 304 OFFCURVE",
"159 376 OFFCURVE",
"243 376 CURVE SMOOTH",
"303 376 OFFCURVE",
"353 313 OFFCURVE",
"356 222 CURVE SMOOTH",
"356 215 LINE SMOOTH",
"356 126 OFFCURVE",
"309 54 OFFCURVE",
"225 54 CURVE SMOOTH"
);
},
{
closed = 1;
nodes = (
"594 376 OFFCURVE",
"619 353 OFFCURVE",
"619 322 CURVE SMOOTH",
"619 264 OFFCURVE",
"487 248 OFFCURVE",
"418 243 CURVE",
"427 318 OFFCURVE",
"473 376 OFFCURVE",
"548 376 CURVE SMOOTH"
);
}
);
width = 729;
},
{
background = {
paths = (
{
closed = 1;
nodes = (
"317 -8 OFFCURVE",
"403 68 OFFCURVE",
"420 176 CURVE",
"506 179 LINE",
"519 41 OFFCURVE",
"604 -8 OFFCURVE",
"680 -8 CURVE SMOOTH",
"738 -8 OFFCURVE",
"788 7 OFFCURVE",
"825 21 CURVE",
"825 93 LINE",
"789 75 OFFCURVE",
"740 54 OFFCURVE",
"685 54 CURVE SMOOTH",
"622 54 OFFCURVE",
"583 104 OFFCURVE",
"574 180 CURVE",
"698 190 OFFCURVE",
"842 223 OFFCURVE",
"842 324 CURVE SMOOTH",
"842 409 OFFCURVE",
"769 438 OFFCURVE",
"708 438 CURVE SMOOTH",
"590 438 OFFCURVE",
"517 340 OFFCURVE",
"506 240 CURVE",
"422 237 LINE",
"413 386 OFFCURVE",
"316 438 OFFCURVE",
"248 438 CURVE SMOOTH",
"140 438 OFFCURVE",
"45 343 OFFCURVE",
"45 215 CURVE SMOOTH",
"45 49 OFFCURVE",
"148 -8 OFFCURVE",
"220 -8 CURVE SMOOTH"
);
},
{
closed = 1;
nodes = (
"163 54 OFFCURVE",
"112 120 OFFCURVE",
"112 215 CURVE SMOOTH",
"112 304 OFFCURVE",
"159 376 OFFCURVE",
"243 376 CURVE SMOOTH",
"305 376 OFFCURVE",
"356 310 OFFCURVE",
"356 215 CURVE SMOOTH",
"356 126 OFFCURVE",
"309 54 OFFCURVE",
"225 54 CURVE SMOOTH"
);
},
{
closed = 1;
nodes = (
"749 376 OFFCURVE",
"774 353 OFFCURVE",
"774 322 CURVE SMOOTH",
"774 264 OFFCURVE",
"642 248 OFFCURVE",
"573 243 CURVE",
"582 318 OFFCURVE",
"628 376 OFFCURVE",
"703 376 CURVE SMOOTH"
);
}
);
};
layerId = "B4604C5D-F439-46D0-AEF0-55E4508ED162";
paths = (
{
closed = 1;
nodes = (
"699 415 OFFCURVE",
"618 446 OFFCURVE",
"550 446 CURVE SMOOTH",
"479 446 OFFCURVE",
"427 414 OFFCURVE",
"390 369 CURVE",
"351 424 OFFCURVE",
"295 446 OFFCURVE",
"248 446 CURVE SMOOTH",
"132 446 OFFCURVE",
"30 347 OFFCURVE",
"30 219 CURVE SMOOTH",
"30 53 OFFCURVE",
"142 -8 OFFCURVE",
"220 -8 CURVE SMOOTH",
"281 -8 OFFCURVE",
"337 19 OFFCURVE",
"376 65 CURVE",
"412 12 OFFCURVE",
"466 -8 OFFCURVE",
"522 -8 CURVE SMOOTH",
"583 -8 OFFCURVE",
"640 8 OFFCURVE",
"682 23 CURVE",
"682 121 LINE",
"638 101 OFFCURVE",
"580 77 OFFCURVE",
"527 77 CURVE SMOOTH",
"477 77 OFFCURVE",
"444 115 OFFCURVE",
"435 171 CURVE",
"563 184 OFFCURVE",
"699 227 OFFCURVE",
"699 325 CURVE SMOOTH"
);
},
{
closed = 1;
nodes = (
"171 76 OFFCURVE",
"129 133 OFFCURVE",
"129 219 CURVE SMOOTH",
"129 299 OFFCURVE",
"168 361 OFFCURVE",
"243 361 CURVE SMOOTH",
"294 361 OFFCURVE",
"337 308 OFFCURVE",
"338 226 CURVE SMOOTH",
"338 216 LINE SMOOTH",
"338 137 OFFCURVE",
"297 76 OFFCURVE",
"225 76 CURVE SMOOTH"
);
},
{
closed = 1;
nodes = (
"581 359 OFFCURVE",
"601 342 OFFCURVE",
"601 319 CURVE SMOOTH",
"601 273 OFFCURVE",
"502 255 OFFCURVE",
"435 248 CURVE",
"441 308 OFFCURVE",
"485 359 OFFCURVE",
"545 359 CURVE SMOOTH"
);
}
);
width = 724;
}
);
unicode = 0153;
},
{
color = (255,5,0,1);
glyphname = p;
lastChange = "2016-07-27 04:27:05 +0000";
layers = (
{
layerId = UUID0;
paths = (
{
closed = 1;
nodes = (
"80 430 LINE",
"80 -245 LINE",
"148 -245 LINE",
"148 -2 LINE",
"177 -5 OFFCURVE",
"209 -8 OFFCURVE",
"235 -8 CURVE SMOOTH",
"344 -8 OFFCURVE",
"436 98 OFFCURVE",
"436 236 CURVE SMOOTH",
"436 401 OFFCURVE",
"364 438 OFFCURVE",
"332 438 CURVE SMOOTH",
"250 438 OFFCURVE",
"174 320 OFFCURVE",
"148 253 CURVE",
"148 430 LINE"
);
},
{
closed = 1;
nodes = (
"148 201 OFFCURVE",
"267 369 OFFCURVE",
"313 369 CURVE SMOOTH",
"345 369 OFFCURVE",
"368 310 OFFCURVE",
"368 235 CURVE SMOOTH",
"368 146 OFFCURVE",
"310 54 OFFCURVE",
"237 54 CURVE SMOOTH",
"197 54 OFFCURVE",
"148 65 OFFCURVE",
"148 65 CURVE SMOOTH"
);
}
);
width = 486;
},
{
background = {
paths = (
{
closed = 1;
nodes = (
"80 430 LINE",
"80 -245 LINE",
"148 -245 LINE",
"148 -2 LINE",
"177 -5 OFFCURVE",
"209 -8 OFFCURVE",
"235 -8 CURVE SMOOTH",
"344 -8 OFFCURVE",
"436 98 OFFCURVE",
"436 236 CURVE SMOOTH",
"436 401 OFFCURVE",
"364 438 OFFCURVE",
"332 438 CURVE SMOOTH",
"250 438 OFFCURVE",
"174 320 OFFCURVE",
"148 253 CURVE",
"148 430 LINE"
);
},
{
closed = 1;
nodes = (
"148 201 OFFCURVE",
"267 369 OFFCURVE",
"313 369 CURVE SMOOTH",
"345 369 OFFCURVE",
"368 310 OFFCURVE",
"368 235 CURVE SMOOTH",
"368 146 OFFCURVE",
"310 54 OFFCURVE",
"237 54 CURVE SMOOTH",
"197 54 OFFCURVE",
"148 65 OFFCURVE",
"148 65 CURVE SMOOTH"
);
}
);
};
layerId = "B4604C5D-F439-46D0-AEF0-55E4508ED162";
paths = (
{
closed = 1;
nodes = (
"65 438 LINE",
"65 -245 LINE",
"163 -245 LINE",
"163 -4 LINE",
"188 -6 OFFCURVE",
"214 -8 OFFCURVE",
"235 -8 CURVE SMOOTH",
"352 -8 OFFCURVE",
"451 101 OFFCURVE",
"451 239 CURVE SMOOTH",
"451 405 OFFCURVE",
"368 446 OFFCURVE",
"332 446 CURVE SMOOTH",
"260 446 OFFCURVE",
"196 364 OFFCURVE",
"163 303 CURVE",
"163 438 LINE"
);
},
{
closed = 1;
nodes = (
"169 209 OFFCURVE",
"269 357 OFFCURVE",
"309 357 CURVE SMOOTH",
"333 357 OFFCURVE",
"353 306 OFFCURVE",
"353 239 CURVE SMOOTH",
"353 158 OFFCURVE",
"302 74 OFFCURVE",
"233 74 CURVE SMOOTH",
"202 74 OFFCURVE",
"172 81 OFFCURVE",
"163 82 CURVE"
);
}
);
width = 486;
}
);
unicode = 0070;
},
{
color = (255,0,65,1);
glyphname = q;
lastChange = "2016-07-28 01:26:19 +0000";
layers = (
{
layerId = UUID0;
paths = (
{
closed = 1;
nodes = (
"406 -245 LINE",
"406 423 LINE",
"406 423 OFFCURVE",
"311 438 OFFCURVE",
"251 438 CURVE SMOOTH",
"142 438 OFFCURVE",
"50 332 OFFCURVE",
"50 194 CURVE SMOOTH",
"50 29 OFFCURVE",
"122 -8 OFFCURVE",
"154 -8 CURVE SMOOTH",
"236 -8 OFFCURVE",
"312 110 OFFCURVE",
"338 177 CURVE",
"338 -245 LINE"
);
},
{
closed = 1;
nodes = (
"141 61 OFFCURVE",
"118 120 OFFCURVE",
"118 195 CURVE SMOOTH",
"118 284 OFFCURVE",
"176 376 OFFCURVE",
"249 376 CURVE SMOOTH",
"289 376 OFFCURVE",
"338 365 OFFCURVE",
"338 365 CURVE SMOOTH",
"338 229 OFFCURVE",
"219 61 OFFCURVE",
"173 61 CURVE SMOOTH"
);
}
);
width = 486;
},
{
background = {
paths = (
{
closed = 1;
nodes = (
"406 423 LINE",
"406 423 OFFCURVE",
"311 438 OFFCURVE",
"251 438 CURVE SMOOTH",
"142 438 OFFCURVE",
"50 332 OFFCURVE",
"50 194 CURVE SMOOTH",
"50 29 OFFCURVE",
"122 -8 OFFCURVE",
"154 -8 CURVE SMOOTH",
"236 -8 OFFCURVE",
"312 110 OFFCURVE",
"338 177 CURVE",
"338 -245 LINE",
"406 -245 LINE"
);
},
{
closed = 1;
nodes = (
"289 376 OFFCURVE",
"338 365 OFFCURVE",
"338 365 CURVE SMOOTH",
"338 229 OFFCURVE",
"219 61 OFFCURVE",
"173 61 CURVE SMOOTH",
"141 61 OFFCURVE",
"118 120 OFFCURVE",
"118 195 CURVE SMOOTH",
"118 284 OFFCURVE",
"176 376 OFFCURVE",
"249 376 CURVE SMOOTH"
);
}
);
};
layerId = "B4604C5D-F439-46D0-AEF0-55E4508ED162";
paths = (
{
closed = 1;
nodes = (
"421 -248 LINE",
"421 429 LINE",
"421 429 OFFCURVE",
"313 446 OFFCURVE",
"251 446 CURVE SMOOTH",
"134 446 OFFCURVE",
"35 336 OFFCURVE",
"35 199 CURVE SMOOTH",
"35 33 OFFCURVE",
"117 -8 OFFCURVE",
"154 -8 CURVE SMOOTH",
"225 -8 OFFCURVE",
"289 73 OFFCURVE",
"323 135 CURVE",
"323 -248 LINE"
);
},
{
closed = 1;
nodes = (
"153 81 OFFCURVE",
"133 132 OFFCURVE",
"133 199 CURVE SMOOTH",
"133 280 OFFCURVE",
"184 364 OFFCURVE",
"253 364 CURVE SMOOTH",
"284 364 OFFCURVE",
"314 357 OFFCURVE",
"323 356 CURVE",
"317 229 OFFCURVE",
"217 81 OFFCURVE",
"177 81 CURVE SMOOTH"
);
}
);
width = 486;
}
);
unicode = 0071;
},
{
color = (255,5,0,1);
glyphname = r;
lastChange = "2016-07-28 01:28:49 +0000";
layers = (
{
background = {
paths = (
{
closed = 1;
nodes = (
"321 438 LINE",
"224 438 OFFCURVE",
"137 298 OFFCURVE",
"131 253 CURVE",
"131 430 LINE",
"63 430 LINE",
"63 0 LINE",
"131 0 LINE",
"131 84 LINE SMOOTH",
"131 97 OFFCURVE",
"133 112 OFFCURVE",
"137 128 CURVE SMOOTH",
"159 224 OFFCURVE",
"240 360 OFFCURVE",
"309 360 CURVE"
);
}
);
};
layerId = UUID0;
paths = (
{
closed = 1;
nodes = (
"131 0 LINE",
"131 109 LINE SMOOTH",
"131 173 OFFCURVE",
"216 350 OFFCURVE",
"307 354 CURVE",
"321 438 LINE",
"224 438 OFFCURVE",
"137 298 OFFCURVE",
"131 253 CURVE",
"131 430 LINE",
"63 430 LINE",
"63 0 LINE"
);
}
);
width = 323;
},
{
background = {
paths = (
{
closed = 1;
nodes = (
"146 0 LINE",
"146 98 LINE SMOOTH",
"146 112 OFFCURVE",
"147 128 OFFCURVE",
"149 144 CURVE SMOOTH",
"160 232 OFFCURVE",
"238 338 OFFCURVE",
"312 338 CURVE",
"328 446 LINE",
"226 446 OFFCURVE",
"166 350 OFFCURVE",
"146 302 CURVE",
"146 438 LINE",
"48 438 LINE",
"48 0 LINE"
);
}
);
};
layerId = "B4604C5D-F439-46D0-AEF0-55E4508ED162";
paths = (
{
closed = 1;
nodes = (
"146 0 LINE",
"146 102 LINE SMOOTH",
"146 219 OFFCURVE",
"233 338 OFFCURVE",
"312 338 CURVE",
"328 446 LINE",
"226 446 OFFCURVE",
"166 350 OFFCURVE",
"146 302 CURVE",
"146 438 LINE",
"48 438 LINE",
"48 0 LINE"
);
}
);
width = 323;
}
);
unicode = 0072;
},
{
color = (255,5,0,1);
glyphname = s;
lastChange = "2016-07-27 04:27:05 +0000";
layers = (
{
layerId = UUID0;
paths = (
{
closed = 1;
nodes = (
"135 289 LINE",
"138 272 OFFCURVE",
"166 249 OFFCURVE",
"193 223 CURVE SMOOTH",
"220 197 OFFCURVE",
"247 168 OFFCURVE",
"247 138 CURVE SMOOTH",
"247 88 OFFCURVE",
"206 64 OFFCURVE",
"161 57 CURVE SMOOTH",
"150 55 OFFCURVE",
"139 54 OFFCURVE",
"128 54 CURVE SMOOTH",
"81 54 OFFCURVE",
"53 65 OFFCURVE",
"34 78 CURVE",
"34 55 OFFCURVE",
"33 33 OFFCURVE",
"33 10 CURVE",
"45 5 OFFCURVE",
"67 -8 OFFCURVE",
"123 -8 CURVE SMOOTH",
"253 -8 OFFCURVE",
"313 62 OFFCURVE",
"313 133 CURVE SMOOTH",
"313 258 OFFCURVE",
"154 314 OFFCURVE",
"184 352 CURVE SMOOTH",
"240 421 LINE",
"191 459 LINE",
"32 261 LINE",
"81 223 LINE"
);
}
);
width = 353;
},
{
background = {
paths = (
{
closed = 1;
nodes = (
"135 289 LINE",
"138 272 OFFCURVE",
"166 249 OFFCURVE",
"193 223 CURVE SMOOTH",
"220 197 OFFCURVE",
"247 168 OFFCURVE",
"247 138 CURVE SMOOTH",
"247 88 OFFCURVE",
"206 64 OFFCURVE",
"161 57 CURVE SMOOTH",
"150 55 OFFCURVE",
"139 54 OFFCURVE",
"128 54 CURVE SMOOTH",
"81 54 OFFCURVE",
"53 65 OFFCURVE",
"34 78 CURVE",
"34 55 OFFCURVE",
"33 33 OFFCURVE",
"33 10 CURVE",
"45 5 OFFCURVE",
"67 -8 OFFCURVE",
"123 -8 CURVE SMOOTH",
"253 -8 OFFCURVE",
"313 62 OFFCURVE",
"313 133 CURVE SMOOTH",
"313 258 OFFCURVE",
"154 314 OFFCURVE",
"184 352 CURVE SMOOTH",
"240 421 LINE",
"191 459 LINE",
"32 261 LINE",
"81 223 LINE"
);
}
);
};
layerId = "B4604C5D-F439-46D0-AEF0-55E4508ED162";
paths = (
{
closed = 1;
nodes = (
"143 284 LINE",
"145 271 OFFCURVE",
"165 252 OFFCURVE",
"189 229 CURVE SMOOTH",
"216 204 OFFCURVE",
"233 180 OFFCURVE",
"233 153 CURVE SMOOTH",
"233 107 OFFCURVE",
"187 89 OFFCURVE",
"144 85 CURVE SMOOTH",
"134 84 OFFCURVE",
"123 84 OFFCURVE",
"113 86 CURVE",
"74 90 OFFCURVE",
"44 104 OFFCURVE",
"19 121 CURVE",
"19 86 OFFCURVE",
"18 50 OFFCURVE",
"18 15 CURVE",
"35 7 OFFCURVE",
"66 -8 OFFCURVE",
"123 -8 CURVE SMOOTH",
"263 -8 OFFCURVE",
"328 69 OFFCURVE",
"328 148 CURVE SMOOTH",
"328 270 OFFCURVE",
"175 325 OFFCURVE",
"204 361 CURVE SMOOTH",
"261 432 LINE",
"188 487 LINE",
"10 266 LINE",
"83 210 LINE"
);
}
);
width = 353;
}
);
unicode = 0073;
},
{
color = (255,5,0,1);
glyphname = germandbls;
lastChange = "2016-07-27 04:27:05 +0000";
layers = (
{
layerId = UUID0;
paths = (
{
closed = 1;
nodes = (
"176 1 LINE",
"190 -4 OFFCURVE",
"212 -8 OFFCURVE",
"245 -8 CURVE SMOOTH",
"375 -8 OFFCURVE",
"435 62 OFFCURVE",
"435 133 CURVE SMOOTH",
"435 267 OFFCURVE",
"306 316 OFFCURVE",
"306 362 CURVE SMOOTH",
"306 414 OFFCURVE",
"393 438 OFFCURVE",
"393 536 CURVE SMOOTH",
"393 623 OFFCURVE",
"351 708 OFFCURVE",
"233 708 CURVE SMOOTH",
"131 708 OFFCURVE",
"65 614 OFFCURVE",
"65 489 CURVE SMOOTH",
"65 -140 LINE",
"133 -140 LINE",
"133 489 LINE SMOOTH",
"133 593 OFFCURVE",
"172 643 OFFCURVE",
"233 643 CURVE SMOOTH",
"301 643 OFFCURVE",
"328 594 OFFCURVE",
"328 534 CURVE SMOOTH",
"328 450 OFFCURVE",
"238 437 OFFCURVE",
"238 351 CURVE SMOOTH",
"238 282 OFFCURVE",
"369 234 OFFCURVE",
"369 138 CURVE SMOOTH",
"369 75 OFFCURVE",
"305 54 OFFCURVE",
"250 54 CURVE SMOOTH",
"216 54 OFFCURVE",
"193 60 OFFCURVE",
"175 68 CURVE"
);
}
);
width = 475;
},
{
layerId = "B4604C5D-F439-46D0-AEF0-55E4508ED162";
paths = (
{
closed = 1;
nodes = (
"187 -1 LINE",
"201 -6 OFFCURVE",
"217 -8 OFFCURVE",
"245 -8 CURVE SMOOTH",
"382 -8 OFFCURVE",
"450 66 OFFCURVE",
"450 148 CURVE SMOOTH",
"450 282 OFFCURVE",
"321 319 OFFCURVE",
"321 362 CURVE SMOOTH",
"321 407 OFFCURVE",
"408 435 OFFCURVE",
"408 526 CURVE SMOOTH",
"408 617 OFFCURVE",
"360 708 OFFCURVE",
"233 708 CURVE SMOOTH",
"122 708 OFFCURVE",
"50 608 OFFCURVE",
"50 474 CURVE SMOOTH",
"50 -140 LINE",
"148 -140 LINE",
"148 474 LINE SMOOTH",
"148 569 OFFCURVE",
"181 613 OFFCURVE",
"233 613 CURVE SMOOTH",
"289 613 OFFCURVE",
"313 576 OFFCURVE",
"313 524 CURVE SMOOTH",
"313 450 OFFCURVE",
"223 437 OFFCURVE",
"223 351 CURVE SMOOTH",
"223 282 OFFCURVE",
"354 249 OFFCURVE",
"354 153 CURVE SMOOTH",
"354 99 OFFCURVE",
"294 84 OFFCURVE",
"250 84 CURVE SMOOTH",
"221 84 OFFCURVE",
"204 88 OFFCURVE",
"186 96 CURVE"
);
}
);
width = 475;
}
);
unicode = 00DF;
},
{
color = (255,5,0,1);
glyphname = t;
lastChange = "2016-07-28 01:22:06 +0000";
layers = (
{
layerId = UUID0;
paths = (
{
closed = 1;
nodes = (
"222 -8 OFFCURVE",
"253 8 OFFCURVE",
"253 8 CURVE",
"253 71 LINE",
"253 71 OFFCURVE",
"221 55 OFFCURVE",
"197 55 CURVE SMOOTH",
"176 55 OFFCURVE",
"162 62 OFFCURVE",
"162 94 CURVE SMOOTH",
"162 570 LINE",
"94 570 LINE",
"94 74 LINE SMOOTH",
"94 29 OFFCURVE",
"123 -8 OFFCURVE",
"175 -8 CURVE"
);
},
{
closed = 1;
nodes = (
"258 364 LINE",
"258 430 LINE",
"33 430 LINE",
"33 364 LINE"
);
}
);
width = 293;
},
{
background = {
paths = (
{
closed = 1;
nodes = (
"176 55 OFFCURVE",
"162 62 OFFCURVE",
"162 94 CURVE SMOOTH",
"162 364 LINE",
"258 364 LINE",
"258 430 LINE",
"162 430 LINE",
"162 570 LINE",
"94 570 LINE",
"94 430 LINE",
"33 430 LINE",
"33 364 LINE",
"94 364 LINE",
"94 74 LINE SMOOTH",
"94 29 OFFCURVE",
"123 -8 OFFCURVE",
"175 -8 CURVE",
"222 -8 OFFCURVE",
"253 8 OFFCURVE",
"253 8 CURVE",
"253 71 LINE",
"253 71 OFFCURVE",
"221 55 OFFCURVE",
"197 55 CURVE SMOOTH"
);
}
);
};
layerId = "B4604C5D-F439-46D0-AEF0-55E4508ED162";
paths = (
{
closed = 1;
nodes = (
"226 -8 OFFCURVE",
"268 8 OFFCURVE",
"268 8 CURVE",
"268 100 LINE",
"268 100 OFFCURVE",
"223 85 OFFCURVE",
"199 85 CURVE SMOOTH",
"186 85 OFFCURVE",
"177 89 OFFCURVE",
"177 109 CURVE SMOOTH",
"177 570 LINE",
"79 570 LINE",
"79 89 LINE SMOOTH",
"79 36 OFFCURVE",
"113 -8 OFFCURVE",
"175 -8 CURVE SMOOTH"
);
},
{
closed = 1;
nodes = (
"273 342 LINE",
"273 438 LINE",
"18 438 LINE",
"18 342 LINE"
);
}
);
width = 293;
}
);
unicode = 0074;
},
{
color = (255,5,0,1);
glyphname = u;
lastChange = "2016-07-28 01:33:41 +0000";
layers = (
{
background = {
paths = (
{
closed = 1;
nodes = (
"148 430 LINE",
"80 430 LINE",
"80 129 LINE SMOOTH",
"80 17 OFFCURVE",
"120 -8 OFFCURVE",
"160 -8 CURVE SMOOTH",
"252 -8 OFFCURVE",
"340 124 OFFCURVE",
"347 177 CURVE",
"347 0 LINE",
"415 0 LINE",
"415 430 LINE",
"347 430 LINE",
"347 346 LINE SMOOTH",
"347 255 OFFCURVE",
"245 60 OFFCURVE",
"178 60 CURVE SMOOTH",
"160 60 OFFCURVE",
"148 73 OFFCURVE",
"148 122 CURVE SMOOTH"
);
},
{
closed = 1;
nodes = (
"151 60 OFFCURVE",
"138 73 OFFCURVE",
"138 122 CURVE SMOOTH",
"138 430 LINE",
"70 430 LINE",
"70 129 LINE SMOOTH",
"70 17 OFFCURVE",
"110 -8 OFFCURVE",
"151 -8 CURVE SMOOTH",
"210 -8 OFFCURVE",
"258 36 OFFCURVE",
"290 78 CURVE SMOOTH",
"311 106 OFFCURVE",
"344 155 OFFCURVE",
"347 177 CURVE",
"347 0 LINE",
"415 0 LINE",
"415 430 LINE",
"347 430 LINE",
"347 346 LINE SMOOTH",
"347 255 OFFCURVE",
"240 60 OFFCURVE",
"169 60 CURVE SMOOTH"
);
}
);
};
layerId = UUID0;
paths = (
{
closed = 1;
nodes = (
"213 -8 OFFCURVE",
"258 36 OFFCURVE",
"290 78 CURVE SMOOTH",
"311 106 OFFCURVE",
"344 155 OFFCURVE",
"347 177 CURVE",
"347 0 LINE",
"415 0 LINE",
"415 430 LINE",
"347 430 LINE",
"347 346 LINE SMOOTH",
"347 255 OFFCURVE",
"238 60 OFFCURVE",
"179 60 CURVE SMOOTH",
"161 60 OFFCURVE",
"148 73 OFFCURVE",
"148 122 CURVE SMOOTH",
"148 430 LINE",
"80 430 LINE",
"80 129 LINE SMOOTH",
"80 17 OFFCURVE",
"120 -8 OFFCURVE",
"159 -8 CURVE SMOOTH"
);
}
);
width = 495;
},
{
background = {
paths = (
{
closed = 1;
nodes = (
"161 60 OFFCURVE",
"148 73 OFFCURVE",
"148 122 CURVE SMOOTH",
"148 430 LINE",
"80 430 LINE",
"80 129 LINE SMOOTH",
"80 17 OFFCURVE",
"120 -8 OFFCURVE",
"159 -8 CURVE SMOOTH",
"213 -8 OFFCURVE",
"258 36 OFFCURVE",
"290 78 CURVE SMOOTH",
"311 106 OFFCURVE",
"344 155 OFFCURVE",
"347 177 CURVE",
"347 0 LINE",
"415 0 LINE",
"415 430 LINE",
"347 430 LINE",
"347 346 LINE SMOOTH",
"347 255 OFFCURVE",
"238 60 OFFCURVE",
"179 60 CURVE SMOOTH"
);
}
);
};
layerId = "B4604C5D-F439-46D0-AEF0-55E4508ED162";
paths = (
{
closed = 1;
nodes = (
"215 -8 OFFCURVE",
"266 38 OFFCURVE",
"299 81 CURVE SMOOTH",
"314 101 OFFCURVE",
"325 117 OFFCURVE",
"332 133 CURVE",
"332 0 LINE",
"430 0 LINE",
"430 438 LINE",
"332 438 LINE",
"332 331 LINE SMOOTH",
"332 245 OFFCURVE",
"247 90 OFFCURVE",
"186 90 CURVE SMOOTH",
"172 90 OFFCURVE",
"163 100 OFFCURVE",
"163 131 CURVE SMOOTH",
"163 438 LINE",
"65 438 LINE",
"65 144 LINE SMOOTH",
"65 20 OFFCURVE",
"112 -8 OFFCURVE",
"160 -8 CURVE SMOOTH"
);
}
);
width = 495;
}
);
unicode = 0075;
},
{
color = (255,5,0,1);
glyphname = v;
lastChange = "2016-07-28 01:30:55 +0000";
layers = (
{
layerId = UUID0;
paths = (
{
closed = 1;
nodes = (
"255 0 LINE",
"409 430 LINE",
"336 430 LINE",
"202 41 LINE",
"232 41 LINE",
"98 430 LINE",
"24 430 LINE",
"178 0 LINE"
);
}
);
width = 434;
},
{
background = {
paths = (
{
closed = 1;
nodes = (
"255 0 LINE",
"409 430 LINE",
"336 430 LINE",
"217 84 LINE",
"98 430 LINE",
"24 430 LINE",
"178 0 LINE"
);
}
);
};
layerId = "B4604C5D-F439-46D0-AEF0-55E4508ED162";
paths = (
{
closed = 1;
nodes = (
"271 0 LINE",
"424 438 LINE",
"320 438 LINE",
"203 72 LINE",
"231 72 LINE",
"113 438 LINE",
"8 438 LINE",
"162 0 LINE"
);
}
);
width = 434;
}
);
unicode = 0076;
},
{
color = (255,5,0,1);
glyphname = w;
lastChange = "2016-07-28 01:29:07 +0000";
layers = (
{
layerId = UUID0;
paths = (
{
closed = 1;
nodes = (
"665 430 LINE",
"591 430 LINE",
"473 41 LINE",
"499 41 LINE",
"381 430 LINE",
"308 430 LINE",
"190 41 LINE",
"216 41 LINE",
"98 430 LINE",
"24 430 LINE",
"164 0 LINE",
"241 0 LINE",
"357 388 LINE",
"331 388 LINE",
"448 0 LINE",
"525 0 LINE"
);
}
);
width = 689;
},
{
background = {
paths = (
{
closed = 1;
nodes = (
"665 430 LINE",
"591 430 LINE",
"486 84 LINE",
"381 430 LINE",
"308 430 LINE",
"203 84 LINE",
"98 430 LINE",
"24 430 LINE",
"164 0 LINE",
"241 0 LINE",
"344 345 LINE",
"448 0 LINE",
"525 0 LINE"
);
}
);
};
layerId = "B4604C5D-F439-46D0-AEF0-55E4508ED162";
paths = (
{
closed = 1;
nodes = (
"681 438 LINE",
"575 438 LINE",
"474 78 LINE",
"498 78 LINE",
"397 438 LINE",
"292 438 LINE",
"191 78 LINE",
"215 78 LINE",
"114 438 LINE",
"8 438 LINE",
"148 0 LINE",
"257 0 LINE",
"356 349 LINE",
"332 349 LINE",
"432 0 LINE",
"541 0 LINE"
);
}
);
width = 689;
}
);
unicode = 0077;
},
{
color = (255,5,0,1);
glyphname = x;
lastChange = "2016-07-27 04:27:05 +0000";
layers = (
{
layerId = UUID0;
paths = (
{
closed = 1;
nodes = (
"395 430 LINE",
"318 430 LINE",
"210 268 LINE",
"101 430 LINE",
"24 430 LINE",
"172 213 LINE",
"24 0 LINE",
"103 0 LINE",
"210 165 LINE",
"318 0 LINE",
"395 0 LINE",
"248 213 LINE"
);
}
);
width = 420;
},
{
background = {
paths = (
{
closed = 1;
nodes = (
"395 430 LINE",
"318 430 LINE",
"210 268 LINE",
"101 430 LINE",
"24 430 LINE",
"172 213 LINE",
"24 0 LINE",
"103 0 LINE",
"210 165 LINE",
"318 0 LINE",
"395 0 LINE",
"248 213 LINE"
);
}
);
};
layerId = "B4604C5D-F439-46D0-AEF0-55E4508ED162";
paths = (
{
closed = 1;
nodes = (
"413 438 LINE",
"300 438 LINE",
"210 299 LINE",
"119 438 LINE",
"6 438 LINE",
"154 217 LINE",
"6 0 LINE",
"120 0 LINE",
"210 141 LINE",
"300 0 LINE",
"413 0 LINE",
"266 217 LINE"
);
}
);
width = 420;
}
);
unicode = 0078;
},
{
color = (255,5,0,1);
glyphname = y;
lastChange = "2016-07-27 04:27:05 +0000";
layers = (
{
layerId = UUID0;
paths = (
{
closed = 1;
nodes = (
"415 430 LINE",
"347 430 LINE",
"347 346 LINE SMOOTH",
"347 255 OFFCURVE",
"245 60 OFFCURVE",
"178 60 CURVE SMOOTH",
"160 60 OFFCURVE",
"148 73 OFFCURVE",
"148 122 CURVE SMOOTH",
"148 430 LINE",
"80 430 LINE",
"80 129 LINE SMOOTH",
"80 17 OFFCURVE",
"120 -8 OFFCURVE",
"160 -8 CURVE SMOOTH",
"252 -8 OFFCURVE",
"340 124 OFFCURVE",
"347 177 CURVE",
"347 -5 LINE SMOOTH",
"347 -155 OFFCURVE",
"167 -169 OFFCURVE",
"117 -174 CURVE",
"117 -245 LINE",
"199 -238 OFFCURVE",
"415 -212 OFFCURVE",
"415 -8 CURVE SMOOTH"
);
}
);
width = 495;
},
{
background = {
paths = (
{
closed = 1;
nodes = (
"415 430 LINE",
"347 430 LINE",
"347 346 LINE SMOOTH",
"347 255 OFFCURVE",
"245 60 OFFCURVE",
"178 60 CURVE SMOOTH",
"160 60 OFFCURVE",
"148 73 OFFCURVE",
"148 122 CURVE SMOOTH",
"148 430 LINE",
"80 430 LINE",
"80 129 LINE SMOOTH",
"80 17 OFFCURVE",
"120 -8 OFFCURVE",
"160 -8 CURVE SMOOTH",
"252 -8 OFFCURVE",
"340 124 OFFCURVE",
"347 177 CURVE",
"347 -5 LINE SMOOTH",
"347 -155 OFFCURVE",
"167 -169 OFFCURVE",
"117 -174 CURVE",
"117 -245 LINE",
"199 -238 OFFCURVE",
"415 -212 OFFCURVE",
"415 -8 CURVE SMOOTH"
);
}
);
};
layerId = "B4604C5D-F439-46D0-AEF0-55E4508ED162";
paths = (
{
closed = 1;
nodes = (
"430 438 LINE",
"332 438 LINE",
"332 331 LINE SMOOTH",
"332 245 OFFCURVE",
"247 90 OFFCURVE",
"186 90 CURVE SMOOTH",
"172 90 OFFCURVE",
"163 100 OFFCURVE",
"163 131 CURVE SMOOTH",
"163 438 LINE",
"65 438 LINE",
"65 144 LINE SMOOTH",
"65 19 OFFCURVE",
"112 -8 OFFCURVE",
"160 -8 CURVE SMOOTH",
"241 -8 OFFCURVE",
"310 82 OFFCURVE",
"332 133 CURVE",
"332 -5 LINE SMOOTH",
"332 -141 OFFCURVE",
"152 -139 OFFCURVE",
"102 -144 CURVE",
"102 -245 LINE",
"192 -237 OFFCURVE",
"430 -225 OFFCURVE",
"430 -8 CURVE SMOOTH"
);
}
);
width = 495;
}
);
unicode = 0079;
},
{
color = (255,5,0,1);
glyphname = z;
lastChange = "2016-07-28 01:31:10 +0000";
layers = (
{
layerId = UUID0;
paths = (
{
closed = 1;
nodes = (
"49 365 LINE",
"312 365 LINE",
"291 403 LINE",
"40 0 LINE",
"372 0 LINE",
"372 65 LINE",
"113 65 LINE",
"134 27 LINE",
"383 430 LINE",
"49 430 LINE"
);
}
);
width = 423;
},
{
background = {
paths = (
{
closed = 1;
nodes = (
"49 365 LINE",
"267 365 LINE",
"40 0 LINE",
"372 0 LINE",
"372 65 LINE",
"158 65 LINE",
"383 430 LINE",
"49 430 LINE"
);
}
);
};
layerId = "B4604C5D-F439-46D0-AEF0-55E4508ED162";
paths = (
{
closed = 1;
nodes = (
"34 343 LINE",
"285 343 LINE",
"264 381 LINE",
"23 0 LINE",
"397 0 LINE",
"397 95 LINE",
"150 95 LINE",
"171 57 LINE",
"410 438 LINE",
"34 438 LINE"
);
}
);
width = 423;
}
);
unicode = 007A;
},
{
color = (255,5,0,1);
glyphname = zero;
lastChange = "2016-07-27 04:27:05 +0000";
layers = (
{
background = {
paths = (
{
closed = 1;
nodes = (
"51 119 OFFCURVE",
"124 -8 OFFCURVE",
"234 -8 CURVE SMOOTH",
"344 -8 OFFCURVE",
"417 119 OFFCURVE",
"417 275 CURVE SMOOTH",
"417 431 OFFCURVE",
"344 558 OFFCURVE",
"234 558 CURVE SMOOTH",
"124 558 OFFCURVE",
"51 431 OFFCURVE",
"51 275 CURVE SMOOTH"
);
},
{
closed = 1;
nodes = (
"121 403 OFFCURVE",
"162 488 OFFCURVE",
"234 488 CURVE SMOOTH",
"308 488 OFFCURVE",
"347 403 OFFCURVE",
"347 275 CURVE SMOOTH",
"347 147 OFFCURVE",
"306 62 OFFCURVE",
"234 62 CURVE SMOOTH",
"160 62 OFFCURVE",
"121 147 OFFCURVE",
"121 275 CURVE SMOOTH"
);
}
);
};
layerId = UUID0;
paths = (
{
closed = 1;
nodes = (
"51 119 OFFCURVE",
"124 -8 OFFCURVE",
"234 -8 CURVE SMOOTH",
"344 -8 OFFCURVE",
"417 119 OFFCURVE",
"417 275 CURVE SMOOTH",
"417 431 OFFCURVE",
"344 558 OFFCURVE",
"234 558 CURVE SMOOTH",
"124 558 OFFCURVE",
"51 431 OFFCURVE",
"51 275 CURVE SMOOTH"
);
},
{
closed = 1;
nodes = (
"121 403 OFFCURVE",
"162 488 OFFCURVE",
"234 488 CURVE SMOOTH",
"308 488 OFFCURVE",
"347 403 OFFCURVE",
"347 275 CURVE SMOOTH",
"347 147 OFFCURVE",
"306 62 OFFCURVE",
"234 62 CURVE SMOOTH",
"160 62 OFFCURVE",
"121 147 OFFCURVE",
"121 275 CURVE SMOOTH"
);
}
);
width = 468;
},
{
background = {
paths = (
{
closed = 1;
nodes = (
"51 119 OFFCURVE",
"124 -8 OFFCURVE",
"234 -8 CURVE SMOOTH",
"344 -8 OFFCURVE",
"417 119 OFFCURVE",
"417 275 CURVE SMOOTH",
"417 431 OFFCURVE",
"344 558 OFFCURVE",
"234 558 CURVE SMOOTH",
"124 558 OFFCURVE",
"51 431 OFFCURVE",
"51 275 CURVE SMOOTH"
);
},
{
closed = 1;
nodes = (
"121 403 OFFCURVE",
"162 488 OFFCURVE",
"234 488 CURVE SMOOTH",
"308 488 OFFCURVE",
"347 403 OFFCURVE",
"347 275 CURVE SMOOTH",
"347 147 OFFCURVE",
"306 62 OFFCURVE",
"234 62 CURVE SMOOTH",
"160 62 OFFCURVE",
"121 147 OFFCURVE",
"121 275 CURVE SMOOTH"
);
}
);
};
layerId = "B4604C5D-F439-46D0-AEF0-55E4508ED162";
paths = (
{
closed = 1;
nodes = (
"36 121 OFFCURVE",
"115 -8 OFFCURVE",
"234 -8 CURVE SMOOTH",
"353 -8 OFFCURVE",
"432 121 OFFCURVE",
"432 280 CURVE SMOOTH",
"432 439 OFFCURVE",
"353 568 OFFCURVE",
"234 568 CURVE SMOOTH",
"115 568 OFFCURVE",
"36 439 OFFCURVE",
"36 280 CURVE SMOOTH"
);
},
{
closed = 1;
nodes = (
"136 393 OFFCURVE",
"172 468 OFFCURVE",
"234 468 CURVE SMOOTH",
"298 468 OFFCURVE",
"332 393 OFFCURVE",
"332 280 CURVE SMOOTH",
"332 167 OFFCURVE",
"296 92 OFFCURVE",
"234 92 CURVE SMOOTH",
"170 92 OFFCURVE",
"136 167 OFFCURVE",
"136 280 CURVE SMOOTH"
);
}
);
width = 468;
}
);
unicode = 0030;
},
{
color = (255,0,65,1);
glyphname = one;
lastChange = "2016-07-27 04:27:05 +0000";
layers = (
{
background = {
paths = (
{
closed = 1;
nodes = (
"80 403 LINE",
"248 467 LINE",
"248 0 LINE",
"318 0 LINE",
"318 550 LINE",
"258 550 LINE",
"80 479 LINE"
);
}
);
};
layerId = UUID0;
paths = (
{
closed = 1;
nodes = (
"80 403 LINE",
"248 467 LINE",
"248 0 LINE",
"318 0 LINE",
"318 550 LINE",
"258 550 LINE",
"80 479 LINE"
);
}
);
width = 468;
},
{
background = {
paths = (
{
closed = 1;
nodes = (
"80 403 LINE",
"248 467 LINE",
"248 0 LINE",
"318 0 LINE",
"318 550 LINE",
"258 550 LINE",
"80 479 LINE"
);
}
);
};
layerId = "B4604C5D-F439-46D0-AEF0-55E4508ED162";
paths = (
{
closed = 1;
nodes = (
"65 376 LINE",
"233 441 LINE",
"233 0 LINE",
"333 0 LINE",
"333 560 LINE",
"256 560 LINE",
"65 484 LINE"
);
}
);
width = 468;
}
);
unicode = 0031;
},
{
color = (255,5,0,1);
glyphname = two;
lastChange = "2016-07-27 04:27:05 +0000";
layers = (
{
background = {
paths = (
{
closed = 1;
nodes = (
"65 0 LINE",
"385 0 LINE",
"385 70 LINE",
"161 70 LINE",
"262 169 LINE SMOOTH",
"344 249 OFFCURVE",
"382 309 OFFCURVE",
"382 381 CURVE SMOOTH",
"382 520 OFFCURVE",
"288 558 OFFCURVE",
"216 558 CURVE SMOOTH",
"168 558 OFFCURVE",
"99 530 OFFCURVE",
"60 501 CURVE",
"95 443 LINE",
"129 469 OFFCURVE",
"176 490 OFFCURVE",
"211 490 CURVE SMOOTH",
"273 490 OFFCURVE",
"309 450 OFFCURVE",
"309 381 CURVE SMOOTH",
"309 326 OFFCURVE",
"271 276 OFFCURVE",
"198 203 CURVE SMOOTH",
"65 70 LINE"
);
}
);
};
layerId = UUID0;
paths = (
{
closed = 1;
nodes = (
"65 0 LINE",
"385 0 LINE",
"385 70 LINE",
"151 70 LINE",
"257 189 LINE SMOOTH",
"333 274 OFFCURVE",
"392 334 OFFCURVE",
"392 411 CURVE SMOOTH",
"392 530 OFFCURVE",
"298 558 OFFCURVE",
"226 558 CURVE SMOOTH",
"178 558 OFFCURVE",
"99 530 OFFCURVE",
"60 501 CURVE",
"95 443 LINE",
"129 469 OFFCURVE",
"186 490 OFFCURVE",
"221 490 CURVE SMOOTH",
"283 490 OFFCURVE",
"319 460 OFFCURVE",
"319 411 CURVE SMOOTH",
"319 356 OFFCURVE",
"266 301 OFFCURVE",
"198 223 CURVE SMOOTH",
"65 70 LINE"
);
}
);
width = 468;
},
{
background = {
paths = (
{
closed = 1;
nodes = (
"65 0 LINE",
"385 0 LINE",
"385 70 LINE",
"151 70 LINE",
"257 189 LINE SMOOTH",
"333 274 OFFCURVE",
"392 334 OFFCURVE",
"392 411 CURVE SMOOTH",
"392 530 OFFCURVE",
"298 558 OFFCURVE",
"226 558 CURVE SMOOTH",
"178 558 OFFCURVE",
"99 530 OFFCURVE",
"60 501 CURVE",
"95 443 LINE",
"129 469 OFFCURVE",
"186 490 OFFCURVE",
"221 490 CURVE SMOOTH",
"283 490 OFFCURVE",
"319 460 OFFCURVE",
"319 411 CURVE SMOOTH",
"319 356 OFFCURVE",
"266 301 OFFCURVE",
"198 223 CURVE SMOOTH",
"65 70 LINE"
);
}
);
};
layerId = "B4604C5D-F439-46D0-AEF0-55E4508ED162";
paths = (
{
closed = 1;
nodes = (
"50 0 LINE",
"400 0 LINE",
"400 100 LINE",
"184 100 LINE",
"283 205 LINE SMOOTH",
"354 280 OFFCURVE",
"407 338 OFFCURVE",
"407 413 CURVE SMOOTH",
"407 538 OFFCURVE",
"305 568 OFFCURVE",
"226 568 CURVE SMOOTH",
"167 568 OFFCURVE",
"86 534 OFFCURVE",
"40 500 CURVE",
"90 416 LINE",
"129 446 OFFCURVE",
"189 470 OFFCURVE",
"221 470 CURVE SMOOTH",
"274 470 OFFCURVE",
"304 447 OFFCURVE",
"304 409 CURVE SMOOTH",
"304 366 OFFCURVE",
"261 321 OFFCURVE",
"205 259 CURVE SMOOTH",
"50 90 LINE"
);
}
);
width = 468;
}
);
unicode = 0032;
},
{
color = (255,5,0,1);
glyphname = three;
lastChange = "2016-07-28 01:42:25 +0000";
layers = (
{
background = {
paths = (
{
closed = 1;
nodes = (
"75 472 LINE",
"278 472 LINE",
"129 291 LINE",
"129 233 LINE",
"176 233 LINE SMOOTH",
"248 233 OFFCURVE",
"315 211 OFFCURVE",
"315 122 CURVE SMOOTH",
"315 -38 OFFCURVE",
"125 -20 OFFCURVE",
"75 -26 CURVE",
"75 -98 LINE",
"157 -93 OFFCURVE",
"384 -79 OFFCURVE",
"384 125 CURVE SMOOTH",
"384 242 OFFCURVE",
"288 293 OFFCURVE",
"209 293 CURVE",
"372 485 LINE",
"372 542 LINE",
"75 542 LINE"
);
}
);
};
layerId = UUID0;
paths = (
{
closed = 1;
nodes = (
"302 -98 OFFCURVE",
"384 14 OFFCURVE",
"384 149 CURVE SMOOTH",
"384 291 OFFCURVE",
"289 325 OFFCURVE",
"202 315 CURVE",
"200 283 LINE",
"372 485 LINE",
"372 542 LINE",
"75 542 LINE",
"75 472 LINE",
"278 472 LINE",
"149 315 LINE",
"149 255 LINE",
"198 257 LINE SMOOTH",
"270 260 OFFCURVE",
"315 242 OFFCURVE",
"315 149 CURVE SMOOTH",
"315 43 OFFCURVE",
"253 -26 OFFCURVE",
"75 -26 CURVE",
"75 -98 LINE"
);
}
);
width = 468;
},
{
background = {
paths = (
{
closed = 1;
nodes = (
"75 472 LINE",
"278 472 LINE",
"149 315 LINE",
"149 255 LINE",
"198 257 LINE SMOOTH",
"270 260 OFFCURVE",
"315 242 OFFCURVE",
"315 149 CURVE SMOOTH",
"315 43 OFFCURVE",
"253 -26 OFFCURVE",
"75 -26 CURVE",
"75 -98 LINE",
"302 -98 OFFCURVE",
"384 14 OFFCURVE",
"384 149 CURVE SMOOTH",
"384 276 OFFCURVE",
"308 317 OFFCURVE",
"229 317 CURVE",
"372 485 LINE",
"372 542 LINE",
"75 542 LINE"
);
}
);
};
layerId = "B4604C5D-F439-46D0-AEF0-55E4508ED162";
paths = (
{
closed = 1;
nodes = (
"309 -98 OFFCURVE",
"399 17 OFFCURVE",
"399 155 CURVE SMOOTH",
"399 287 OFFCURVE",
"320 330 OFFCURVE",
"232 332 CURVE",
"230 296 LINE",
"387 475 LINE",
"387 552 LINE",
"60 552 LINE",
"60 452 LINE",
"245 452 LINE",
"134 321 LINE",
"134 240 LINE",
"198 242 LINE",
"261 244 OFFCURVE",
"300 230 OFFCURVE",
"300 155 CURVE SMOOTH",
"300 63 OFFCURVE",
"238 4 OFFCURVE",
"60 4 CURVE",
"60 -98 LINE"
);
}
);
width = 468;
}
);
unicode = 0033;
},
{
color = (255,5,0,1);
glyphname = four;
lastChange = "2016-07-28 01:42:37 +0000";
layers = (
{
background = {
paths = (
{
closed = 1;
nodes = (
"55 76 LINE",
"278 76 LINE",
"278 -90 LINE",
"348 -90 LINE",
"348 76 LINE",
"419 76 LINE",
"419 141 LINE",
"348 141 LINE",
"348 310 LINE",
"278 310 LINE",
"278 141 LINE",
"130 141 LINE",
"298 570 LINE",
"222 570 LINE",
"55 139 LINE"
);
}
);
};
layerId = UUID0;
paths = (
{
closed = 1;
nodes = (
"338 310 LINE",
"268 310 LINE",
"268 -90 LINE",
"338 -90 LINE"
);
},
{
closed = 1;
nodes = (
"130 161 LINE",
"298 570 LINE",
"222 570 LINE",
"55 159 LINE",
"55 96 LINE",
"419 96 LINE",
"419 161 LINE"
);
}
);
width = 468;
},
{
background = {
paths = (
{
closed = 1;
nodes = (
"55 96 LINE",
"268 96 LINE",
"268 -90 LINE",
"338 -90 LINE",
"338 96 LINE",
"419 96 LINE",
"419 161 LINE",
"338 161 LINE",
"338 310 LINE",
"268 310 LINE",
"268 161 LINE",
"130 161 LINE",
"298 570 LINE",
"222 570 LINE",
"55 159 LINE"
);
}
);
};
layerId = "B4604C5D-F439-46D0-AEF0-55E4508ED162";
paths = (
{
closed = 1;
nodes = (
"353 325 LINE",
"253 325 LINE",
"253 -90 LINE",
"353 -90 LINE"
);
},
{
closed = 1;
nodes = (
"153 176 LINE",
"321 585 LINE",
"212 585 LINE",
"40 163 LINE",
"40 81 LINE",
"434 81 LINE",
"434 176 LINE"
);
}
);
width = 468;
}
);
unicode = 0034;
},
{
color = (255,5,0,1);
glyphname = five;
lastChange = "2016-07-27 04:27:05 +0000";
layers = (
{
background = {
paths = (
{
closed = 1;
nodes = (
"398 245 OFFCURVE",
"299 301 OFFCURVE",
"196 301 CURVE SMOOTH",
"159 301 LINE",
"159 472 LINE",
"374 472 LINE",
"374 542 LINE",
"89 542 LINE",
"89 233 LINE",
"196 233 LINE SMOOTH",
"282 233 OFFCURVE",
"329 185 OFFCURVE",
"329 121 CURVE SMOOTH",
"329 -39 OFFCURVE",
"139 -20 OFFCURVE",
"89 -26 CURVE",
"89 -98 LINE",
"171 -93 OFFCURVE",
"398 -80 OFFCURVE",
"398 124 CURVE SMOOTH"
);
}
);
};
layerId = UUID0;
paths = (
{
closed = 1;
nodes = (
"89 542 LINE",
"374 542 LINE",
"374 472 LINE",
"159 472 LINE",
"159 324 LINE",
"223 324 LINE SMOOTH",
"302 324 OFFCURVE",
"398 276 OFFCURVE",
"398 149 CURVE SMOOTH",
"398 14 OFFCURVE",
"296 -98 OFFCURVE",
"89 -98 CURVE",
"89 -26 LINE",
"247 -26 OFFCURVE",
"329 43 OFFCURVE",
"329 149 CURVE SMOOTH",
"329 242 OFFCURVE",
"260 262 OFFCURVE",
"188 259 CURVE SMOOTH",
"89 255 LINE"
);
}
);
width = 468;
},
{
background = {
paths = (
{
closed = 1;
nodes = (
"89 542 LINE",
"374 542 LINE",
"374 472 LINE",
"159 472 LINE",
"159 324 LINE",
"223 324 LINE SMOOTH",
"302 324 OFFCURVE",
"398 276 OFFCURVE",
"398 149 CURVE SMOOTH",
"398 14 OFFCURVE",
"296 -98 OFFCURVE",
"89 -98 CURVE",
"89 -26 LINE",
"247 -26 OFFCURVE",
"329 43 OFFCURVE",
"329 149 CURVE SMOOTH",
"329 242 OFFCURVE",
"260 262 OFFCURVE",
"188 259 CURVE SMOOTH",
"89 255 LINE"
);
}
);
};
layerId = "B4604C5D-F439-46D0-AEF0-55E4508ED162";
paths = (
{
closed = 1;
nodes = (
"74 552 LINE",
"389 552 LINE",
"389 452 LINE",
"174 452 LINE",
"174 339 LINE",
"223 339 LINE",
"309 339 OFFCURVE",
"413 289 OFFCURVE",
"413 155 CURVE SMOOTH",
"413 17 OFFCURVE",
"301 -98 OFFCURVE",
"74 -98 CURVE",
"74 4 LINE",
"232 4 OFFCURVE",
"314 63 OFFCURVE",
"314 155 CURVE SMOOTH",
"314 230 OFFCURVE",
"252 247 OFFCURVE",
"188 244 CURVE",
"74 240 LINE"
);
}
);
width = 468;
}
);
unicode = 0035;
},
{
color = (255,0,65,1);
glyphname = six;
lastChange = "2016-07-27 04:27:05 +0000";
layers = (
{
background = {
paths = (
{
closed = 1;
nodes = (
"303 315 OFFCURVE",
"339 275 OFFCURVE",
"339 193 CURVE SMOOTH",
"339 116 OFFCURVE",
"304 58 OFFCURVE",
"230 58 CURVE SMOOTH",
"183 58 OFFCURVE",
"136 105 OFFCURVE",
"136 251 CURVE SMOOTH",
"136 513 OFFCURVE",
"238 556 OFFCURVE",
"390 556 CURVE",
"390 628 LINE",
"85 628 OFFCURVE",
"66 372 OFFCURVE",
"66 251 CURVE SMOOTH",
"66 31 OFFCURVE",
"163 -8 OFFCURVE",
"225 -8 CURVE SMOOTH",
"331 -8 OFFCURVE",
"410 74 OFFCURVE",
"410 194 CURVE SMOOTH",
"410 336 OFFCURVE",
"322 381 OFFCURVE",
"257 381 CURVE SMOOTH",
"155 381 OFFCURVE",
"116 306 OFFCURVE",
"116 306 CURVE",
"116 228 LINE",
"116 228 OFFCURVE",
"167 315 OFFCURVE",
"247 315 CURVE SMOOTH"
);
}
);
};
layerId = UUID0;
paths = (
{
closed = 1;
nodes = (
"303 315 OFFCURVE",
"339 275 OFFCURVE",
"339 193 CURVE SMOOTH",
"339 116 OFFCURVE",
"304 58 OFFCURVE",
"230 58 CURVE SMOOTH",
"183 58 OFFCURVE",
"134 105 OFFCURVE",
"134 251 CURVE SMOOTH",
"134 513 OFFCURVE",
"235 556 OFFCURVE",
"390 556 CURVE",
"390 628 LINE",
"85 628 OFFCURVE",
"66 372 OFFCURVE",
"66 251 CURVE SMOOTH",
"66 36 OFFCURVE",
"168 -8 OFFCURVE",
"225 -8 CURVE SMOOTH",
"331 -8 OFFCURVE",
"410 74 OFFCURVE",
"410 194 CURVE SMOOTH",
"410 336 OFFCURVE",
"322 381 OFFCURVE",
"257 381 CURVE SMOOTH",
"155 381 OFFCURVE",
"116 306 OFFCURVE",
"116 306 CURVE",
"116 228 LINE",
"116 228 OFFCURVE",
"167 315 OFFCURVE",
"247 315 CURVE SMOOTH"
);
}
);
width = 468;
},
{
background = {
paths = (
{
closed = 1;
nodes = (
"294 305 OFFCURVE",
"324 272 OFFCURVE",
"324 203 CURVE SMOOTH",
"324 138 OFFCURVE",
"294 88 OFFCURVE",
"230 88 CURVE SMOOTH",
"190 88 OFFCURVE",
"151 129 OFFCURVE",
"151 258 CURVE SMOOTH",
"151 497 OFFCURVE",
"253 536 OFFCURVE",
"405 536 CURVE",
"405 638 LINE",
"72 638 OFFCURVE",
"51 380 OFFCURVE",
"51 258 CURVE SMOOTH",
"51 32 OFFCURVE",
"157 -8 OFFCURVE",
"225 -8 CURVE SMOOTH",
"340 -8 OFFCURVE",
"425 77 OFFCURVE",
"425 202 CURVE SMOOTH",
"425 352 OFFCURVE",
"328 401 OFFCURVE",
"257 401 CURVE SMOOTH",
"146 401 OFFCURVE",
"101 314 OFFCURVE",
"101 314 CURVE",
"101 222 LINE",
"101 222 OFFCURVE",
"176 305 OFFCURVE",
"247 305 CURVE"
);
}
);
};
layerId = "B4604C5D-F439-46D0-AEF0-55E4508ED162";
paths = (
{
closed = 1;
nodes = (
"294 305 OFFCURVE",
"324 272 OFFCURVE",
"324 203 CURVE SMOOTH",
"324 138 OFFCURVE",
"294 88 OFFCURVE",
"230 88 CURVE SMOOTH",
"190 88 OFFCURVE",
"149 129 OFFCURVE",
"149 258 CURVE SMOOTH",
"149 497 OFFCURVE",
"248 536 OFFCURVE",
"405 536 CURVE",
"405 638 LINE",
"72 638 OFFCURVE",
"51 380 OFFCURVE",
"51 258 CURVE SMOOTH",
"51 37 OFFCURVE",
"162 -8 OFFCURVE",
"225 -8 CURVE SMOOTH",
"340 -8 OFFCURVE",
"425 77 OFFCURVE",
"425 202 CURVE SMOOTH",
"425 352 OFFCURVE",
"328 401 OFFCURVE",
"257 401 CURVE SMOOTH",
"146 401 OFFCURVE",
"101 314 OFFCURVE",
"101 314 CURVE",
"101 222 LINE",
"101 222 OFFCURVE",
"176 305 OFFCURVE",
"247 305 CURVE"
);
}
);
width = 468;
}
);
unicode = 0036;
},
{
color = (255,5,0,1);
glyphname = seven;
lastChange = "2016-07-27 04:27:05 +0000";
layers = (
{
background = {
paths = (
{
closed = 1;
nodes = (
"69 472 LINE",
"324 472 LINE",
"324 472 OFFCURVE",
"154 196 OFFCURVE",
"154 10 CURVE SMOOTH",
"154 -90 LINE",
"229 -90 LINE",
"229 0 LINE SMOOTH",
"229 186 OFFCURVE",
"397 461 OFFCURVE",
"397 461 CURVE",
"397 542 LINE",
"69 542 LINE"
);
}
);
};
layerId = UUID0;
paths = (
{
closed = 1;
nodes = (
"69 472 LINE",
"324 472 LINE",
"324 472 OFFCURVE",
"157 196 OFFCURVE",
"157 10 CURVE SMOOTH",
"157 -90 LINE",
"229 -90 LINE",
"229 0 LINE SMOOTH",
"229 186 OFFCURVE",
"397 461 OFFCURVE",
"397 461 CURVE",
"397 542 LINE",
"69 542 LINE"
);
}
);
width = 468;
},
{
background = {
paths = (
{
closed = 1;
nodes = (
"69 472 LINE",
"324 472 LINE",
"324 472 OFFCURVE",
"154 196 OFFCURVE",
"154 10 CURVE SMOOTH",
"154 -90 LINE",
"229 -90 LINE",
"229 0 LINE SMOOTH",
"229 186 OFFCURVE",
"397 461 OFFCURVE",
"397 461 CURVE",
"397 542 LINE",
"69 542 LINE"
);
}
);
};
layerId = "B4604C5D-F439-46D0-AEF0-55E4508ED162";
paths = (
{
closed = 1;
nodes = (
"54 452 LINE",
"297 452 LINE",
"297 452 OFFCURVE",
"142 168 OFFCURVE",
"142 10 CURVE",
"142 -90 LINE",
"244 -90 LINE",
"244 0 LINE",
"244 181 OFFCURVE",
"412 451 OFFCURVE",
"412 451 CURVE",
"412 552 LINE",
"54 552 LINE"
);
}
);
width = 468;
}
);
unicode = 0037;
},
{
color = (255,5,0,1);
glyphname = eight;
lastChange = "2016-07-27 04:27:05 +0000";
layers = (
{
background = {
paths = (
{
closed = 1;
nodes = (
"346 -8 OFFCURVE",
"405 84 OFFCURVE",
"405 151 CURVE SMOOTH",
"405 226 OFFCURVE",
"352 278 OFFCURVE",
"291 321 CURVE",
"346 361 OFFCURVE",
"391 408 OFFCURVE",
"391 481 CURVE SMOOTH",
"391 559 OFFCURVE",
"326 628 OFFCURVE",
"234 628 CURVE SMOOTH",
"139 628 OFFCURVE",
"77 540 OFFCURVE",
"77 481 CURVE SMOOTH",
"77 407 OFFCURVE",
"121 357 OFFCURVE",
"175 316 CURVE",
"115 275 OFFCURVE",
"63 226 OFFCURVE",
"63 151 CURVE SMOOTH",
"63 84 OFFCURVE",
"122 -8 OFFCURVE",
"234 -8 CURVE SMOOTH"
);
},
{
closed = 1;
nodes = (
"165 63 OFFCURVE",
"133 121 OFFCURVE",
"133 163 CURVE SMOOTH",
"133 212 OFFCURVE",
"176 247 OFFCURVE",
"229 282 CURVE",
"286 245 OFFCURVE",
"335 210 OFFCURVE",
"335 163 CURVE SMOOTH",
"335 121 OFFCURVE",
"303 63 OFFCURVE",
"234 63 CURVE SMOOTH"
);
},
{
closed = 1;
nodes = (
"321 422 OFFCURVE",
"285 383 OFFCURVE",
"237 351 CURVE",
"186 385 OFFCURVE",
"147 424 OFFCURVE",
"147 469 CURVE SMOOTH",
"147 499 OFFCURVE",
"167 561 OFFCURVE",
"234 561 CURVE SMOOTH",
"301 561 OFFCURVE",
"321 499 OFFCURVE",
"321 469 CURVE SMOOTH"
);
}
);
};
layerId = UUID0;
paths = (
{
closed = 1;
nodes = (
"405 75 OFFCURVE",
"346 -8 OFFCURVE",
"234 -8 CURVE SMOOTH",
"122 -8 OFFCURVE",
"63 75 OFFCURVE",
"63 162 CURVE SMOOTH",
"63 322 OFFCURVE",
"321 333 OFFCURVE",
"321 481 CURVE SMOOTH",
"321 515 OFFCURVE",
"301 562 OFFCURVE",
"234 562 CURVE SMOOTH",
"167 562 OFFCURVE",
"147 515 OFFCURVE",
"147 481 CURVE SMOOTH",
"147 347 OFFCURVE",
"405 312 OFFCURVE",
"405 162 CURVE SMOOTH"
);
},
{
closed = 1;
nodes = (
"77 539 OFFCURVE",
"139 628 OFFCURVE",
"234 628 CURVE SMOOTH",
"326 628 OFFCURVE",
"391 561 OFFCURVE",
"391 472 CURVE SMOOTH",
"391 308 OFFCURVE",
"133 285 OFFCURVE",
"133 153 CURVE SMOOTH",
"133 105 OFFCURVE",
"165 58 OFFCURVE",
"234 58 CURVE SMOOTH",
"303 58 OFFCURVE",
"335 105 OFFCURVE",
"335 153 CURVE SMOOTH",
"335 279 OFFCURVE",
"77 303 OFFCURVE",
"77 472 CURVE SMOOTH"
);
}
);
width = 468;
},
{
background = {
paths = (
{
closed = 1;
nodes = (
"405 75 OFFCURVE",
"346 -8 OFFCURVE",
"234 -8 CURVE SMOOTH",
"122 -8 OFFCURVE",
"63 75 OFFCURVE",
"63 162 CURVE SMOOTH",
"63 322 OFFCURVE",
"321 333 OFFCURVE",
"321 481 CURVE SMOOTH",
"321 515 OFFCURVE",
"301 562 OFFCURVE",
"234 562 CURVE SMOOTH",
"167 562 OFFCURVE",
"147 515 OFFCURVE",
"147 481 CURVE SMOOTH",
"147 347 OFFCURVE",
"405 312 OFFCURVE",
"405 162 CURVE SMOOTH"
);
},
{
closed = 1;
nodes = (
"77 539 OFFCURVE",
"139 628 OFFCURVE",
"234 628 CURVE SMOOTH",
"326 628 OFFCURVE",
"391 561 OFFCURVE",
"391 472 CURVE SMOOTH",
"391 308 OFFCURVE",
"133 285 OFFCURVE",
"133 153 CURVE SMOOTH",
"133 105 OFFCURVE",
"165 58 OFFCURVE",
"234 58 CURVE SMOOTH",
"303 58 OFFCURVE",
"335 105 OFFCURVE",
"335 153 CURVE SMOOTH",
"335 279 OFFCURVE",
"77 303 OFFCURVE",
"77 472 CURVE SMOOTH"
);
},
{
closed = 1;
nodes = (
"162 455 OFFCURVE",
"196 420 OFFCURVE",
"236 388 CURVE",
"276 417 OFFCURVE",
"306 450 OFFCURVE",
"306 496 CURVE SMOOTH",
"306 524 OFFCURVE",
"289 562 OFFCURVE",
"234 562 CURVE SMOOTH",
"179 562 OFFCURVE",
"162 524 OFFCURVE",
"162 496 CURVE SMOOTH"
);
},
{
closed = 1;
nodes = (
"420 82 OFFCURVE",
"356 -8 OFFCURVE",
"234 -8 CURVE SMOOTH",
"112 -8 OFFCURVE",
"48 82 OFFCURVE",
"48 177 CURVE SMOOTH",
"48 268 OFFCURVE",
"119 312 OFFCURVE",
"188 356 CURVE SMOOTH",
"204 366 OFFCURVE",
"221 377 OFFCURVE",
"236 388 CURVE",
"279 358 LINE",
"347 312 OFFCURVE",
"420 259 OFFCURVE",
"420 177 CURVE SMOOTH"
);
},
{
closed = 1;
nodes = (
"320 211 OFFCURVE",
"277 245 OFFCURVE",
"230 277 CURVE",
"185 246 OFFCURVE",
"148 212 OFFCURVE",
"148 168 CURVE SMOOTH",
"148 128 OFFCURVE",
"175 88 OFFCURVE",
"234 88 CURVE SMOOTH",
"293 88 OFFCURVE",
"320 128 OFFCURVE",
"320 168 CURVE SMOOTH"
);
},
{
closed = 1;
nodes = (
"62 560 OFFCURVE",
"130 658 OFFCURVE",
"234 658 CURVE SMOOTH",
"335 658 OFFCURVE",
"406 585 OFFCURVE",
"406 487 CURVE SMOOTH",
"406 393 OFFCURVE",
"331 343 OFFCURVE",
"260 296 CURVE SMOOTH",
"250 289 OFFCURVE",
"240 283 OFFCURVE",
"230 277 CURVE",
"212 289 LINE",
"142 335 OFFCURVE",
"62 390 OFFCURVE",
"62 487 CURVE SMOOTH"
);
}
);
};
layerId = "B4604C5D-F439-46D0-AEF0-55E4508ED162";
paths = (
{
closed = 1;
nodes = (
"420 79 OFFCURVE",
"356 -8 OFFCURVE",
"234 -8 CURVE SMOOTH",
"112 -8 OFFCURVE",
"48 79 OFFCURVE",
"48 171 CURVE SMOOTH",
"48 336 OFFCURVE",
"306 344 OFFCURVE",
"306 478 CURVE SMOOTH",
"306 505 OFFCURVE",
"289 542 OFFCURVE",
"234 542 CURVE SMOOTH",
"179 542 OFFCURVE",
"162 505 OFFCURVE",
"162 478 CURVE SMOOTH",
"162 363 OFFCURVE",
"420 320 OFFCURVE",
"420 171 CURVE SMOOTH"
);
},
{
closed = 1;
nodes = (
"62 543 OFFCURVE",
"130 638 OFFCURVE",
"234 638 CURVE SMOOTH",
"335 638 OFFCURVE",
"406 568 OFFCURVE",
"406 473 CURVE SMOOTH",
"406 302 OFFCURVE",
"148 285 OFFCURVE",
"148 165 CURVE SMOOTH",
"148 127 OFFCURVE",
"175 88 OFFCURVE",
"234 88 CURVE SMOOTH",
"293 88 OFFCURVE",
"320 127 OFFCURVE",
"320 165 CURVE SMOOTH",
"320 271 OFFCURVE",
"62 302 OFFCURVE",
"62 473 CURVE SMOOTH"
);
}
);
width = 468;
}
);
unicode = 0038;
},
{
color = (255,5,0,1);
glyphname = nine;
lastChange = "2016-07-27 04:27:05 +0000";
layers = (
{
background = {
paths = (
{
closed = 1;
nodes = (
"169 235 OFFCURVE",
"133 275 OFFCURVE",
"133 357 CURVE SMOOTH",
"133 434 OFFCURVE",
"168 492 OFFCURVE",
"242 492 CURVE SMOOTH",
"289 492 OFFCURVE",
"336 445 OFFCURVE",
"336 299 CURVE SMOOTH",
"336 20 OFFCURVE",
"264 -26 OFFCURVE",
"92 -26 CURVE",
"92 -98 LINE",
"397 -98 OFFCURVE",
"406 118 OFFCURVE",
"406 299 CURVE SMOOTH",
"406 519 OFFCURVE",
"309 558 OFFCURVE",
"247 558 CURVE SMOOTH",
"141 558 OFFCURVE",
"62 476 OFFCURVE",
"62 356 CURVE SMOOTH",
"62 214 OFFCURVE",
"150 169 OFFCURVE",
"215 169 CURVE SMOOTH",
"317 169 OFFCURVE",
"356 244 OFFCURVE",
"356 244 CURVE",
"356 322 LINE",
"356 322 OFFCURVE",
"305 235 OFFCURVE",
"225 235 CURVE"
);
}
);
};
layerId = UUID0;
paths = (
{
closed = 1;
nodes = (
"169 235 OFFCURVE",
"133 275 OFFCURVE",
"133 357 CURVE SMOOTH",
"133 434 OFFCURVE",
"168 492 OFFCURVE",
"242 492 CURVE SMOOTH",
"289 492 OFFCURVE",
"338 445 OFFCURVE",
"338 299 CURVE SMOOTH",
"338 18 OFFCURVE",
"267 -26 OFFCURVE",
"92 -26 CURVE",
"92 -98 LINE",
"397 -98 OFFCURVE",
"406 118 OFFCURVE",
"406 299 CURVE SMOOTH",
"406 514 OFFCURVE",
"304 558 OFFCURVE",
"247 558 CURVE SMOOTH",
"141 558 OFFCURVE",
"62 476 OFFCURVE",
"62 356 CURVE SMOOTH",
"62 214 OFFCURVE",
"150 169 OFFCURVE",
"215 169 CURVE SMOOTH",
"317 169 OFFCURVE",
"356 244 OFFCURVE",
"356 244 CURVE",
"356 322 LINE",
"356 322 OFFCURVE",
"305 235 OFFCURVE",
"225 235 CURVE"
);
}
);
width = 468;
},
{
background = {
paths = (
{
closed = 1;
nodes = (
"178 255 OFFCURVE",
"148 288 OFFCURVE",
"148 357 CURVE SMOOTH",
"148 422 OFFCURVE",
"178 472 OFFCURVE",
"242 472 CURVE SMOOTH",
"281 472 OFFCURVE",
"321 431 OFFCURVE",
"321 301 CURVE SMOOTH",
"321 46 OFFCURVE",
"249 4 OFFCURVE",
"77 4 CURVE",
"77 -98 LINE",
"411 -98 OFFCURVE",
"421 119 OFFCURVE",
"421 302 CURVE SMOOTH",
"421 528 OFFCURVE",
"315 568 OFFCURVE",
"247 568 CURVE SMOOTH",
"132 568 OFFCURVE",
"47 483 OFFCURVE",
"47 358 CURVE SMOOTH",
"47 208 OFFCURVE",
"144 159 OFFCURVE",
"215 159 CURVE SMOOTH",
"326 159 OFFCURVE",
"371 246 OFFCURVE",
"371 246 CURVE",
"371 338 LINE",
"371 338 OFFCURVE",
"296 255 OFFCURVE",
"225 255 CURVE"
);
}
);
};
layerId = "B4604C5D-F439-46D0-AEF0-55E4508ED162";
paths = (
{
closed = 1;
nodes = (
"178 255 OFFCURVE",
"148 288 OFFCURVE",
"148 357 CURVE SMOOTH",
"148 422 OFFCURVE",
"178 472 OFFCURVE",
"242 472 CURVE SMOOTH",
"281 472 OFFCURVE",
"323 431 OFFCURVE",
"323 301 CURVE SMOOTH",
"323 46 OFFCURVE",
"254 4 OFFCURVE",
"77 4 CURVE",
"77 -98 LINE",
"411 -98 OFFCURVE",
"421 119 OFFCURVE",
"421 302 CURVE SMOOTH",
"421 523 OFFCURVE",
"310 568 OFFCURVE",
"247 568 CURVE SMOOTH",
"132 568 OFFCURVE",
"47 483 OFFCURVE",
"47 358 CURVE SMOOTH",
"47 208 OFFCURVE",
"144 159 OFFCURVE",
"215 159 CURVE SMOOTH",
"326 159 OFFCURVE",
"371 246 OFFCURVE",
"371 246 CURVE",
"371 338 LINE",
"371 338 OFFCURVE",
"296 255 OFFCURVE",
"225 255 CURVE"
);
}
);
width = 468;
}
);
unicode = 0039;
},
{
color = (235,0,255,1);
glyphname = asterisk;
lastChange = "2016-07-27 04:27:05 +0000";
layers = (
{
background = {
paths = (
{
closed = 1;
nodes = (
"156 434 LINE",
"193 528 LINE",
"256 449 LINE",
"303 486 LINE",
"240 565 LINE",
"337 579 LINE",
"328 638 LINE",
"304 634 OFFCURVE",
"267 629 OFFCURVE",
"231 624 CURVE",
"266 711 LINE",
"210 733 LINE",
"175 646 LINE",
"117 719 LINE",
"70 682 LINE",
"128 609 LINE",
"33 596 LINE",
"42 536 LINE",
"137 550 LINE",
"100 457 LINE"
);
}
);
};
layerId = UUID0;
paths = (
{
closed = 1;
nodes = (
"156 434 LINE",
"191 537 LINE",
"256 449 LINE",
"303 486 LINE",
"229 568 LINE",
"337 579 LINE",
"328 638 LINE",
"304 634 OFFCURVE",
"251 623 OFFCURVE",
"222 619 CURVE",
"266 711 LINE",
"210 733 LINE",
"177 638 LINE",
"117 719 LINE",
"70 682 LINE",
"139 606 LINE",
"33 596 LINE",
"42 536 LINE",
"146 555 LINE",
"100 457 LINE"
);
}
);
width = 372;
},
{
background = {
paths = (
{
closed = 1;
nodes = (
"156 434 LINE",
"193 528 LINE",
"256 449 LINE",
"303 486 LINE",
"240 565 LINE",
"337 579 LINE",
"328 638 LINE",
"304 634 OFFCURVE",
"267 629 OFFCURVE",
"231 624 CURVE",
"266 711 LINE",
"210 733 LINE",
"175 646 LINE",
"117 719 LINE",
"70 682 LINE",
"128 609 LINE",
"33 596 LINE",
"42 536 LINE",
"137 550 LINE",
"100 457 LINE"
);
},
{
closed = 1;
nodes = (
"164 414 LINE",
"195 508 LINE",
"253 428 LINE",
"324 483 LINE",
"258 558 LINE",
"354 566 LINE",
"340 655 LINE",
"319 652 OFFCURVE",
"278 639 OFFCURVE",
"246 635 CURVE",
"285 719 LINE",
"201 752 LINE",
"172 666 LINE",
"119 740 LINE",
"49 684 LINE",
"109 615 LINE",
"16 609 LINE",
"29 519 LINE",
"118 535 LINE",
"80 448 LINE"
);
}
);
};
layerId = "B4604C5D-F439-46D0-AEF0-55E4508ED162";
paths = (
{
closed = 1;
nodes = (
"164 414 LINE",
"194 519 LINE",
"253 428 LINE",
"324 483 LINE",
"248 562 LINE",
"354 566 LINE",
"340 655 LINE",
"319 652 OFFCURVE",
"265 632 OFFCURVE",
"238 629 CURVE",
"285 719 LINE",
"201 752 LINE",
"174 655 LINE",
"119 740 LINE",
"49 684 LINE",
"119 611 LINE",
"16 609 LINE",
"29 519 LINE",
"127 542 LINE",
"80 448 LINE"
);
}
);
width = 372;
}
);
unicode = 002A;
},
{
color = (31,255,0,1);
glyphname = backslash;
lastChange = "2016-07-27 04:27:05 +0000";
layers = (
{
layerId = UUID0;
paths = (
{
closed = 1;
nodes = (
"181 -158 LINE",
"239 -158 LINE",
"59 760 LINE",
"1 760 LINE"
);
}
);
width = 240;
},
{
background = {
paths = (
{
closed = 1;
nodes = (
"181 -158 LINE",
"239 -158 LINE",
"59 760 LINE",
"1 760 LINE"
);
}
);
};
layerId = "B4604C5D-F439-46D0-AEF0-55E4508ED162";
paths = (
{
closed = 1;
nodes = (
"166 -158 LINE",
"259 -158 LINE",
"79 760 LINE",
"-14 760 LINE"
);
}
);
width = 240;
}
);
unicode = 005C;
},
{
color = (235,0,255,1);
glyphname = bullet;
lastChange = "2016-07-27 04:27:05 +0000";
layers = (
{
layerId = UUID0;
paths = (
{
closed = 1;
nodes = (
"110 275 OFFCURVE",
"155 230 OFFCURVE",
"210 230 CURVE SMOOTH",
"265 230 OFFCURVE",
"310 275 OFFCURVE",
"310 330 CURVE SMOOTH",
"310 385 OFFCURVE",
"265 430 OFFCURVE",
"210 430 CURVE SMOOTH",
"155 430 OFFCURVE",
"110 385 OFFCURVE",
"110 330 CURVE SMOOTH"
);
}
);
width = 419;
},
{
layerId = "B4604C5D-F439-46D0-AEF0-55E4508ED162";
paths = (
{
closed = 1;
nodes = (
"95 267 OFFCURVE",
"147 215 OFFCURVE",
"210 215 CURVE SMOOTH",
"273 215 OFFCURVE",
"325 267 OFFCURVE",
"325 330 CURVE SMOOTH",
"325 393 OFFCURVE",
"273 445 OFFCURVE",
"210 445 CURVE SMOOTH",
"147 445 OFFCURVE",
"95 393 OFFCURVE",
"95 330 CURVE SMOOTH"
);
}
);
width = 419;
}
);
unicode = 2022;
},
{
color = (31,255,0,1);
glyphname = colon;
lastChange = "2016-07-27 04:27:05 +0000";
layers = (
{
layerId = UUID0;
paths = (
{
closed = 1;
nodes = (
"115 0 LINE",
"205 0 LINE",
"205 100 LINE",
"115 100 LINE"
);
},
{
closed = 1;
nodes = (
"115 330 LINE",
"205 330 LINE",
"205 430 LINE",
"115 430 LINE"
);
}
);
width = 320;
},
{
background = {
paths = (
{
closed = 1;
nodes = (
"115 0 LINE",
"205 0 LINE",
"205 100 LINE",
"115 100 LINE"
);
},
{
closed = 1;
nodes = (
"115 330 LINE",
"205 330 LINE",
"205 430 LINE",
"115 430 LINE"
);
}
);
};
layerId = "B4604C5D-F439-46D0-AEF0-55E4508ED162";
paths = (
{
closed = 1;
nodes = (
"100 0 LINE",
"220 0 LINE",
"220 130 LINE",
"100 130 LINE"
);
},
{
closed = 1;
nodes = (
"100 308 LINE",
"220 308 LINE",
"220 438 LINE",
"100 438 LINE"
);
}
);
width = 320;
}
);
unicode = 003A;
},
{
color = (31,255,0,1);
glyphname = comma;
lastChange = "2016-07-27 04:27:05 +0000";
layers = (
{
layerId = UUID0;
paths = (
{
closed = 1;
nodes = (
"17 -115 LINE",
"77 -115 LINE",
"145 93 LINE",
"65 93 LINE"
);
}
);
width = 204;
},
{
background = {
paths = (
{
closed = 1;
nodes = (
"17 -115 LINE",
"77 -115 LINE",
"145 93 LINE",
"65 93 LINE"
);
}
);
};
layerId = "B4604C5D-F439-46D0-AEF0-55E4508ED162";
paths = (
{
closed = 1;
nodes = (
"-2 -115 LINE",
"88 -115 LINE",
"165 123 LINE",
"53 123 LINE"
);
}
);
width = 204;
}
);
unicode = 002C;
},
{
color = (31,255,0,1);
glyphname = ellipsis;
lastChange = "2016-07-27 04:27:05 +0000";
layers = (
{
layerId = UUID0;
paths = (
{
closed = 1;
nodes = (
"60 0 LINE",
"150 0 LINE",
"150 100 LINE",
"60 100 LINE"
);
},
{
closed = 1;
nodes = (
"290 0 LINE",
"380 0 LINE",
"380 100 LINE",
"290 100 LINE"
);
},
{
closed = 1;
nodes = (
"520 0 LINE",
"610 0 LINE",
"610 100 LINE",
"520 100 LINE"
);
}
);
width = 677;
},
{
background = {
paths = (
{
closed = 1;
nodes = (
"60 0 LINE",
"150 0 LINE",
"150 100 LINE",
"60 100 LINE"
);
},
{
closed = 1;
nodes = (
"290 0 LINE",
"380 0 LINE",
"380 100 LINE",
"290 100 LINE"
);
},
{
closed = 1;
nodes = (
"520 0 LINE",
"610 0 LINE",
"610 100 LINE",
"520 100 LINE"
);
}
);
};
layerId = "B4604C5D-F439-46D0-AEF0-55E4508ED162";
paths = (
{
closed = 1;
nodes = (
"45 0 LINE",
"165 0 LINE",
"165 130 LINE",
"45 130 LINE"
);
},
{
closed = 1;
nodes = (
"275 0 LINE",
"395 0 LINE",
"395 130 LINE",
"275 130 LINE"
);
},
{
closed = 1;
nodes = (
"505 0 LINE",
"625 0 LINE",
"625 130 LINE",
"505 130 LINE"
);
}
);
width = 677;
}
);
unicode = 2026;
},
{
color = (31,255,0,1);
glyphname = exclam;
lastChange = "2016-07-27 04:27:05 +0000";
layers = (
{
layerId = UUID0;
paths = (
{
closed = 1;
nodes = (
"194 680 LINE",
"126 680 LINE",
"126 180 LINE",
"194 180 LINE"
);
},
{
closed = 1;
nodes = (
"115 0 LINE",
"205 0 LINE",
"205 100 LINE",
"115 100 LINE"
);
}
);
width = 320;
},
{
background = {
paths = (
{
closed = 1;
nodes = (
"194 680 LINE",
"126 680 LINE",
"126 180 LINE",
"194 180 LINE"
);
},
{
closed = 1;
nodes = (
"115 0 LINE",
"205 0 LINE",
"205 100 LINE",
"115 100 LINE"
);
}
);
};
layerId = "B4604C5D-F439-46D0-AEF0-55E4508ED162";
paths = (
{
closed = 1;
nodes = (
"209 680 LINE",
"111 680 LINE",
"111 195 LINE",
"209 195 LINE"
);
},
{
closed = 1;
nodes = (
"100 0 LINE",
"220 0 LINE",
"220 130 LINE",
"100 130 LINE"
);
}
);
width = 320;
}
);
unicode = 0021;
},
{
color = (235,0,255,1);
glyphname = exclamdown;
lastChange = "2016-07-28 01:43:00 +0000";
layers = (
{
layerId = UUID0;
paths = (
{
closed = 1;
nodes = (
"194 -250 LINE",
"194 250 LINE",
"126 250 LINE",
"126 -250 LINE"
);
},
{
closed = 1;
nodes = (
"205 330 LINE",
"205 430 LINE",
"115 430 LINE",
"115 330 LINE"
);
}
);
width = 320;
},
{
layerId = "B4604C5D-F439-46D0-AEF0-55E4508ED162";
paths = (
{
closed = 1;
nodes = (
"209 -250 LINE",
"209 243 LINE",
"111 243 LINE",
"111 -250 LINE"
);
},
{
closed = 1;
nodes = (
"220 308 LINE",
"220 438 LINE",
"100 438 LINE",
"100 308 LINE"
);
}
);
width = 320;
}
);
unicode = 00A1;
},
{
color = (235,0,255,1);
glyphname = numbersign;
lastChange = "2016-07-27 04:27:05 +0000";
layers = (
{
background = {
paths = (
{
closed = 1;
nodes = (
"270 670 LINE",
"209 670 LINE",
"99 0 LINE",
"160 0 LINE"
);
},
{
closed = 1;
nodes = (
"409 670 LINE",
"299 0 LINE",
"360 0 LINE",
"470 670 LINE"
);
},
{
closed = 1;
nodes = (
"76 407 LINE",
"512 407 LINE",
"512 463 LINE",
"76 463 LINE"
);
},
{
closed = 1;
nodes = (
"52 207 LINE",
"488 207 LINE",
"488 263 LINE",
"52 263 LINE"
);
}
);
};
layerId = UUID0;
paths = (
{
closed = 1;
nodes = (
"255 580 LINE",
"194 580 LINE",
"94 -30 LINE",
"155 -30 LINE"
);
},
{
closed = 1;
nodes = (
"394 580 LINE",
"294 -30 LINE",
"355 -30 LINE",
"455 580 LINE"
);
},
{
closed = 1;
nodes = (
"36 147 LINE",
"483 147 LINE",
"483 203 LINE",
"36 203 LINE"
);
},
{
closed = 1;
nodes = (
"66 352 LINE",
"514 352 LINE",
"514 407 LINE",
"66 407 LINE"
);
}
);
width = 564;
},
{
background = {
paths = (
{
closed = 1;
nodes = (
"37 192 LINE",
"115 192 LINE",
"83 0 LINE",
"175 0 LINE",
"207 192 LINE",
"315 192 LINE",
"283 0 LINE",
"375 0 LINE",
"407 192 LINE",
"503 192 LINE",
"503 278 LINE",
"420 278 LINE",
"439 392 LINE",
"527 392 LINE",
"527 478 LINE",
"453 478 LINE",
"485 670 LINE",
"393 670 LINE",
"362 478 LINE",
"253 478 LINE",
"285 670 LINE",
"193 670 LINE",
"162 478 LINE",
"61 478 LINE",
"61 392 LINE",
"147 392 LINE",
"129 278 LINE",
"37 278 LINE"
);
},
{
closed = 1;
nodes = (
"239 393 LINE",
"347 393 LINE",
"329 277 LINE",
"220 277 LINE"
);
}
);
};
layerId = "B4604C5D-F439-46D0-AEF0-55E4508ED162";
paths = (
{
closed = 1;
nodes = (
"270 580 LINE",
"179 580 LINE",
"79 -30 LINE",
"170 -30 LINE"
);
},
{
closed = 1;
nodes = (
"379 580 LINE",
"279 -30 LINE",
"370 -30 LINE",
"470 580 LINE"
);
},
{
closed = 1;
nodes = (
"36 132 LINE",
"483 132 LINE",
"483 218 LINE",
"36 218 LINE"
);
},
{
closed = 1;
nodes = (
"66 337 LINE",
"514 337 LINE",
"514 422 LINE",
"66 422 LINE"
);
}
);
width = 564;
}
);
unicode = 0023;
},
{
color = (31,255,0,1);
glyphname = period;
lastChange = "2016-07-27 04:27:05 +0000";
layers = (
{
layerId = UUID0;
paths = (
{
closed = 1;
nodes = (
"60 0 LINE",
"150 0 LINE",
"150 100 LINE",
"60 100 LINE"
);
}
);
width = 210;
},
{
background = {
paths = (
{
closed = 1;
nodes = (
"60 0 LINE",
"150 0 LINE",
"150 100 LINE",
"60 100 LINE"
);
}
);
};
layerId = "B4604C5D-F439-46D0-AEF0-55E4508ED162";
paths = (
{
closed = 1;
nodes = (
"45 0 LINE",
"165 0 LINE",
"165 130 LINE",
"45 130 LINE"
);
}
);
width = 210;
}
);
unicode = 002E;
},
{
color = (31,255,0,1);
glyphname = question;
lastChange = "2016-07-27 04:27:05 +0000";
layers = (
{
layerId = UUID0;
paths = (
{
closed = 1;
nodes = (
"40 587 LINE",
"40 587 OFFCURVE",
"113 633 OFFCURVE",
"190 633 CURVE SMOOTH",
"208 633 OFFCURVE",
"224 630 OFFCURVE",
"238 624 CURVE SMOOTH",
"279 607 OFFCURVE",
"301 570 OFFCURVE",
"301 539 CURVE SMOOTH",
"301 436 OFFCURVE",
"126 322 OFFCURVE",
"126 221 CURVE SMOOTH",
"126 180 LINE",
"194 180 LINE",
"194 219 LINE SMOOTH",
"194 291 OFFCURVE",
"333 394 OFFCURVE",
"363 499 CURVE SMOOTH",
"367 512 OFFCURVE",
"369 525 OFFCURVE",
"369 538 CURVE SMOOTH",
"369 640 OFFCURVE",
"287 700 OFFCURVE",
"190 700 CURVE SMOOTH",
"115 700 OFFCURVE",
"40 660 OFFCURVE",
"40 660 CURVE"
);
},
{
closed = 1;
nodes = (
"115 0 LINE",
"205 0 LINE",
"205 100 LINE",
"115 100 LINE"
);
}
);
width = 382;
},
{
background = {
paths = (
{
closed = 1;
nodes = (
"40 587 LINE",
"40 587 OFFCURVE",
"113 633 OFFCURVE",
"190 633 CURVE SMOOTH",
"208 633 OFFCURVE",
"224 630 OFFCURVE",
"238 624 CURVE SMOOTH",
"279 607 OFFCURVE",
"301 570 OFFCURVE",
"301 539 CURVE SMOOTH",
"301 436 OFFCURVE",
"126 322 OFFCURVE",
"126 221 CURVE SMOOTH",
"126 180 LINE",
"194 180 LINE",
"194 219 LINE SMOOTH",
"194 291 OFFCURVE",
"333 394 OFFCURVE",
"363 499 CURVE SMOOTH",
"367 512 OFFCURVE",
"369 525 OFFCURVE",
"369 538 CURVE SMOOTH",
"369 640 OFFCURVE",
"287 700 OFFCURVE",
"190 700 CURVE SMOOTH",
"115 700 OFFCURVE",
"40 660 OFFCURVE",
"40 660 CURVE"
);
},
{
closed = 1;
nodes = (
"115 0 LINE",
"205 0 LINE",
"205 100 LINE",
"115 100 LINE"
);
}
);
};
layerId = "B4604C5D-F439-46D0-AEF0-55E4508ED162";
paths = (
{
closed = 1;
nodes = (
"25 545 LINE",
"25 545 OFFCURVE",
"97 590 OFFCURVE",
"167 599 CURVE SMOOTH",
"184 601 OFFCURVE",
"200 601 OFFCURVE",
"214 598 CURVE SMOOTH",
"261 590 OFFCURVE",
"281 554 OFFCURVE",
"281 524 CURVE SMOOTH",
"281 431 OFFCURVE",
"111 324 OFFCURVE",
"111 226 CURVE SMOOTH",
"111 195 LINE",
"209 195 LINE",
"209 224 LINE SMOOTH",
"209 288 OFFCURVE",
"361 395 OFFCURVE",
"376 503 CURVE SMOOTH",
"378 518 OFFCURVE",
"378 533 OFFCURVE",
"376 547 CURVE SMOOTH",
"366 644 OFFCURVE",
"287 700 OFFCURVE",
"190 700 CURVE SMOOTH",
"112 700 OFFCURVE",
"25 653 OFFCURVE",
"25 653 CURVE"
);
},
{
closed = 1;
nodes = (
"100 0 LINE",
"220 0 LINE",
"220 130 LINE",
"100 130 LINE"
);
}
);
width = 382;
}
);
unicode = 003F;
},
{
color = (235,0,255,1);
glyphname = questiondown;
lastChange = "2016-07-27 04:27:05 +0000";
layers = (
{
layerId = UUID0;
paths = (
{
closed = 1;
nodes = (
"349 -157 LINE",
"349 -157 OFFCURVE",
"276 -203 OFFCURVE",
"199 -203 CURVE SMOOTH",
"181 -203 OFFCURVE",
"165 -200 OFFCURVE",
"151 -194 CURVE SMOOTH",
"110 -177 OFFCURVE",
"88 -140 OFFCURVE",
"88 -109 CURVE SMOOTH",
"88 -6 OFFCURVE",
"263 108 OFFCURVE",
"263 209 CURVE SMOOTH",
"263 250 LINE",
"195 250 LINE",
"195 211 LINE SMOOTH",
"195 139 OFFCURVE",
"56 36 OFFCURVE",
"26 -69 CURVE SMOOTH",
"22 -82 OFFCURVE",
"20 -95 OFFCURVE",
"20 -108 CURVE SMOOTH",
"20 -210 OFFCURVE",
"102 -270 OFFCURVE",
"199 -270 CURVE SMOOTH",
"274 -270 OFFCURVE",
"349 -230 OFFCURVE",
"349 -230 CURVE"
);
},
{
closed = 1;
nodes = (
"274 430 LINE",
"184 430 LINE",
"184 330 LINE",
"274 330 LINE"
);
}
);
width = 382;
},
{
background = {
paths = (
{
closed = 1;
nodes = (
"349 -157 LINE",
"349 -157 OFFCURVE",
"276 -203 OFFCURVE",
"199 -203 CURVE SMOOTH",
"181 -203 OFFCURVE",
"165 -200 OFFCURVE",
"151 -194 CURVE SMOOTH",
"110 -177 OFFCURVE",
"88 -140 OFFCURVE",
"88 -109 CURVE SMOOTH",
"88 -6 OFFCURVE",
"263 108 OFFCURVE",
"263 209 CURVE SMOOTH",
"263 250 LINE",
"195 250 LINE",
"195 211 LINE SMOOTH",
"195 139 OFFCURVE",
"56 36 OFFCURVE",
"26 -69 CURVE SMOOTH",
"22 -82 OFFCURVE",
"20 -95 OFFCURVE",
"20 -108 CURVE SMOOTH",
"20 -210 OFFCURVE",
"102 -270 OFFCURVE",
"199 -270 CURVE SMOOTH",
"274 -270 OFFCURVE",
"349 -230 OFFCURVE",
"349 -230 CURVE"
);
},
{
closed = 1;
nodes = (
"274 430 LINE",
"184 430 LINE",
"184 330 LINE",
"274 330 LINE"
);
}
);
};
layerId = "B4604C5D-F439-46D0-AEF0-55E4508ED162";
paths = (
{
closed = 1;
nodes = (
"364 -115 LINE",
"364 -115 OFFCURVE",
"292 -161 OFFCURVE",
"221 -170 CURVE SMOOTH",
"204 -172 OFFCURVE",
"189 -172 OFFCURVE",
"175 -169 CURVE SMOOTH",
"128 -160 OFFCURVE",
"108 -124 OFFCURVE",
"108 -94 CURVE SMOOTH",
"108 -1 OFFCURVE",
"278 106 OFFCURVE",
"278 204 CURVE SMOOTH",
"278 243 LINE",
"180 243 LINE",
"180 206 LINE SMOOTH",
"180 142 OFFCURVE",
"28 35 OFFCURVE",
"13 -74 CURVE SMOOTH",
"11 -89 OFFCURVE",
"11 -104 OFFCURVE",
"12 -118 CURVE SMOOTH",
"22 -214 OFFCURVE",
"102 -270 OFFCURVE",
"199 -270 CURVE SMOOTH",
"277 -270 OFFCURVE",
"364 -224 OFFCURVE",
"364 -224 CURVE"
);
},
{
closed = 1;
nodes = (
"289 438 LINE",
"169 438 LINE",
"169 308 LINE",
"289 308 LINE"
);
}
);
width = 382;
}
);
unicode = 00BF;
},
{
color = (31,255,0,1);
glyphname = quotedbl;
lastChange = "2016-07-27 04:27:05 +0000";
layers = (
{
layerId = UUID0;
paths = (
{
closed = 1;
nodes = (
"32 482 LINE",
"92 482 LINE",
"102 700 LINE",
"22 700 LINE"
);
},
{
closed = 1;
nodes = (
"172 482 LINE",
"232 482 LINE",
"242 700 LINE",
"162 700 LINE"
);
}
);
width = 264;
},
{
background = {
paths = (
{
closed = 1;
nodes = (
"32 482 LINE",
"92 482 LINE",
"102 700 LINE",
"22 700 LINE"
);
},
{
closed = 1;
nodes = (
"172 482 LINE",
"232 482 LINE",
"242 700 LINE",
"162 700 LINE"
);
}
);
};
layerId = "B4604C5D-F439-46D0-AEF0-55E4508ED162";
paths = (
{
closed = 1;
nodes = (
"22 482 LINE",
"96 482 LINE",
"106 700 LINE",
"12 700 LINE"
);
},
{
closed = 1;
nodes = (
"168 482 LINE",
"242 482 LINE",
"252 700 LINE",
"158 700 LINE"
);
}
);
width = 264;
}
);
unicode = 0022;
},
{
color = (31,255,0,1);
glyphname = quotesingle;
lastChange = "2016-07-27 04:27:05 +0000";
layers = (
{
layerId = UUID0;
paths = (
{
closed = 1;
nodes = (
"37 482 LINE",
"97 482 LINE",
"107 700 LINE",
"27 700 LINE"
);
}
);
width = 134;
},
{
background = {
paths = (
{
closed = 1;
nodes = (
"37 482 LINE",
"97 482 LINE",
"107 700 LINE",
"27 700 LINE"
);
}
);
};
layerId = "B4604C5D-F439-46D0-AEF0-55E4508ED162";
paths = (
{
closed = 1;
nodes = (
"29 482 LINE",
"104 482 LINE",
"114 700 LINE",
"19 700 LINE"
);
}
);
width = 134;
}
);
unicode = 0027;
},
{
color = (31,255,0,1);
glyphname = semicolon;
lastChange = "2016-07-27 04:27:05 +0000";
layers = (
{
layerId = UUID0;
paths = (
{
closed = 1;
nodes = (
"77 -115 LINE",
"137 -115 LINE",
"205 93 LINE",
"125 93 LINE"
);
},
{
closed = 1;
nodes = (
"115 330 LINE",
"205 330 LINE",
"205 430 LINE",
"115 430 LINE"
);
}
);
width = 314;
},
{
background = {
paths = (
{
closed = 1;
nodes = (
"77 -115 LINE",
"137 -115 LINE",
"205 93 LINE",
"125 93 LINE"
);
},
{
closed = 1;
nodes = (
"115 330 LINE",
"205 330 LINE",
"205 430 LINE",
"115 430 LINE"
);
}
);
};
layerId = "B4604C5D-F439-46D0-AEF0-55E4508ED162";
paths = (
{
closed = 1;
nodes = (
"58 -115 LINE",
"148 -115 LINE",
"225 123 LINE",
"113 123 LINE"
);
},
{
closed = 1;
nodes = (
"100 308 LINE",
"220 308 LINE",
"220 438 LINE",
"100 438 LINE"
);
}
);
width = 314;
}
);
unicode = 003B;
},
{
color = (31,255,0,1);
glyphname = slash;
lastChange = "2016-07-27 04:27:05 +0000";
layers = (
{
layerId = UUID0;
paths = (
{
closed = 1;
nodes = (
"239 760 LINE",
"181 760 LINE",
"1 -158 LINE",
"59 -158 LINE"
);
}
);
width = 240;
},
{
background = {
paths = (
{
closed = 1;
nodes = (
"239 760 LINE",
"181 760 LINE",
"1 -158 LINE",
"59 -158 LINE"
);
}
);
};
layerId = "B4604C5D-F439-46D0-AEF0-55E4508ED162";
paths = (
{
closed = 1;
nodes = (
"259 760 LINE",
"166 760 LINE",
"-14 -158 LINE",
"79 -158 LINE"
);
}
);
width = 240;
}
);
unicode = 002F;
},
{
color = (235,0,255,1);
glyphname = underscore;
lastChange = "2016-07-27 04:27:05 +0000";
layers = (
{
layerId = UUID0;
paths = (
{
closed = 1;
nodes = (
"0 -100 LINE",
"500 -100 LINE",
"500 -44 LINE",
"0 -44 LINE"
);
}
);
width = 500;
},
{
background = {
paths = (
{
closed = 1;
nodes = (
"0 -100 LINE",
"500 -100 LINE",
"500 -44 LINE",
"0 -44 LINE"
);
}
);
};
layerId = "B4604C5D-F439-46D0-AEF0-55E4508ED162";
paths = (
{
closed = 1;
nodes = (
"0 -100 LINE",
"500 -100 LINE",
"500 -14 LINE",
"0 -14 LINE"
);
}
);
width = 500;
}
);
unicode = 005F;
},
{
color = (31,255,0,1);
glyphname = braceleft;
lastChange = "2016-07-27 04:27:05 +0000";
layers = (
{
background = {
paths = (
{
closed = 1;
nodes = (
"233 -40 LINE",
"123 -40 OFFCURVE",
"223 244 OFFCURVE",
"123 295 CURVE",
"223 345 OFFCURVE",
"124 632 OFFCURVE",
"233 632 CURVE",
"233 700 LINE",
"130 700 OFFCURVE",
"124 600 OFFCURVE",
"119 497 CURVE",
"115 415 OFFCURVE",
"111 331 OFFCURVE",
"60 295 CURVE",
"111 259 OFFCURVE",
"115 176 OFFCURVE",
"119 93 CURVE",
"124 -10 OFFCURVE",
"130 -111 OFFCURVE",
"233 -111 CURVE"
);
}
);
};
layerId = UUID0;
paths = (
{
closed = 1;
nodes = (
"253 -40 LINE",
"123 -40 OFFCURVE",
"203 244 OFFCURVE",
"93 295 CURVE",
"203 345 OFFCURVE",
"124 630 OFFCURVE",
"253 630 CURVE",
"253 700 LINE",
"150 700 OFFCURVE",
"102 600 OFFCURVE",
"102 497 CURVE SMOOTH",
"102 415 OFFCURVE",
"71 331 OFFCURVE",
"10 295 CURVE",
"71 259 OFFCURVE",
"102 176 OFFCURVE",
"102 93 CURVE SMOOTH",
"102 -10 OFFCURVE",
"150 -110 OFFCURVE",
"253 -110 CURVE"
);
}
);
width = 290;
},
{
background = {
paths = (
{
closed = 1;
nodes = (
"253 -40 LINE",
"123 -40 OFFCURVE",
"203 244 OFFCURVE",
"93 295 CURVE",
"203 345 OFFCURVE",
"124 630 OFFCURVE",
"253 630 CURVE",
"253 700 LINE",
"150 700 OFFCURVE",
"102 600 OFFCURVE",
"102 497 CURVE SMOOTH",
"102 415 OFFCURVE",
"71 331 OFFCURVE",
"10 295 CURVE",
"71 259 OFFCURVE",
"102 176 OFFCURVE",
"102 93 CURVE SMOOTH",
"102 -10 OFFCURVE",
"150 -110 OFFCURVE",
"253 -110 CURVE"
);
}
);
};
layerId = "B4604C5D-F439-46D0-AEF0-55E4508ED162";
paths = (
{
closed = 1;
nodes = (
"245 -10 LINE",
"140 -10 OFFCURVE",
"225 227 OFFCURVE",
"143 295 CURVE",
"225 363 OFFCURVE",
"141 602 OFFCURVE",
"245 602 CURVE",
"245 700 LINE",
"112 700 OFFCURVE",
"105 600 OFFCURVE",
"100 490 CURVE SMOOTH",
"96 412 OFFCURVE",
"92 339 OFFCURVE",
"30 295 CURVE",
"93 251 OFFCURVE",
"96 177 OFFCURVE",
"100 99 CURVE SMOOTH",
"105 -12 OFFCURVE",
"112 -111 OFFCURVE",
"245 -111 CURVE"
);
}
);
width = 290;
}
);
unicode = 007B;
},
{
color = (31,255,0,1);
glyphname = braceright;
lastChange = "2016-07-28 01:43:33 +0000";
layers = (
{
layerId = UUID0;
paths = (
{
closed = 1;
nodes = (
"140 -110 OFFCURVE",
"188 -10 OFFCURVE",
"188 93 CURVE SMOOTH",
"188 176 OFFCURVE",
"219 259 OFFCURVE",
"280 295 CURVE",
"219 331 OFFCURVE",
"188 415 OFFCURVE",
"188 497 CURVE SMOOTH",
"188 600 OFFCURVE",
"140 700 OFFCURVE",
"37 700 CURVE",
"37 630 LINE",
"166 630 OFFCURVE",
"87 345 OFFCURVE",
"197 295 CURVE",
"87 244 OFFCURVE",
"167 -40 OFFCURVE",
"37 -40 CURVE",
"37 -110 LINE"
);
}
);
width = 290;
},
{
background = {
paths = (
{
closed = 1;
nodes = (
"37 -40 LINE",
"167 -40 OFFCURVE",
"87 244 OFFCURVE",
"197 295 CURVE",
"87 345 OFFCURVE",
"166 630 OFFCURVE",
"37 630 CURVE",
"37 700 LINE",
"140 700 OFFCURVE",
"188 600 OFFCURVE",
"188 497 CURVE SMOOTH",
"188 415 OFFCURVE",
"219 331 OFFCURVE",
"280 295 CURVE",
"219 259 OFFCURVE",
"188 176 OFFCURVE",
"188 93 CURVE SMOOTH",
"188 -10 OFFCURVE",
"140 -110 OFFCURVE",
"37 -110 CURVE"
);
}
);
};
layerId = "B4604C5D-F439-46D0-AEF0-55E4508ED162";
paths = (
{
closed = 1;
nodes = (
"177 -111 OFFCURVE",
"184 -12 OFFCURVE",
"189 99 CURVE SMOOTH",
"193 177 OFFCURVE",
"197 251 OFFCURVE",
"259 295 CURVE",
"197 339 OFFCURVE",
"193 412 OFFCURVE",
"189 490 CURVE SMOOTH",
"184 600 OFFCURVE",
"177 700 OFFCURVE",
"45 700 CURVE",
"45 602 LINE",
"148 602 OFFCURVE",
"65 362 OFFCURVE",
"147 295 CURVE",
"64 227 OFFCURVE",
"149 -10 OFFCURVE",
"45 -10 CURVE",
"45 -111 LINE"
);
}
);
width = 290;
}
);
unicode = 007D;
},
{
color = (31,255,0,1);
glyphname = bracketleft;
lastChange = "2016-07-27 04:27:05 +0000";
layers = (
{
layerId = UUID0;
paths = (
{
closed = 1;
nodes = (
"40 -108 LINE",
"243 -108 LINE",
"243 -45 LINE",
"103 -45 LINE",
"103 637 LINE",
"243 637 LINE",
"243 700 LINE",
"40 700 LINE"
);
}
);
width = 290;
},
{
background = {
paths = (
{
closed = 1;
nodes = (
"40 -108 LINE",
"243 -108 LINE",
"243 -45 LINE",
"103 -45 LINE",
"103 637 LINE",
"243 637 LINE",
"243 700 LINE",
"40 700 LINE"
);
}
);
};
layerId = "B4604C5D-F439-46D0-AEF0-55E4508ED162";
paths = (
{
closed = 1;
nodes = (
"25 -108 LINE",
"258 -108 LINE",
"258 -15 LINE",
"118 -15 LINE",
"118 607 LINE",
"258 607 LINE",
"258 700 LINE",
"25 700 LINE"
);
}
);
width = 290;
}
);
unicode = 005B;
},
{
color = (31,255,0,1);
glyphname = bracketright;
lastChange = "2016-07-27 04:27:05 +0000";
layers = (
{
layerId = UUID0;
paths = (
{
closed = 1;
nodes = (
"243 700 LINE",
"40 700 LINE",
"40 637 LINE",
"180 637 LINE",
"180 -45 LINE",
"40 -45 LINE",
"40 -108 LINE",
"243 -108 LINE"
);
}
);
width = 290;
},
{
background = {
paths = (
{
closed = 1;
nodes = (
"243 700 LINE",
"40 700 LINE",
"40 637 LINE",
"180 637 LINE",
"180 -45 LINE",
"40 -45 LINE",
"40 -108 LINE",
"243 -108 LINE"
);
}
);
};
layerId = "B4604C5D-F439-46D0-AEF0-55E4508ED162";
paths = (
{
closed = 1;
nodes = (
"258 700 LINE",
"25 700 LINE",
"25 607 LINE",
"165 607 LINE",
"165 -15 LINE",
"25 -15 LINE",
"25 -108 LINE",
"258 -108 LINE"
);
}
);
width = 290;
}
);
unicode = 005D;
},
{
color = (31,255,0,1);
glyphname = parenleft;
lastChange = "2016-07-27 04:27:05 +0000";
layers = (
{
layerId = UUID0;
paths = (
{
closed = 1;
nodes = (
"40 116 OFFCURVE",
"103 -38 OFFCURVE",
"216 -98 CURVE",
"243 -42 LINE",
"155 4 OFFCURVE",
"103 136 OFFCURVE",
"103 295 CURVE",
"103 454 OFFCURVE",
"155 586 OFFCURVE",
"243 632 CURVE",
"216 688 LINE",
"103 628 OFFCURVE",
"40 474 OFFCURVE",
"40 295 CURVE"
);
}
);
width = 290;
},
{
background = {
paths = (
{
closed = 1;
nodes = (
"40 116 OFFCURVE",
"103 -38 OFFCURVE",
"216 -98 CURVE",
"243 -42 LINE",
"155 4 OFFCURVE",
"103 136 OFFCURVE",
"103 295 CURVE",
"103 454 OFFCURVE",
"155 586 OFFCURVE",
"243 632 CURVE",
"216 688 LINE",
"103 628 OFFCURVE",
"40 474 OFFCURVE",
"40 295 CURVE"
);
}
);
};
layerId = "B4604C5D-F439-46D0-AEF0-55E4508ED162";
paths = (
{
closed = 1;
nodes = (
"25 111 OFFCURVE",
"90 -31 OFFCURVE",
"217 -98 CURVE",
"258 -16 LINE",
"167 32 OFFCURVE",
"115 141 OFFCURVE",
"115 295 CURVE SMOOTH",
"115 448 OFFCURVE",
"167 558 OFFCURVE",
"258 605 CURVE",
"217 688 LINE",
"90 620 OFFCURVE",
"25 479 OFFCURVE",
"25 295 CURVE SMOOTH"
);
}
);
width = 290;
}
);
unicode = 0028;
},
{
color = (31,255,0,1);
glyphname = parenright;
lastChange = "2016-07-27 04:27:05 +0000";
layers = (
{
layerId = UUID0;
paths = (
{
closed = 1;
nodes = (
"243 474 OFFCURVE",
"180 628 OFFCURVE",
"67 688 CURVE",
"40 632 LINE",
"128 586 OFFCURVE",
"180 454 OFFCURVE",
"180 295 CURVE SMOOTH",
"180 136 OFFCURVE",
"128 4 OFFCURVE",
"40 -42 CURVE",
"67 -98 LINE",
"180 -38 OFFCURVE",
"243 116 OFFCURVE",
"243 295 CURVE SMOOTH"
);
}
);
width = 290;
},
{
background = {
paths = (
{
closed = 1;
nodes = (
"243 474 OFFCURVE",
"180 628 OFFCURVE",
"67 688 CURVE",
"40 632 LINE",
"128 586 OFFCURVE",
"180 454 OFFCURVE",
"180 295 CURVE SMOOTH",
"180 136 OFFCURVE",
"128 4 OFFCURVE",
"40 -42 CURVE",
"67 -98 LINE",
"180 -38 OFFCURVE",
"243 116 OFFCURVE",
"243 295 CURVE SMOOTH"
);
}
);
};
layerId = "B4604C5D-F439-46D0-AEF0-55E4508ED162";
paths = (
{
closed = 1;
nodes = (
"258 479 OFFCURVE",
"192 620 OFFCURVE",
"65 688 CURVE",
"25 605 LINE",
"116 558 OFFCURVE",
"167 448 OFFCURVE",
"167 295 CURVE SMOOTH",
"167 141 OFFCURVE",
"116 32 OFFCURVE",
"25 -16 CURVE",
"65 -98 LINE",
"192 -31 OFFCURVE",
"258 111 OFFCURVE",
"258 295 CURVE SMOOTH"
);
}
);
width = 290;
}
);
unicode = 0029;
},
{
color = (31,255,0,1);
glyphname = emdash;
lastChange = "2016-07-27 04:27:05 +0000";
layers = (
{
layerId = UUID0;
paths = (
{
closed = 1;
nodes = (
"100 210 LINE",
"800 210 LINE",
"800 266 LINE",
"100 266 LINE"
);
}
);
width = 900;
},
{
background = {
paths = (
{
closed = 1;
nodes = (
"100 210 LINE",
"800 210 LINE",
"800 266 LINE",
"100 266 LINE"
);
}
);
};
layerId = "B4604C5D-F439-46D0-AEF0-55E4508ED162";
paths = (
{
closed = 1;
nodes = (
"85 199 LINE",
"815 199 LINE",
"815 285 LINE",
"85 285 LINE"
);
}
);
width = 900;
}
);
unicode = 2014;
},
{
color = (31,255,0,1);
glyphname = endash;
lastChange = "2016-07-27 04:27:05 +0000";
layers = (
{
layerId = UUID0;
paths = (
{
closed = 1;
nodes = (
"45 205 LINE",
"460 205 LINE",
"460 271 LINE",
"45 271 LINE"
);
}
);
width = 505;
},
{
background = {
paths = (
{
closed = 1;
nodes = (
"45 205 LINE",
"460 205 LINE",
"460 271 LINE",
"45 271 LINE"
);
}
);
};
layerId = "B4604C5D-F439-46D0-AEF0-55E4508ED162";
paths = (
{
closed = 1;
nodes = (
"30 194 LINE",
"475 194 LINE",
"475 290 LINE",
"30 290 LINE"
);
}
);
width = 505;
}
);
unicode = 2013;
},
{
color = (31,255,0,1);
glyphname = hyphen;
lastChange = "2016-07-27 04:27:05 +0000";
layers = (
{
layerId = UUID0;
paths = (
{
closed = 1;
nodes = (
"54 205 LINE",
"314 205 LINE",
"314 271 LINE",
"54 271 LINE"
);
}
);
width = 368;
},
{
background = {
paths = (
{
closed = 1;
nodes = (
"54 205 LINE",
"314 205 LINE",
"314 271 LINE",
"54 271 LINE"
);
}
);
};
layerId = "B4604C5D-F439-46D0-AEF0-55E4508ED162";
paths = (
{
closed = 1;
nodes = (
"49 194 LINE",
"319 194 LINE",
"319 290 LINE",
"49 290 LINE"
);
}
);
width = 368;
}
);
unicode = 002D;
},
{
color = (31,255,0,1);
glyphname = guillemotleft;
lastChange = "2016-07-28 01:43:44 +0000";
layers = (
{
background = {
paths = (
{
closed = 1;
nodes = (
"180 418 LINE",
"180 330 LINE",
"85 220 LINE",
"180 110 LINE",
"180 22 LINE",
"8 220 LINE"
);
},
{
closed = 1;
nodes = (
"328 418 LINE",
"328 330 LINE",
"233 220 LINE",
"328 110 LINE",
"328 22 LINE",
"156 220 LINE"
);
}
);
};
layerId = UUID0;
paths = (
{
closed = 1;
nodes = (
"350 82 LINE",
"233 220 LINE",
"350 358 LINE",
"308 398 LINE",
"156 220 LINE",
"308 42 LINE"
);
},
{
closed = 1;
nodes = (
"202 82 LINE",
"85 220 LINE",
"202 358 LINE",
"160 398 LINE",
"8 220 LINE",
"160 42 LINE"
);
}
);
width = 381;
},
{
background = {
paths = (
{
closed = 1;
nodes = (
"180 418 LINE",
"180 330 LINE",
"85 220 LINE",
"180 110 LINE",
"180 22 LINE",
"8 220 LINE"
);
},
{
closed = 1;
nodes = (
"328 418 LINE",
"328 330 LINE",
"233 220 LINE",
"328 110 LINE",
"328 22 LINE",
"156 220 LINE"
);
}
);
};
layerId = "B4604C5D-F439-46D0-AEF0-55E4508ED162";
paths = (
{
closed = 1;
nodes = (
"358 90 LINE",
"248 220 LINE",
"358 349 LINE",
"308 398 LINE",
"156 220 LINE",
"308 41 LINE"
);
},
{
closed = 1;
nodes = (
"210 90 LINE",
"100 220 LINE",
"210 349 LINE",
"160 398 LINE",
"8 220 LINE",
"160 41 LINE"
);
}
);
width = 381;
}
);
unicode = 00AB;
},
{
color = (31,255,0,1);
glyphname = guillemotright;
lastChange = "2016-07-27 04:27:05 +0000";
layers = (
{
layerId = UUID0;
paths = (
{
closed = 1;
nodes = (
"221 398 LINE",
"179 358 LINE",
"296 220 LINE",
"179 82 LINE",
"221 42 LINE",
"373 220 LINE"
);
},
{
closed = 1;
nodes = (
"73 398 LINE",
"31 358 LINE",
"148 220 LINE",
"31 82 LINE",
"73 42 LINE",
"225 220 LINE"
);
}
);
width = 381;
},
{
background = {
paths = (
{
closed = 1;
nodes = (
"201 418 LINE",
"201 330 LINE",
"296 220 LINE",
"201 110 LINE",
"201 22 LINE",
"373 220 LINE"
);
},
{
closed = 1;
nodes = (
"53 418 LINE",
"53 330 LINE",
"148 220 LINE",
"53 110 LINE",
"53 22 LINE",
"225 220 LINE"
);
}
);
};
layerId = "B4604C5D-F439-46D0-AEF0-55E4508ED162";
paths = (
{
closed = 1;
nodes = (
"221 398 LINE",
"171 349 LINE",
"281 220 LINE",
"171 90 LINE",
"221 41 LINE",
"373 220 LINE"
);
},
{
closed = 1;
nodes = (
"73 398 LINE",
"23 349 LINE",
"132 220 LINE",
"23 90 LINE",
"73 41 LINE",
"225 220 LINE"
);
}
);
width = 381;
}
);
unicode = 00BB;
},
{
color = (31,255,0,1);
glyphname = guilsinglleft;
lastChange = "2016-07-28 01:43:50 +0000";
layers = (
{
layerId = UUID0;
paths = (
{
closed = 1;
nodes = (
"202 82 LINE",
"85 220 LINE",
"202 358 LINE",
"160 398 LINE",
"8 220 LINE",
"160 42 LINE"
);
}
);
width = 233;
},
{
background = {
paths = (
{
closed = 1;
nodes = (
"180 418 LINE",
"180 330 LINE",
"85 220 LINE",
"180 110 LINE",
"180 22 LINE",
"8 220 LINE"
);
}
);
};
layerId = "B4604C5D-F439-46D0-AEF0-55E4508ED162";
paths = (
{
closed = 1;
nodes = (
"210 90 LINE",
"100 220 LINE",
"210 349 LINE",
"160 398 LINE",
"8 220 LINE",
"160 41 LINE"
);
}
);
width = 233;
}
);
unicode = 2039;
},
{
color = (31,255,0,1);
glyphname = guilsinglright;
lastChange = "2016-07-27 04:27:05 +0000";
layers = (
{
layerId = UUID0;
paths = (
{
closed = 1;
nodes = (
"71 398 LINE",
"31 358 LINE",
"146 220 LINE",
"31 82 LINE",
"71 42 LINE",
"223 220 LINE"
);
}
);
width = 231;
},
{
background = {
paths = (
{
closed = 1;
nodes = (
"51 418 LINE",
"51 330 LINE",
"146 220 LINE",
"51 110 LINE",
"51 22 LINE",
"223 220 LINE"
);
}
);
};
layerId = "B4604C5D-F439-46D0-AEF0-55E4508ED162";
paths = (
{
closed = 1;
nodes = (
"71 398 LINE",
"21 349 LINE",
"130 220 LINE",
"21 90 LINE",
"71 41 LINE",
"223 220 LINE"
);
}
);
width = 231;
}
);
unicode = 203A;
},
{
color = (31,255,0,1);
glyphname = quotedblbase;
lastChange = "2016-07-27 04:27:05 +0000";
layers = (
{
layerId = UUID0;
paths = (
{
closed = 1;
nodes = (
"39 -125 LINE",
"99 -125 LINE",
"167 93 LINE",
"87 93 LINE"
);
},
{
closed = 1;
nodes = (
"179 -125 LINE",
"239 -125 LINE",
"307 93 LINE",
"227 93 LINE"
);
}
);
width = 344;
},
{
background = {
paths = (
{
closed = 1;
nodes = (
"39 482 LINE",
"99 482 LINE",
"167 700 LINE",
"87 700 LINE"
);
},
{
closed = 1;
nodes = (
"179 482 LINE",
"239 482 LINE",
"307 700 LINE",
"227 700 LINE"
);
}
);
};
layerId = "B4604C5D-F439-46D0-AEF0-55E4508ED162";
paths = (
{
closed = 1;
nodes = (
"29 -95 LINE",
"103 -95 LINE",
"171 123 LINE",
"77 123 LINE"
);
},
{
closed = 1;
nodes = (
"175 -95 LINE",
"249 -95 LINE",
"317 123 LINE",
"223 123 LINE"
);
}
);
width = 344;
}
);
unicode = 201E;
},
{
color = (31,255,0,1);
glyphname = quotedblleft;
lastChange = "2016-07-27 04:27:05 +0000";
layers = (
{
layerId = UUID0;
paths = (
{
closed = 1;
nodes = (
"160 700 LINE",
"100 700 LINE",
"32 482 LINE",
"112 482 LINE"
);
},
{
closed = 1;
nodes = (
"300 700 LINE",
"240 700 LINE",
"172 482 LINE",
"252 482 LINE"
);
}
);
width = 344;
},
{
background = {
paths = (
{
closed = 1;
nodes = (
"160 700 LINE",
"100 700 LINE",
"32 482 LINE",
"112 482 LINE"
);
},
{
closed = 1;
nodes = (
"300 700 LINE",
"240 700 LINE",
"172 482 LINE",
"252 482 LINE"
);
}
);
};
layerId = "B4604C5D-F439-46D0-AEF0-55E4508ED162";
paths = (
{
closed = 1;
nodes = (
"166 700 LINE",
"92 700 LINE",
"24 482 LINE",
"118 482 LINE"
);
},
{
closed = 1;
nodes = (
"312 700 LINE",
"238 700 LINE",
"170 482 LINE",
"264 482 LINE"
);
}
);
width = 344;
}
);
unicode = 201C;
},
{
color = (31,255,0,1);
glyphname = quotedblright;
lastChange = "2016-07-27 04:27:05 +0000";
layers = (
{
layerId = UUID0;
paths = (
{
closed = 1;
nodes = (
"39 482 LINE",
"99 482 LINE",
"167 700 LINE",
"87 700 LINE"
);
},
{
closed = 1;
nodes = (
"179 482 LINE",
"239 482 LINE",
"307 700 LINE",
"227 700 LINE"
);
}
);
width = 344;
},
{
background = {
paths = (
{
closed = 1;
nodes = (
"39 482 LINE",
"99 482 LINE",
"167 700 LINE",
"87 700 LINE"
);
},
{
closed = 1;
nodes = (
"179 482 LINE",
"239 482 LINE",
"307 700 LINE",
"227 700 LINE"
);
}
);
};
layerId = "B4604C5D-F439-46D0-AEF0-55E4508ED162";
paths = (
{
closed = 1;
nodes = (
"29 482 LINE",
"103 482 LINE",
"171 700 LINE",
"77 700 LINE"
);
},
{
closed = 1;
nodes = (
"175 482 LINE",
"249 482 LINE",
"317 700 LINE",
"223 700 LINE"
);
}
);
width = 344;
}
);
unicode = 201D;
},
{
color = (31,255,0,1);
glyphname = quoteleft;
lastChange = "2016-07-27 04:27:05 +0000";
layers = (
{
layerId = UUID0;
paths = (
{
closed = 1;
nodes = (
"160 700 LINE",
"100 700 LINE",
"32 482 LINE",
"112 482 LINE"
);
}
);
width = 204;
},
{
background = {
paths = (
{
closed = 1;
nodes = (
"160 700 LINE",
"100 700 LINE",
"32 482 LINE",
"112 482 LINE"
);
}
);
};
layerId = "B4604C5D-F439-46D0-AEF0-55E4508ED162";
paths = (
{
closed = 1;
nodes = (
"169 700 LINE",
"95 700 LINE",
"27 482 LINE",
"121 482 LINE"
);
}
);
width = 204;
}
);
unicode = 2018;
},
{
color = (31,255,0,1);
glyphname = quoteright;
lastChange = "2016-07-27 04:27:05 +0000";
layers = (
{
layerId = UUID0;
paths = (
{
closed = 1;
nodes = (
"39 482 LINE",
"99 482 LINE",
"167 700 LINE",
"87 700 LINE"
);
}
);
width = 204;
},
{
background = {
paths = (
{
closed = 1;
nodes = (
"39 482 LINE",
"99 482 LINE",
"167 700 LINE",
"87 700 LINE"
);
}
);
};
layerId = "B4604C5D-F439-46D0-AEF0-55E4508ED162";
paths = (
{
closed = 1;
nodes = (
"32 482 LINE",
"106 482 LINE",
"174 700 LINE",
"80 700 LINE"
);
}
);
width = 204;
}
);
unicode = 2019;
},
{
color = (31,255,0,1);
glyphname = quotesinglbase;
lastChange = "2016-07-27 04:27:05 +0000";
layers = (
{
layerId = UUID0;
paths = (
{
closed = 1;
nodes = (
"39 -125 LINE",
"99 -125 LINE",
"167 93 LINE",
"87 93 LINE"
);
}
);
width = 204;
},
{
background = {
paths = (
{
closed = 1;
nodes = (
"39 482 LINE",
"99 482 LINE",
"167 700 LINE",
"87 700 LINE"
);
}
);
};
layerId = "B4604C5D-F439-46D0-AEF0-55E4508ED162";
paths = (
{
closed = 1;
nodes = (
"32 -95 LINE",
"106 -95 LINE",
"174 123 LINE",
"80 123 LINE"
);
}
);
width = 204;
}
);
unicode = 201A;
},
{
glyphname = .notdef;
lastChange = "2016-07-27 04:27:05 +0000";
layers = (
{
layerId = UUID0;
paths = (
{
closed = 1;
nodes = (
"601 670 LINE",
"55 670 LINE",
"55 0 LINE",
"601 0 LINE"
);
},
{
closed = 1;
nodes = (
"571 30 LINE",
"85 30 LINE",
"85 640 LINE",
"571 640 LINE"
);
},
{
closed = 1;
nodes = (
"211 512 LINE",
"211 512 OFFCURVE",
"265 547 OFFCURVE",
"322 547 CURVE SMOOTH",
"336 547 OFFCURVE",
"347 544 OFFCURVE",
"358 540 CURVE SMOOTH",
"388 527 OFFCURVE",
"404 500 OFFCURVE",
"404 477 CURVE SMOOTH",
"404 401 OFFCURVE",
"275 316 OFFCURVE",
"275 242 CURVE SMOOTH",
"275 211 LINE",
"325 211 LINE",
"325 240 LINE SMOOTH",
"325 293 OFFCURVE",
"428 370 OFFCURVE",
"450 447 CURVE SMOOTH",
"453 457 OFFCURVE",
"455 467 OFFCURVE",
"455 476 CURVE SMOOTH",
"455 552 OFFCURVE",
"394 596 OFFCURVE",
"322 596 CURVE SMOOTH",
"267 596 OFFCURVE",
"211 567 OFFCURVE",
"211 567 CURVE"
);
},
{
closed = 1;
nodes = (
"267 78 LINE",
"333 78 LINE",
"333 152 LINE",
"267 152 LINE"
);
}
);
width = 656;
},
{
layerId = "B4604C5D-F439-46D0-AEF0-55E4508ED162";
paths = (
{
closed = 1;
nodes = (
"601 670 LINE",
"55 670 LINE",
"55 0 LINE",
"601 0 LINE"
);
},
{
closed = 1;
nodes = (
"571 30 LINE",
"85 30 LINE",
"85 640 LINE",
"571 640 LINE"
);
},
{
closed = 1;
nodes = (
"211 512 LINE",
"211 512 OFFCURVE",
"265 547 OFFCURVE",
"322 547 CURVE SMOOTH",
"336 547 OFFCURVE",
"347 544 OFFCURVE",
"358 540 CURVE SMOOTH",
"388 527 OFFCURVE",
"404 500 OFFCURVE",
"404 477 CURVE SMOOTH",
"404 401 OFFCURVE",
"275 316 OFFCURVE",
"275 242 CURVE SMOOTH",
"275 211 LINE",
"325 211 LINE",
"325 240 LINE SMOOTH",
"325 293 OFFCURVE",
"428 370 OFFCURVE",
"450 447 CURVE SMOOTH",
"453 457 OFFCURVE",
"455 467 OFFCURVE",
"455 476 CURVE SMOOTH",
"455 552 OFFCURVE",
"394 596 OFFCURVE",
"322 596 CURVE SMOOTH",
"267 596 OFFCURVE",
"211 567 OFFCURVE",
"211 567 CURVE"
);
},
{
closed = 1;
nodes = (
"267 78 LINE",
"333 78 LINE",
"333 152 LINE",
"267 152 LINE"
);
}
);
width = 656;
}
);
},
{
color = (235,0,255,1);
glyphname = Euro;
lastChange = "2016-07-28 01:44:02 +0000";
layers = (
{
background = {
paths = (
{
closed = 1;
nodes = (
"430 99 LINE",
"430 99 OFFCURVE",
"362 57 OFFCURVE",
"290 57 CURVE SMOOTH",
"203 57 OFFCURVE",
"146 149 OFFCURVE",
"146 272 CURVE SMOOTH",
"146 351 OFFCURVE",
"166 486 OFFCURVE",
"307 486 CURVE SMOOTH",
"348 486 OFFCURVE",
"368 475 OFFCURVE",
"399 450 CURVE",
"443 498 LINE",
"404 527 OFFCURVE",
"371 550 OFFCURVE",
"307 550 CURVE SMOOTH",
"135 550 OFFCURVE",
"77 400 OFFCURVE",
"77 272 CURVE SMOOTH",
"77 155 OFFCURVE",
"124 -8 OFFCURVE",
"290 -8 CURVE SMOOTH",
"367 -8 OFFCURVE",
"430 30 OFFCURVE",
"430 30 CURVE"
);
},
{
closed = 1;
nodes = (
"30 312 LINE",
"418 312 LINE",
"418 372 LINE",
"30 372 LINE"
);
},
{
closed = 1;
nodes = (
"30 192 LINE",
"418 192 LINE",
"418 252 LINE",
"30 252 LINE"
);
}
);
};
layerId = UUID0;
paths = (
{
closed = 1;
nodes = (
"367 -8 OFFCURVE",
"430 30 OFFCURVE",
"430 30 CURVE",
"430 99 LINE",
"430 99 OFFCURVE",
"362 57 OFFCURVE",
"290 57 CURVE SMOOTH",
"203 57 OFFCURVE",
"146 153 OFFCURVE",
"146 276 CURVE SMOOTH",
"146 355 OFFCURVE",
"166 494 OFFCURVE",
"307 494 CURVE SMOOTH",
"357 494 OFFCURVE",
"383 472 OFFCURVE",
"414 446 CURVE",
"443 506 LINE",
"404 535 OFFCURVE",
"371 558 OFFCURVE",
"307 558 CURVE SMOOTH",
"135 558 OFFCURVE",
"77 404 OFFCURVE",
"77 276 CURVE SMOOTH",
"77 159 OFFCURVE",
"124 -8 OFFCURVE",
"290 -8 CURVE SMOOTH"
);
},
{
closed = 1;
nodes = (
"303 197 LINE",
"328 252 LINE",
"30 252 LINE",
"30 197 LINE"
);
},
{
closed = 1;
nodes = (
"354 312 LINE",
"379 367 LINE",
"30 367 LINE",
"30 312 LINE"
);
}
);
width = 457;
},
{
background = {
paths = (
{
closed = 1;
nodes = (
"15 356 LINE",
"61 356 LINE",
"61 347 OFFCURVE",
"61 339 OFFCURVE",
"61 331 CURVE SMOOTH",
"61 322 OFFCURVE",
"61 314 OFFCURVE",
"61 306 CURVE",
"15 306 LINE",
"15 231 LINE",
"71 231 LINE",
"91 82 OFFCURVE",
"166 -8 OFFCURVE",
"288 -8 CURVE SMOOTH",
"371 -8 OFFCURVE",
"440 35 OFFCURVE",
"440 35 CURVE",
"440 133 LINE",
"427 125 OFFCURVE",
"358 89 OFFCURVE",
"309 89 CURVE SMOOTH",
"233 89 OFFCURVE",
"189 136 OFFCURVE",
"173 231 CURVE",
"378 231 LINE",
"378 306 LINE",
"165 306 LINE",
"165 314 OFFCURVE",
"165 322 OFFCURVE",
"165 331 CURVE SMOOTH",
"165 339 OFFCURVE",
"165 347 OFFCURVE",
"165 356 CURVE",
"378 356 LINE",
"378 431 LINE",
"173 431 LINE",
"188 525 OFFCURVE",
"242 574 OFFCURVE",
"300 574 CURVE SMOOTH",
"336 574 OFFCURVE",
"357 560 OFFCURVE",
"388 537 CURVE",
"453 607 LINE",
"409 643 OFFCURVE",
"369 668 OFFCURVE",
"300 668 CURVE SMOOTH",
"194 668 OFFCURVE",
"96 582 OFFCURVE",
"72 431 CURVE",
"15 431 LINE"
);
}
);
};
layerId = "B4604C5D-F439-46D0-AEF0-55E4508ED162";
paths = (
{
closed = 1;
nodes = (
"367 -8 OFFCURVE",
"430 29 OFFCURVE",
"430 29 CURVE",
"430 127 LINE",
"430 127 OFFCURVE",
"353 87 OFFCURVE",
"290 87 CURVE SMOOTH",
"221 87 OFFCURVE",
"176 170 OFFCURVE",
"176 276 CURVE SMOOTH",
"176 344 OFFCURVE",
"192 464 OFFCURVE",
"307 464 CURVE SMOOTH",
"362 464 OFFCURVE",
"403 426 OFFCURVE",
"403 426 CURVE",
"443 506 LINE",
"404 535 OFFCURVE",
"371 558 OFFCURVE",
"307 558 CURVE SMOOTH",
"135 558 OFFCURVE",
"77 404 OFFCURVE",
"77 276 CURVE SMOOTH",
"77 159 OFFCURVE",
"124 -8 OFFCURVE",
"290 -8 CURVE SMOOTH"
);
},
{
closed = 1;
nodes = (
"299 187 LINE",
"329 257 LINE",
"30 257 LINE",
"30 187 LINE"
);
},
{
closed = 1;
nodes = (
"351 307 LINE",
"381 377 LINE",
"30 377 LINE",
"30 307 LINE"
);
}
);
width = 457;
}
);
unicode = 20AC;
},
{
color = (235,0,255,1);
glyphname = dollar;
lastChange = "2016-07-27 04:27:05 +0000";
layers = (
{
background = {
paths = (
{
closed = 1;
nodes = (
"319 58 OFFCURVE",
"345 106 OFFCURVE",
"345 141 CURVE SMOOTH",
"345 250 OFFCURVE",
"54 234 OFFCURVE",
"54 420 CURVE SMOOTH",
"54 474 OFFCURVE",
"116 558 OFFCURVE",
"256 558 CURVE SMOOTH",
"305 558 OFFCURVE",
"342 548 OFFCURVE",
"378 539 CURVE",
"378 471 LINE",
"345 478 OFFCURVE",
"290 494 OFFCURVE",
"245 494 CURVE SMOOTH",
"149 494 OFFCURVE",
"122 438 OFFCURVE",
"122 411 CURVE SMOOTH",
"122 290 OFFCURVE",
"413 307 OFFCURVE",
"413 132 CURVE SMOOTH",
"413 70 OFFCURVE",
"355 -8 OFFCURVE",
"211 -8 CURVE SMOOTH",
"144 -8 OFFCURVE",
"92 6 OFFCURVE",
"64 19 CURVE",
"64 93 LINE",
"88 82 OFFCURVE",
"153 58 OFFCURVE",
"215 58 CURVE SMOOTH"
);
},
{
closed = 1;
nodes = (
"211 620 LINE",
"259 620 LINE",
"259 -73 LINE",
"211 -73 LINE"
);
}
);
};
layerId = UUID0;
paths = (
{
closed = 1;
nodes = (
"319 58 OFFCURVE",
"345 106 OFFCURVE",
"345 141 CURVE SMOOTH",
"345 250 OFFCURVE",
"54 234 OFFCURVE",
"54 420 CURVE SMOOTH",
"54 474 OFFCURVE",
"116 558 OFFCURVE",
"256 558 CURVE SMOOTH",
"305 558 OFFCURVE",
"342 548 OFFCURVE",
"378 539 CURVE",
"378 471 LINE",
"345 478 OFFCURVE",
"290 494 OFFCURVE",
"245 494 CURVE SMOOTH",
"149 494 OFFCURVE",
"122 438 OFFCURVE",
"122 411 CURVE SMOOTH",
"122 290 OFFCURVE",
"413 307 OFFCURVE",
"413 132 CURVE SMOOTH",
"413 70 OFFCURVE",
"355 -8 OFFCURVE",
"211 -8 CURVE SMOOTH",
"144 -8 OFFCURVE",
"92 6 OFFCURVE",
"64 19 CURVE",
"64 93 LINE",
"88 82 OFFCURVE",
"153 58 OFFCURVE",
"215 58 CURVE SMOOTH"
);
},
{
closed = 1;
nodes = (
"211 620 LINE",
"259 620 LINE",
"259 -73 LINE",
"211 -73 LINE"
);
}
);
width = 457;
},
{
background = {
paths = (
{
closed = 1;
nodes = (
"301 87 OFFCURVE",
"330 114 OFFCURVE",
"330 142 CURVE SMOOTH",
"330 170 OFFCURVE",
"301 189 OFFCURVE",
"264 207 CURVE",
"191 244 LINE",
"115 278 OFFCURVE",
"39 314 OFFCURVE",
"39 409 CURVE SMOOTH",
"39 477 OFFCURVE",
"112 549 OFFCURVE",
"222 556 CURVE",
"228 632 LINE",
"306 632 LINE",
"300 555 LINE",
"332 551 OFFCURVE",
"360 546 OFFCURVE",
"393 538 CURVE",
"393 449 LINE",
"360 456 OFFCURVE",
"327 466 OFFCURVE",
"213 472 CURVE",
"158 470 OFFCURVE",
"137 428 OFFCURVE",
"137 408 CURVE SMOOTH",
"137 378 OFFCURVE",
"165 356 OFFCURVE",
"201 338 CURVE",
"275 299 LINE",
"349 266 OFFCURVE",
"428 225 OFFCURVE",
"428 136 CURVE SMOOTH",
"428 70 OFFCURVE",
"365 1 OFFCURVE",
"243 -7 CURVE",
"237 -87 LINE",
"159 -87 LINE",
"165 -6 LINE",
"111 -1 OFFCURVE",
"79 9 OFFCURVE",
"49 21 CURVE",
"49 120 LINE",
"80 107 OFFCURVE",
"129 91 OFFCURVE",
"253 85 CURVE"
);
}
);
};
layerId = "B4604C5D-F439-46D0-AEF0-55E4508ED162";
paths = (
{
closed = 1;
nodes = (
"291 82 OFFCURVE",
"330 106 OFFCURVE",
"330 141 CURVE SMOOTH",
"330 236 OFFCURVE",
"39 230 OFFCURVE",
"39 411 CURVE SMOOTH",
"39 479 OFFCURVE",
"116 558 OFFCURVE",
"256 558 CURVE SMOOTH",
"305 558 OFFCURVE",
"357 547 OFFCURVE",
"393 538 CURVE",
"393 449 LINE",
"360 456 OFFCURVE",
"290 473 OFFCURVE",
"245 473 CURVE SMOOTH",
"155 473 OFFCURVE",
"137 432 OFFCURVE",
"137 412 CURVE SMOOTH",
"137 308 OFFCURVE",
"428 303 OFFCURVE",
"428 141 CURVE SMOOTH",
"428 61 OFFCURVE",
"355 -8 OFFCURVE",
"211 -8 CURVE SMOOTH",
"144 -8 OFFCURVE",
"77 8 OFFCURVE",
"49 21 CURVE",
"49 119 LINE",
"73 108 OFFCURVE",
"159 82 OFFCURVE",
"215 82 CURVE SMOOTH"
);
},
{
closed = 1;
nodes = (
"199 620 LINE",
"271 620 LINE",
"271 -73 LINE",
"199 -73 LINE"
);
}
);
width = 457;
}
);
unicode = 0024;
},
{
color = (235,0,255,1);
glyphname = sterling;
lastChange = "2016-07-27 04:27:05 +0000";
layers = (
{
layerId = UUID0;
paths = (
{
closed = 1;
nodes = (
"56 0 LINE",
"261 0 LINE SMOOTH",
"359 0 OFFCURVE",
"407 38 OFFCURVE",
"407 38 CURVE",
"407 108 LINE",
"407 107 OFFCURVE",
"362 67 OFFCURVE",
"261 67 CURVE SMOOTH",
"134 67 LINE",
"198 373 LINE SMOOTH",
"209 430 OFFCURVE",
"227 493 OFFCURVE",
"298 493 CURVE SMOOTH",
"326 493 OFFCURVE",
"350 487 OFFCURVE",
"372 483 CURVE",
"390 547 LINE",
"366 551 OFFCURVE",
"336 558 OFFCURVE",
"298 558 CURVE SMOOTH",
"186 558 OFFCURVE",
"150 481 OFFCURVE",
"130 380 CURVE SMOOTH"
);
},
{
closed = 1;
nodes = (
"52 312 LINE",
"330 312 LINE",
"330 367 LINE",
"52 367 LINE"
);
},
{
closed = 1;
nodes = (
"52 197 LINE",
"330 197 LINE",
"330 252 LINE",
"52 252 LINE"
);
}
);
width = 457;
},
{
layerId = "B4604C5D-F439-46D0-AEF0-55E4508ED162";
paths = (
{
closed = 1;
nodes = (
"37 0 LINE",
"271 0 LINE",
"384 0 OFFCURVE",
"415 27 OFFCURVE",
"415 27 CURVE",
"415 125 LINE",
"415 125 OFFCURVE",
"382 95 OFFCURVE",
"271 95 CURVE",
"148 95 LINE",
"208 363 LINE",
"218 410 OFFCURVE",
"239 470 OFFCURVE",
"298 470 CURVE SMOOTH",
"318 470 OFFCURVE",
"338 466 OFFCURVE",
"380 455 CURVE",
"406 540 LINE",
"370 549 OFFCURVE",
"335 558 OFFCURVE",
"298 558 CURVE SMOOTH",
"176 558 OFFCURVE",
"137 480 OFFCURVE",
"115 378 CURVE"
);
},
{
closed = 1;
nodes = (
"37 307 LINE",
"345 307 LINE",
"345 377 LINE",
"37 377 LINE"
);
},
{
closed = 1;
nodes = (
"37 187 LINE",
"345 187 LINE",
"345 257 LINE",
"37 257 LINE"
);
}
);
width = 457;
}
);
unicode = 00A3;
},
{
color = (235,0,255,1);
glyphname = yen;
lastChange = "2016-07-27 04:27:05 +0000";
layers = (
{
layerId = UUID0;
paths = (
{
closed = 1;
nodes = (
"450 550 LINE",
"291 349 LINE",
"134 550 LINE",
"50 550 LINE",
"255 287 LINE",
"255 0 LINE",
"327 0 LINE",
"327 287 LINE",
"533 550 LINE"
);
},
{
closed = 1;
nodes = (
"152 232 LINE",
"430 232 LINE",
"430 287 LINE",
"152 287 LINE"
);
},
{
closed = 1;
nodes = (
"152 127 LINE",
"430 127 LINE",
"430 182 LINE",
"152 182 LINE"
);
}
);
width = 583;
},
{
background = {
paths = (
{
closed = 1;
nodes = (
"465 140 LINE",
"465 215 LINE",
"117 215 LINE",
"117 140 LINE"
);
},
{
closed = 1;
nodes = (
"465 265 LINE",
"465 340 LINE",
"117 340 LINE",
"117 265 LINE"
);
},
{
closed = 1;
nodes = (
"468 670 LINE",
"291 402 LINE",
"115 670 LINE",
"-1 670 LINE",
"240 312 LINE",
"240 0 LINE",
"342 0 LINE",
"342 312 LINE",
"584 670 LINE"
);
}
);
};
layerId = "B4604C5D-F439-46D0-AEF0-55E4508ED162";
paths = (
{
closed = 1;
nodes = (
"420 550 LINE",
"291 367 LINE",
"164 550 LINE",
"50 550 LINE",
"240 287 LINE",
"240 0 LINE",
"342 0 LINE",
"342 287 LINE",
"533 550 LINE"
);
},
{
closed = 1;
nodes = (
"117 217 LINE",
"465 217 LINE",
"465 287 LINE",
"117 287 LINE"
);
},
{
closed = 1;
nodes = (
"117 97 LINE",
"465 97 LINE",
"465 167 LINE",
"117 167 LINE"
);
}
);
width = 583;
}
);
unicode = 00A5;
},
{
color = (235,0,255,1);
glyphname = plus;
lastChange = "2016-07-28 01:44:26 +0000";
layers = (
{
layerId = UUID0;
paths = (
{
closed = 1;
nodes = (
"264 61 LINE",
"264 405 LINE",
"204 405 LINE",
"204 61 LINE"
);
},
{
closed = 1;
nodes = (
"404 203 LINE",
"404 263 LINE",
"64 263 LINE",
"64 203 LINE"
);
}
);
width = 468;
},
{
background = {
paths = (
{
closed = 1;
nodes = (
"64 201 LINE",
"204 201 LINE",
"204 59 LINE",
"264 59 LINE",
"264 201 LINE",
"404 201 LINE",
"404 261 LINE",
"264 261 LINE",
"264 403 LINE",
"204 403 LINE",
"204 261 LINE",
"64 261 LINE"
);
}
);
};
layerId = "B4604C5D-F439-46D0-AEF0-55E4508ED162";
paths = (
{
closed = 1;
nodes = (
"283 40 LINE",
"283 426 LINE",
"185 426 LINE",
"185 40 LINE"
);
},
{
closed = 1;
nodes = (
"423 184 LINE",
"423 282 LINE",
"45 282 LINE",
"45 184 LINE"
);
}
);
width = 468;
}
);
unicode = 002B;
},
{
color = (31,255,0,1);
glyphname = minus;
lastChange = "2016-07-27 04:27:05 +0000";
layers = (
{
layerId = UUID0;
paths = (
{
closed = 1;
nodes = (
"64 200 LINE",
"404 200 LINE",
"404 266 LINE",
"64 266 LINE"
);
}
);
width = 468;
},
{
background = {
paths = (
{
closed = 1;
nodes = (
"64 205 LINE",
"404 205 LINE",
"404 271 LINE",
"64 271 LINE"
);
}
);
};
layerId = "B4604C5D-F439-46D0-AEF0-55E4508ED162";
paths = (
{
closed = 1;
nodes = (
"49 185 LINE",
"419 185 LINE",
"419 281 LINE",
"49 281 LINE"
);
}
);
width = 468;
}
);
unicode = 2212;
},
{
color = (31,255,0,1);
glyphname = multiply;
lastChange = "2016-07-27 04:27:05 +0000";
layers = (
{
layerId = UUID0;
paths = (
{
closed = 1;
nodes = (
"105 414 LINE",
"63 372 LINE",
"363 52 LINE",
"405 94 LINE"
);
},
{
closed = 1;
nodes = (
"63 94 LINE",
"105 52 LINE",
"405 372 LINE",
"363 414 LINE"
);
}
);
width = 468;
},
{
layerId = "B4604C5D-F439-46D0-AEF0-55E4508ED162";
paths = (
{
closed = 1;
nodes = (
"101 438 LINE",
"35 372 LINE",
"362 23 LINE",
"428 89 LINE"
);
},
{
closed = 1;
nodes = (
"40 89 LINE",
"106 23 LINE",
"433 372 LINE",
"367 438 LINE"
);
}
);
width = 468;
}
);
unicode = 00D7;
},
{
color = (31,255,0,1);
glyphname = divide;
lastChange = "2016-07-27 04:27:05 +0000";
layers = (
{
layerId = UUID0;
paths = (
{
closed = 1;
nodes = (
"64 203 LINE",
"404 203 LINE",
"404 263 LINE",
"64 263 LINE"
);
},
{
closed = 1;
nodes = (
"190 46 LINE",
"278 46 LINE",
"278 141 LINE",
"190 141 LINE"
);
},
{
closed = 1;
nodes = (
"190 325 LINE",
"278 325 LINE",
"278 420 LINE",
"190 420 LINE"
);
}
);
width = 468;
},
{
layerId = "B4604C5D-F439-46D0-AEF0-55E4508ED162";
paths = (
{
closed = 1;
nodes = (
"45 184 LINE",
"423 184 LINE",
"423 282 LINE",
"45 282 LINE"
);
},
{
closed = 1;
nodes = (
"180 28 LINE",
"288 28 LINE",
"288 141 LINE",
"180 141 LINE"
);
},
{
closed = 1;
nodes = (
"180 325 LINE",
"288 325 LINE",
"288 438 LINE",
"180 438 LINE"
);
}
);
width = 468;
}
);
unicode = 00F7;
},
{
color = (235,0,255,1);
glyphname = equal;
lastChange = "2016-07-27 04:27:05 +0000";
layers = (
{
layerId = UUID0;
paths = (
{
closed = 1;
nodes = (
"60 290 LINE",
"408 290 LINE",
"408 358 LINE",
"60 358 LINE"
);
},
{
closed = 1;
nodes = (
"60 108 LINE",
"408 108 LINE",
"408 176 LINE",
"60 176 LINE"
);
}
);
width = 468;
},
{
background = {
paths = (
{
closed = 1;
nodes = (
"60 272 LINE",
"408 272 LINE",
"408 340 LINE",
"60 340 LINE"
);
},
{
closed = 1;
nodes = (
"60 90 LINE",
"408 90 LINE",
"408 158 LINE",
"60 158 LINE"
);
}
);
};
layerId = "B4604C5D-F439-46D0-AEF0-55E4508ED162";
paths = (
{
closed = 1;
nodes = (
"45 284 LINE",
"423 284 LINE",
"423 382 LINE",
"45 382 LINE"
);
},
{
closed = 1;
nodes = (
"45 84 LINE",
"423 84 LINE",
"423 182 LINE",
"45 182 LINE"
);
}
);
width = 468;
}
);
unicode = 003D;
},
{
color = (235,0,255,1);
glyphname = greater;
lastChange = "2016-07-28 01:44:37 +0000";
layers = (
{
layerId = UUID0;
paths = (
{
closed = 1;
nodes = (
"404 203 LINE",
"404 263 LINE",
"93 448 LINE",
"93 373 LINE",
"335 233 LINE",
"93 93 LINE",
"93 18 LINE"
);
}
);
width = 468;
},
{
background = {
paths = (
{
closed = 1;
nodes = (
"404 185 LINE",
"93 0 LINE",
"93 75 LINE",
"335 215 LINE",
"93 355 LINE",
"93 430 LINE",
"404 245 LINE"
);
}
);
};
layerId = "B4604C5D-F439-46D0-AEF0-55E4508ED162";
paths = (
{
closed = 1;
nodes = (
"414 194 LINE",
"414 271 LINE",
"61 482 LINE",
"61 364 LINE",
"287 233 LINE",
"61 101 LINE",
"61 -17 LINE"
);
}
);
width = 468;
}
);
unicode = 003E;
},
{
color = (235,0,255,1);
glyphname = less;
lastChange = "2016-07-28 01:44:45 +0000";
layers = (
{
layerId = UUID0;
paths = (
{
closed = 1;
nodes = (
"375 93 LINE",
"133 233 LINE",
"375 373 LINE",
"375 448 LINE",
"64 263 LINE",
"64 203 LINE",
"375 18 LINE"
);
}
);
width = 468;
},
{
background = {
paths = (
{
closed = 1;
nodes = (
"64 185 LINE",
"375 0 LINE",
"375 75 LINE",
"133 215 LINE",
"375 355 LINE",
"375 430 LINE",
"64 245 LINE"
);
}
);
};
layerId = "B4604C5D-F439-46D0-AEF0-55E4508ED162";
paths = (
{
closed = 1;
nodes = (
"407 101 LINE",
"180 233 LINE",
"407 364 LINE",
"407 482 LINE",
"54 271 LINE",
"54 194 LINE",
"407 -17 LINE"
);
}
);
width = 468;
}
);
unicode = 003C;
},
{
color = (235,0,255,1);
glyphname = asciitilde;
lastChange = "2016-07-27 04:27:05 +0000";
layers = (
{
layerId = UUID0;
paths = (
{
closed = 1;
nodes = (
"75 234 LINE",
"75 234 OFFCURVE",
"145 299 OFFCURVE",
"175 299 CURVE SMOOTH",
"206 299 OFFCURVE",
"238 234 OFFCURVE",
"278 234 CURVE SMOOTH",
"318 234 OFFCURVE",
"385 294 OFFCURVE",
"385 294 CURVE",
"385 386 LINE",
"385 386 OFFCURVE",
"325 321 OFFCURVE",
"285 321 CURVE SMOOTH",
"254 321 OFFCURVE",
"222 386 OFFCURVE",
"182 386 CURVE SMOOTH",
"152 386 OFFCURVE",
"75 326 OFFCURVE",
"75 326 CURVE"
);
}
);
width = 452;
},
{
background = {
paths = (
{
closed = 1;
nodes = (
"75 234 LINE",
"75 234 OFFCURVE",
"145 299 OFFCURVE",
"175 299 CURVE SMOOTH",
"206 299 OFFCURVE",
"238 234 OFFCURVE",
"278 234 CURVE SMOOTH",
"318 234 OFFCURVE",
"385 294 OFFCURVE",
"385 294 CURVE",
"385 386 LINE",
"385 386 OFFCURVE",
"325 321 OFFCURVE",
"285 321 CURVE SMOOTH",
"254 321 OFFCURVE",
"222 386 OFFCURVE",
"182 386 CURVE SMOOTH",
"152 386 OFFCURVE",
"75 326 OFFCURVE",
"75 326 CURVE"
);
}
);
};
layerId = "B4604C5D-F439-46D0-AEF0-55E4508ED162";
paths = (
{
closed = 1;
nodes = (
"60 203 LINE",
"60 203 OFFCURVE",
"140 282 OFFCURVE",
"170 282 CURVE SMOOTH",
"204 282 OFFCURVE",
"233 217 OFFCURVE",
"278 217 CURVE SMOOTH",
"323 217 OFFCURVE",
"400 285 OFFCURVE",
"400 285 CURVE",
"400 417 LINE",
"400 417 OFFCURVE",
"324 334 OFFCURVE",
"285 334 CURVE SMOOTH",
"250 334 OFFCURVE",
"221 399 OFFCURVE",
"177 399 CURVE SMOOTH",
"141 399 OFFCURVE",
"60 331 OFFCURVE",
"60 331 CURVE"
);
}
);
width = 452;
}
);
unicode = 007E;
},
{
color = (235,0,255,1);
glyphname = percent;
lastChange = "2016-07-28 01:44:52 +0000";
layers = (
{
layerId = UUID0;
paths = (
{
closed = 1;
nodes = (
"186 0 LINE",
"539 550 LINE",
"471 550 LINE",
"118 0 LINE"
);
},
{
closed = 1;
nodes = (
"241 299 OFFCURVE",
"299 356 OFFCURVE",
"299 428 CURVE SMOOTH",
"299 500 OFFCURVE",
"241 558 OFFCURVE",
"169 558 CURVE SMOOTH",
"97 558 OFFCURVE",
"40 500 OFFCURVE",
"40 428 CURVE SMOOTH",
"40 356 OFFCURVE",
"97 299 OFFCURVE",
"169 299 CURVE SMOOTH"
);
},
{
closed = 1;
nodes = (
"129 350 OFFCURVE",
"92 387 OFFCURVE",
"92 428 CURVE SMOOTH",
"92 469 OFFCURVE",
"129 506 OFFCURVE",
"169 506 CURVE SMOOTH",
"209 506 OFFCURVE",
"246 469 OFFCURVE",
"246 428 CURVE SMOOTH",
"246 387 OFFCURVE",
"209 350 OFFCURVE",
"169 350 CURVE SMOOTH"
);
},
{
closed = 1;
nodes = (
"560 -8 OFFCURVE",
"618 49 OFFCURVE",
"618 121 CURVE SMOOTH",
"618 193 OFFCURVE",
"560 251 OFFCURVE",
"488 251 CURVE SMOOTH",
"416 251 OFFCURVE",
"359 193 OFFCURVE",
"359 121 CURVE SMOOTH",
"359 49 OFFCURVE",
"416 -8 OFFCURVE",
"488 -8 CURVE SMOOTH"
);
},
{
closed = 1;
nodes = (
"448 43 OFFCURVE",
"411 80 OFFCURVE",
"411 121 CURVE",
"411 162 OFFCURVE",
"448 199 OFFCURVE",
"488 199 CURVE SMOOTH",
"528 199 OFFCURVE",
"565 162 OFFCURVE",
"565 121 CURVE SMOOTH",
"565 80 OFFCURVE",
"528 43 OFFCURVE",
"488 43 CURVE SMOOTH"
);
}
);
width = 658;
},
{
background = {
paths = (
{
closed = 1;
nodes = (
"92 469 OFFCURVE",
"129 506 OFFCURVE",
"169 506 CURVE SMOOTH",
"209 506 OFFCURVE",
"246 469 OFFCURVE",
"246 428 CURVE SMOOTH",
"246 387 OFFCURVE",
"209 350 OFFCURVE",
"169 350 CURVE SMOOTH",
"129 350 OFFCURVE",
"92 387 OFFCURVE",
"92 428 CURVE SMOOTH"
);
}
);
};
layerId = "B4604C5D-F439-46D0-AEF0-55E4508ED162";
paths = (
{
closed = 1;
nodes = (
"198 0 LINE",
"551 550 LINE",
"461 550 LINE",
"108 0 LINE"
);
},
{
closed = 1;
nodes = (
"241 299 OFFCURVE",
"299 356 OFFCURVE",
"299 428 CURVE SMOOTH",
"299 500 OFFCURVE",
"241 558 OFFCURVE",
"169 558 CURVE SMOOTH",
"97 558 OFFCURVE",
"40 500 OFFCURVE",
"40 428 CURVE SMOOTH",
"40 356 OFFCURVE",
"97 299 OFFCURVE",
"169 299 CURVE SMOOTH"
);
},
{
closed = 1;
nodes = (
"138 370 OFFCURVE",
"112 396 OFFCURVE",
"112 428 CURVE SMOOTH",
"112 460 OFFCURVE",
"138 486 OFFCURVE",
"169 486 CURVE SMOOTH",
"200 486 OFFCURVE",
"226 460 OFFCURVE",
"226 428 CURVE SMOOTH",
"226 396 OFFCURVE",
"200 370 OFFCURVE",
"169 370 CURVE SMOOTH"
);
},
{
closed = 1;
nodes = (
"560 -8 OFFCURVE",
"618 49 OFFCURVE",
"618 121 CURVE SMOOTH",
"618 193 OFFCURVE",
"560 251 OFFCURVE",
"488 251 CURVE SMOOTH",
"416 251 OFFCURVE",
"359 193 OFFCURVE",
"359 121 CURVE SMOOTH",
"359 49 OFFCURVE",
"416 -8 OFFCURVE",
"488 -8 CURVE SMOOTH"
);
},
{
closed = 1;
nodes = (
"457 63 OFFCURVE",
"431 89 OFFCURVE",
"431 121 CURVE SMOOTH",
"431 153 OFFCURVE",
"457 179 OFFCURVE",
"488 179 CURVE SMOOTH",
"519 179 OFFCURVE",
"545 153 OFFCURVE",
"545 121 CURVE SMOOTH",
"545 89 OFFCURVE",
"519 63 OFFCURVE",
"488 63 CURVE SMOOTH"
);
}
);
width = 658;
}
);
unicode = 0025;
},
{
color = (235,0,255,1);
glyphname = perthousand;
lastChange = "2016-07-28 01:44:57 +0000";
layers = (
{
layerId = UUID0;
paths = (
{
closed = 1;
nodes = (
"186 0 LINE",
"539 550 LINE",
"471 550 LINE",
"118 0 LINE"
);
},
{
closed = 1;
nodes = (
"241 299 OFFCURVE",
"299 356 OFFCURVE",
"299 428 CURVE SMOOTH",
"299 500 OFFCURVE",
"241 558 OFFCURVE",
"169 558 CURVE SMOOTH",
"97 558 OFFCURVE",
"40 500 OFFCURVE",
"40 428 CURVE SMOOTH",
"40 356 OFFCURVE",
"97 299 OFFCURVE",
"169 299 CURVE SMOOTH"
);
},
{
closed = 1;
nodes = (
"129 350 OFFCURVE",
"92 387 OFFCURVE",
"92 428 CURVE SMOOTH",
"92 469 OFFCURVE",
"129 506 OFFCURVE",
"169 506 CURVE SMOOTH",
"209 506 OFFCURVE",
"246 469 OFFCURVE",
"246 428 CURVE SMOOTH",
"246 387 OFFCURVE",
"209 350 OFFCURVE",
"169 350 CURVE SMOOTH"
);
},
{
closed = 1;
nodes = (
"560 -8 OFFCURVE",
"618 49 OFFCURVE",
"618 121 CURVE SMOOTH",
"618 193 OFFCURVE",
"560 251 OFFCURVE",
"488 251 CURVE SMOOTH",
"416 251 OFFCURVE",
"359 193 OFFCURVE",
"359 121 CURVE SMOOTH",
"359 49 OFFCURVE",
"416 -8 OFFCURVE",
"488 -8 CURVE SMOOTH"
);
},
{
closed = 1;
nodes = (
"448 43 OFFCURVE",
"411 80 OFFCURVE",
"411 121 CURVE SMOOTH",
"411 162 OFFCURVE",
"448 199 OFFCURVE",
"488 199 CURVE SMOOTH",
"528 199 OFFCURVE",
"565 162 OFFCURVE",
"565 121 CURVE SMOOTH",
"565 80 OFFCURVE",
"528 43 OFFCURVE",
"488 43 CURVE SMOOTH"
);
},
{
closed = 1;
nodes = (
"865 -8 OFFCURVE",
"923 49 OFFCURVE",
"923 121 CURVE SMOOTH",
"923 193 OFFCURVE",
"865 251 OFFCURVE",
"793 251 CURVE SMOOTH",
"721 251 OFFCURVE",
"664 193 OFFCURVE",
"664 121 CURVE SMOOTH",
"664 49 OFFCURVE",
"721 -8 OFFCURVE",
"793 -8 CURVE SMOOTH"
);
},
{
closed = 1;
nodes = (
"753 43 OFFCURVE",
"716 80 OFFCURVE",
"716 121 CURVE SMOOTH",
"716 162 OFFCURVE",
"753 199 OFFCURVE",
"793 199 CURVE SMOOTH",
"833 199 OFFCURVE",
"870 162 OFFCURVE",
"870 121 CURVE SMOOTH",
"870 80 OFFCURVE",
"833 43 OFFCURVE",
"793 43 CURVE SMOOTH"
);
}
);
width = 963;
},
{
layerId = "B4604C5D-F439-46D0-AEF0-55E4508ED162";
paths = (
{
closed = 1;
nodes = (
"198 0 LINE",
"551 550 LINE",
"461 550 LINE",
"108 0 LINE"
);
},
{
closed = 1;
nodes = (
"241 299 OFFCURVE",
"299 356 OFFCURVE",
"299 428 CURVE SMOOTH",
"299 500 OFFCURVE",
"241 558 OFFCURVE",
"169 558 CURVE SMOOTH",
"97 558 OFFCURVE",
"40 500 OFFCURVE",
"40 428 CURVE SMOOTH",
"40 356 OFFCURVE",
"97 299 OFFCURVE",
"169 299 CURVE SMOOTH"
);
},
{
closed = 1;
nodes = (
"138 370 OFFCURVE",
"112 396 OFFCURVE",
"112 428 CURVE SMOOTH",
"112 460 OFFCURVE",
"138 486 OFFCURVE",
"169 486 CURVE SMOOTH",
"200 486 OFFCURVE",
"226 460 OFFCURVE",
"226 428 CURVE SMOOTH",
"226 396 OFFCURVE",
"200 370 OFFCURVE",
"169 370 CURVE SMOOTH"
);
},
{
closed = 1;
nodes = (
"560 -8 OFFCURVE",
"618 49 OFFCURVE",
"618 121 CURVE SMOOTH",
"618 193 OFFCURVE",
"560 251 OFFCURVE",
"488 251 CURVE SMOOTH",
"416 251 OFFCURVE",
"359 193 OFFCURVE",
"359 121 CURVE SMOOTH",
"359 49 OFFCURVE",
"416 -8 OFFCURVE",
"488 -8 CURVE SMOOTH"
);
},
{
closed = 1;
nodes = (
"457 63 OFFCURVE",
"431 89 OFFCURVE",
"431 121 CURVE SMOOTH",
"431 153 OFFCURVE",
"457 179 OFFCURVE",
"488 179 CURVE SMOOTH",
"519 179 OFFCURVE",
"545 153 OFFCURVE",
"545 121 CURVE SMOOTH",
"545 89 OFFCURVE",
"519 63 OFFCURVE",
"488 63 CURVE SMOOTH"
);
},
{
closed = 1;
nodes = (
"865 -8 OFFCURVE",
"923 49 OFFCURVE",
"923 121 CURVE SMOOTH",
"923 193 OFFCURVE",
"865 251 OFFCURVE",
"793 251 CURVE SMOOTH",
"721 251 OFFCURVE",
"664 193 OFFCURVE",
"664 121 CURVE SMOOTH",
"664 49 OFFCURVE",
"721 -8 OFFCURVE",
"793 -8 CURVE SMOOTH"
);
},
{
closed = 1;
nodes = (
"762 63 OFFCURVE",
"736 89 OFFCURVE",
"736 121 CURVE SMOOTH",
"736 153 OFFCURVE",
"762 179 OFFCURVE",
"793 179 CURVE SMOOTH",
"824 179 OFFCURVE",
"850 153 OFFCURVE",
"850 121 CURVE SMOOTH",
"850 89 OFFCURVE",
"824 63 OFFCURVE",
"793 63 CURVE SMOOTH"
);
}
);
width = 963;
}
);
unicode = 2030;
},
{
color = (235,0,255,1);
glyphname = at;
lastChange = "2016-07-27 04:27:05 +0000";
layers = (
{
background = {
paths = (
{
closed = 1;
nodes = (
"604 24 OFFCURVE",
"674 84 OFFCURVE",
"674 203 CURVE SMOOTH",
"674 386 OFFCURVE",
"556 534 OFFCURVE",
"373 534 CURVE SMOOTH",
"190 534 OFFCURVE",
"72 386 OFFCURVE",
"72 203 CURVE SMOOTH",
"72 20 OFFCURVE",
"190 -128 OFFCURVE",
"373 -128 CURVE SMOOTH",
"427 -128 OFFCURVE",
"477 -116 OFFCURVE",
"522 -93 CURVE",
"522 -39 LINE",
"490 -66 OFFCURVE",
"435 -85 OFFCURVE",
"373 -85 CURVE SMOOTH",
"214 -85 OFFCURVE",
"115 44 OFFCURVE",
"115 203 CURVE SMOOTH",
"115 362 OFFCURVE",
"214 491 OFFCURVE",
"373 491 CURVE SMOOTH",
"532 491 OFFCURVE",
"631 362 OFFCURVE",
"631 203 CURVE SMOOTH",
"631 116 OFFCURVE",
"585 69 OFFCURVE",
"525 69 CURVE SMOOTH",
"508 69 OFFCURVE",
"501 89 OFFCURVE",
"501 120 CURVE SMOOTH",
"501 380 LINE",
"501 380 OFFCURVE",
"422 393 OFFCURVE",
"373 393 CURVE SMOOTH",
"282 393 OFFCURVE",
"206 305 OFFCURVE",
"206 191 CURVE SMOOTH",
"206 54 OFFCURVE",
"266 24 OFFCURVE",
"292 24 CURVE SMOOTH",
"360 24 OFFCURVE",
"423 121 OFFCURVE",
"445 177 CURVE",
"445 110 LINE SMOOTH",
"445 67 OFFCURVE",
"457 24 OFFCURVE",
"525 24 CURVE SMOOTH"
);
},
{
closed = 1;
nodes = (
"404 341 OFFCURVE",
"445 332 OFFCURVE",
"445 332 CURVE",
"445 220 OFFCURVE",
"346 81 OFFCURVE",
"308 81 CURVE SMOOTH",
"282 81 OFFCURVE",
"262 130 OFFCURVE",
"262 192 CURVE SMOOTH",
"262 265 OFFCURVE",
"310 341 OFFCURVE",
"371 341 CURVE SMOOTH"
);
}
);
};
layerId = UUID0;
paths = (
{
closed = 1;
nodes = (
"604 34 OFFCURVE",
"674 84 OFFCURVE",
"674 203 CURVE SMOOTH",
"674 386 OFFCURVE",
"556 534 OFFCURVE",
"373 534 CURVE SMOOTH",
"190 534 OFFCURVE",
"72 386 OFFCURVE",
"72 203 CURVE SMOOTH",
"72 20 OFFCURVE",
"190 -128 OFFCURVE",
"373 -128 CURVE SMOOTH",
"427 -128 OFFCURVE",
"477 -116 OFFCURVE",
"522 -93 CURVE",
"522 -39 LINE",
"490 -66 OFFCURVE",
"435 -85 OFFCURVE",
"373 -85 CURVE SMOOTH",
"214 -85 OFFCURVE",
"115 44 OFFCURVE",
"115 203 CURVE SMOOTH",
"115 362 OFFCURVE",
"214 491 OFFCURVE",
"373 491 CURVE SMOOTH",
"532 491 OFFCURVE",
"631 362 OFFCURVE",
"631 203 CURVE SMOOTH",
"631 116 OFFCURVE",
"585 79 OFFCURVE",
"525 79 CURVE SMOOTH",
"498 79 OFFCURVE",
"491 99 OFFCURVE",
"491 137 CURVE SMOOTH",
"491 370 LINE",
"491 370 OFFCURVE",
"417 383 OFFCURVE",
"372 383 CURVE SMOOTH",
"287 383 OFFCURVE",
"216 303 OFFCURVE",
"216 201 CURVE SMOOTH",
"216 64 OFFCURVE",
"273 34 OFFCURVE",
"298 34 CURVE SMOOTH",
"359 34 OFFCURVE",
"414 118 OFFCURVE",
"435 174 CURVE",
"435 130 LINE SMOOTH",
"435 77 OFFCURVE",
"447 34 OFFCURVE",
"525 34 CURVE SMOOTH"
);
},
{
closed = 1;
nodes = (
"398 331 OFFCURVE",
"435 322 OFFCURVE",
"435 322 CURVE",
"435 224 OFFCURVE",
"348 91 OFFCURVE",
"314 91 CURVE SMOOTH",
"290 91 OFFCURVE",
"272 140 OFFCURVE",
"272 202 CURVE SMOOTH",
"272 265 OFFCURVE",
"315 331 OFFCURVE",
"369 331 CURVE SMOOTH"
);
}
);
width = 740;
},
{
background = {
paths = (
{
closed = 1;
nodes = (
"604 34 OFFCURVE",
"674 84 OFFCURVE",
"674 203 CURVE SMOOTH",
"674 386 OFFCURVE",
"556 534 OFFCURVE",
"373 534 CURVE SMOOTH",
"190 534 OFFCURVE",
"72 386 OFFCURVE",
"72 203 CURVE SMOOTH",
"72 20 OFFCURVE",
"190 -128 OFFCURVE",
"373 -128 CURVE SMOOTH",
"427 -128 OFFCURVE",
"477 -116 OFFCURVE",
"522 -93 CURVE",
"522 -39 LINE",
"490 -66 OFFCURVE",
"435 -85 OFFCURVE",
"373 -85 CURVE SMOOTH",
"214 -85 OFFCURVE",
"115 44 OFFCURVE",
"115 203 CURVE SMOOTH",
"115 362 OFFCURVE",
"214 491 OFFCURVE",
"373 491 CURVE SMOOTH",
"532 491 OFFCURVE",
"631 362 OFFCURVE",
"631 203 CURVE SMOOTH",
"631 116 OFFCURVE",
"585 79 OFFCURVE",
"525 79 CURVE SMOOTH",
"498 79 OFFCURVE",
"491 99 OFFCURVE",
"491 137 CURVE SMOOTH",
"491 370 LINE",
"491 370 OFFCURVE",
"417 383 OFFCURVE",
"372 383 CURVE SMOOTH",
"287 383 OFFCURVE",
"216 303 OFFCURVE",
"216 201 CURVE SMOOTH",
"216 64 OFFCURVE",
"273 34 OFFCURVE",
"298 34 CURVE SMOOTH",
"359 34 OFFCURVE",
"414 118 OFFCURVE",
"435 174 CURVE",
"435 130 LINE SMOOTH",
"435 77 OFFCURVE",
"447 34 OFFCURVE",
"525 34 CURVE SMOOTH"
);
},
{
closed = 1;
nodes = (
"398 331 OFFCURVE",
"435 322 OFFCURVE",
"435 322 CURVE",
"435 224 OFFCURVE",
"348 91 OFFCURVE",
"314 91 CURVE SMOOTH",
"290 91 OFFCURVE",
"272 140 OFFCURVE",
"272 202 CURVE SMOOTH",
"272 265 OFFCURVE",
"315 331 OFFCURVE",
"369 331 CURVE SMOOTH"
);
}
);
};
layerId = "B4604C5D-F439-46D0-AEF0-55E4508ED162";
paths = (
{
closed = 1;
nodes = (
"603 31 OFFCURVE",
"684 83 OFFCURVE",
"684 207 CURVE SMOOTH",
"684 390 OFFCURVE",
"561 538 OFFCURVE",
"373 538 CURVE SMOOTH",
"190 538 OFFCURVE",
"62 390 OFFCURVE",
"62 207 CURVE SMOOTH",
"62 24 OFFCURVE",
"190 -124 OFFCURVE",
"373 -124 CURVE SMOOTH",
"427 -124 OFFCURVE",
"475 -113 OFFCURVE",
"520 -90 CURVE",
"520 -18 LINE",
"484 -46 OFFCURVE",
"431 -64 OFFCURVE",
"373 -64 CURVE SMOOTH",
"223 -64 OFFCURVE",
"122 57 OFFCURVE",
"122 207 CURVE SMOOTH",
"122 356 OFFCURVE",
"223 478 OFFCURVE",
"373 478 CURVE SMOOTH",
"532 478 OFFCURVE",
"624 356 OFFCURVE",
"624 207 CURVE SMOOTH",
"624 120 OFFCURVE",
"575 94 OFFCURVE",
"529 94 CURVE SMOOTH",
"511 94 OFFCURVE",
"498 114 OFFCURVE",
"498 138 CURVE SMOOTH",
"498 375 LINE",
"498 375 OFFCURVE",
"421 389 OFFCURVE",
"374 389 CURVE SMOOTH",
"282 389 OFFCURVE",
"206 306 OFFCURVE",
"206 199 CURVE SMOOTH",
"206 62 OFFCURVE",
"273 31 OFFCURVE",
"302 31 CURVE SMOOTH",
"353 31 OFFCURVE",
"402 99 OFFCURVE",
"424 155 CURVE",
"424 113 LINE SMOOTH",
"424 80 OFFCURVE",
"442 31 OFFCURVE",
"514 31 CURVE SMOOTH"
);
},
{
closed = 1;
nodes = (
"391 318 OFFCURVE",
"418 313 OFFCURVE",
"424 312 CURVE",
"419 216 OFFCURVE",
"345 105 OFFCURVE",
"315 105 CURVE SMOOTH",
"297 105 OFFCURVE",
"283 144 OFFCURVE",
"283 199 CURVE SMOOTH",
"283 261 OFFCURVE",
"320 318 OFFCURVE",
"368 318 CURVE SMOOTH"
);
}
);
width = 740;
}
);
unicode = 0040;
},
